<svg width="57" height="57" viewBox="0 0 57 57" fill="none" xmlns="http://www.w3.org/2000/svg">
<path d="M15.1866 3.09307C16.7178 3.09307 18.1868 3.70138 19.2695 4.78412C20.3523 5.86688 20.9606 7.33586 20.9606 8.86703C20.9606 10.3982 20.3523 11.8672 19.2695 12.9499C18.1868 14.0327 16.7178 14.641 15.1866 14.641C13.6555 14.641 12.1865 14.0327 11.1037 12.9499C10.021 11.8672 9.41267 10.3982 9.41267 8.86703C9.41267 7.33586 10.021 5.86689 11.1037 4.78412C12.1865 3.70136 13.6555 3.09307 15.1866 3.09307ZM2.69148 32.7781H7.56645L5.63412 28.774L7.59591 24.7115L8.24728 23.3633V32.7781H22.1262V22.5213C22.1752 22.5682 22.2212 22.6177 22.2651 22.6693L22.7775 23.3645L26.0569 27.8149V27.8153C26.4265 28.3187 26.9935 28.6406 27.6154 28.7007C28.2369 28.7608 28.855 28.5532 29.3141 28.1299L36.4731 21.5567C36.904 21.1632 37.1611 20.6142 37.1867 20.0311C37.2123 19.448 37.0047 18.8785 36.6099 18.4487C36.2152 18.0186 35.6653 17.7637 35.0821 17.7398C34.4985 17.7159 33.9298 17.9252 33.5015 18.3213L28.1431 23.2401L25.8007 20.0635C24.5947 18.4338 22.6892 17.4704 20.6618 17.4649H10.2235C9.02357 17.4688 7.84826 17.8098 6.8325 18.4492C5.81624 19.0886 5.00035 20.0005 4.47773 21.0811L1.22005 27.8226C0.92719 28.4258 0.92719 29.13 1.22005 29.7333L2.69148 32.7781ZM1.00044 54.9987C1.00044 56.3338 17.6206 56.3338 17.6206 54.9987C17.6206 51.1903 13.9 48.1024 9.30988 48.1024C4.72006 48.1024 1 51.1903 1 54.9987H1.00044ZM55.3898 1H28.7211V3.44425H53.5554V29.1111L39.9548 29.1116V31.5558H55.3887C55.5507 31.5558 55.7063 31.4915 55.821 31.3768C55.9356 31.2621 56 31.1069 56 30.9445V1.61094V1.61137C56 1.27375 55.7263 1.00008 55.3887 1.00008L55.3898 1ZM13.1835 42.9324C13.1835 41.9055 12.7751 40.9203 12.0491 40.194C11.3227 39.4676 10.3375 39.0596 9.3102 39.0596C8.28329 39.0596 7.2981 39.4675 6.57175 40.194C5.84539 40.9204 5.43736 41.9055 5.43736 42.9324C5.43736 43.9598 5.84531 44.9448 6.57175 45.6713C7.29818 46.3978 8.28331 46.8057 9.3102 46.8057C10.3375 46.8057 11.3226 46.3973 12.0491 45.6713C12.775 44.9449 13.1835 43.9598 13.1835 42.9324ZM39.3797 54.9987C39.3797 56.3338 55.9998 56.3338 55.9998 54.9987C55.9998 51.1903 52.2801 48.1024 47.69 48.1024C43.0994 48.1024 39.3788 51.1903 39.3788 54.9987H39.3797ZM51.5627 42.9324C51.5627 41.9055 51.1547 40.9203 50.4283 40.194C49.7024 39.4676 48.7172 39.0596 47.6899 39.0596C46.6625 39.0596 45.6778 39.4675 44.9514 40.194C44.225 40.9204 43.817 41.9055 43.817 42.9324C43.817 43.9598 44.225 44.9448 44.9514 45.6713C45.6773 46.3973 46.6625 46.8057 47.6899 46.8057C48.7172 46.8057 49.702 46.3977 50.4283 45.6713C51.1547 44.9449 51.5627 43.9598 51.5627 42.9324ZM36.8108 54.9987C36.8108 51.1903 33.091 48.1024 28.5009 48.1024C23.9108 48.1024 20.1902 51.1903 20.1902 54.9987C20.1902 56.3338 36.8103 56.3338 36.8103 54.9987H36.8108ZM24.6277 42.9324C24.6277 43.9598 25.0357 44.9448 25.7621 45.6713C26.4885 46.3973 27.4737 46.8057 28.5006 46.8057C29.5279 46.8057 30.513 46.3977 31.2395 45.6713C31.9654 44.9449 32.3739 43.9598 32.3739 42.9324C32.3739 41.9055 31.9655 40.9203 31.2395 40.194C30.5131 39.4676 29.5279 39.0596 28.5006 39.0596C27.4737 39.0596 26.4885 39.4675 25.7621 40.194C25.0358 40.9204 24.6277 41.9055 24.6277 42.9324Z" fill="#FF5331"/>
</svg>
