<svg width="45" height="51" viewBox="0 0 45 51" fill="none" xmlns="http://www.w3.org/2000/svg">
<path d="M41.4539 8.11737H33.2578V9.69349H41.4539C42.4785 9.69349 43.3453 10.5603 43.3453 11.5849V37.1191H1.57612V11.5849C1.57612 10.5603 2.4429 9.69349 3.46748 9.69349H4.01897V8.11737H3.46748C1.57612 8.11737 0 9.69349 0 11.5849V40.7443C0 42.6357 1.57612 44.2118 3.46748 44.2118H41.5325C43.4239 44.2118 45 42.6357 45 40.7443V11.5849C44.9213 9.69349 43.4239 8.11737 41.4538 8.11737H41.4539Z" fill="#FF5331"/>
<path d="M31.9976 48.8622H30.185L29.239 45.7887L15.6048 45.7883L14.7377 48.8622H12.925C12.4523 48.8622 12.137 49.1775 12.137 49.6502C12.137 50.123 12.4523 50.4383 12.925 50.4383H32.0755C32.5482 50.4383 32.8635 50.123 32.8635 49.6502C32.7848 49.1771 32.4695 48.8622 31.9968 48.8622L31.9976 48.8622Z" fill="#FF5331"/>
<path d="M29.397 16.3133L29.0817 17.3379C28.6877 17.4954 28.3724 17.5745 28.0571 17.8107L27.1112 17.2592C26.7959 17.1017 26.4019 17.1017 26.1653 17.4167L24.747 18.914C24.5104 19.1506 24.4317 19.5446 24.5895 19.8599L25.141 20.8058C24.9835 21.1211 24.8257 21.5152 24.6682 21.8304L23.6437 22.0666C23.3284 22.1454 23.0922 22.4607 23.0922 22.8547V24.9039C23.0922 25.2191 23.3287 25.5344 23.6437 25.6919L24.6682 26.0072C24.8257 26.4012 24.9048 26.7165 25.141 27.0318L24.5895 27.9777C24.432 28.293 24.432 28.687 24.747 28.9236L26.2443 30.421C26.4809 30.6575 26.8749 30.7362 27.1902 30.5784L28.1361 30.0269C28.4514 30.1844 28.8455 30.3422 29.1607 30.421L29.476 31.4455C29.5548 31.7608 29.87 31.997 30.2641 31.997H32.3132C32.7073 31.997 32.9438 31.7605 33.1013 31.4455L33.4166 30.421C33.8106 30.3422 34.1259 30.1844 34.4412 30.0269L35.3871 30.5784C35.7024 30.7359 36.0964 30.6572 36.333 30.421L37.7516 28.9236C37.9881 28.687 38.0669 28.293 37.909 27.9777L37.3576 27.0318C37.515 26.7165 37.6728 26.3225 37.7516 26.0072L38.7762 25.6919C39.0915 25.6132 39.3277 25.2979 39.3277 24.9039L39.3266 22.8547C39.3266 22.4607 39.09 22.2241 38.7751 22.0666L37.7505 21.7513C37.6718 21.3573 37.5139 21.042 37.3565 20.7268L37.908 19.7808C38.0654 19.4656 37.9867 19.0715 37.7505 18.8349L36.3319 17.4163C36.0953 17.1798 35.7013 17.101 35.386 17.2589L34.4401 17.8104C34.1248 17.6529 33.7308 17.4951 33.4155 17.3376L33.1002 16.313C33.0215 15.9977 32.7062 15.7615 32.3122 15.7615H30.263C29.791 15.7619 29.4757 15.9981 29.3969 16.3134L29.397 16.3133ZM33.5738 24.352C33.4163 25.2979 32.6279 26.0068 31.7611 26.1647C30.185 26.48 28.9238 25.2188 28.9238 23.8794C28.9238 22.5394 30.0272 21.5152 31.288 21.5152C32.6279 21.5149 33.8103 22.7756 33.5737 24.3521L33.5738 24.352Z" fill="#FF5331"/>
<path d="M31.6818 2.28537C31.6818 1.02458 30.6572 0 29.3965 0H7.88119C6.62041 0 5.59583 1.02458 5.59583 2.28537V5.75285H31.6818V2.28537ZM10.0087 3.78273C9.69338 4.09801 9.22061 4.09801 8.90532 3.78273C8.59003 3.46744 8.59003 2.99467 8.90532 2.67938C9.2206 2.36409 9.69337 2.36409 10.0087 2.67938C10.324 2.91594 10.324 3.46743 10.0087 3.78273ZM13.3978 3.78273C13.0825 4.09801 12.6097 4.09801 12.2944 3.78273C11.9791 3.46744 11.9791 2.99467 12.2944 2.67938C12.6097 2.36408 13.0825 2.36409 13.3978 2.67938C13.634 2.91594 13.7127 3.46743 13.3978 3.78273ZM16.7078 3.78273C16.3925 4.09801 15.9198 4.09801 15.6045 3.78273C15.2892 3.46744 15.2892 2.99467 15.6045 2.67938C15.9197 2.36409 16.3925 2.36409 16.7078 2.67938C17.0227 2.99467 17.0227 3.46743 16.7078 3.78273Z" fill="#FF5331"/>
<path d="M7.88157 32.7062H28.2934C28.0568 32.4696 27.8994 32.1547 27.8206 31.8394C27.4266 32.076 27.0326 32.1547 26.6385 32.1547C26.0079 32.1547 25.4564 31.9181 24.9837 31.5241L23.4864 30.0267C22.6983 29.3174 22.5405 28.1354 23.0924 27.1895C22.0678 26.8742 21.3584 26.0073 21.3584 24.9041L21.3581 22.8552C21.3581 21.8306 22.0674 20.8851 23.092 20.5698C22.6192 19.6239 22.698 18.5207 23.486 17.7326L24.9834 16.2352C25.3774 15.7624 26.008 15.5259 26.6382 15.5259C27.0322 15.5259 27.4262 15.6046 27.8203 15.8412C28.0568 14.8166 29.0024 14.1072 30.1056 14.1072H31.603V7.32971H5.59595V30.3422C5.59595 31.6818 6.62016 32.7064 7.88132 32.7064L7.88157 32.7062ZM10.955 10.4033H26.3224C26.7952 10.4033 27.1105 10.7973 27.1105 11.1913C27.1105 11.6641 26.7952 11.9794 26.3224 11.9794H10.955C10.561 11.9794 10.167 11.6641 10.167 11.1913C10.167 10.7186 10.561 10.4033 10.955 10.4033ZM10.955 15.7625H17.575C17.9691 15.7625 18.3631 16.0778 18.3631 16.5505C18.3631 16.9446 17.9691 17.3386 17.575 17.3386H10.955C10.561 17.3386 10.167 16.9446 10.167 16.5505C10.167 16.1565 10.561 15.7625 10.955 15.7625ZM10.955 21.2001H17.575C17.9691 21.2001 18.3631 21.5941 18.3631 21.9881C18.3631 22.3822 17.9691 22.7762 17.575 22.7762H10.955C10.561 22.7762 10.167 22.3822 10.167 21.9881C10.167 21.5941 10.561 21.2001 10.955 21.2001ZM10.955 26.5593H17.575C17.9691 26.5593 18.3631 26.8746 18.3631 27.3474C18.3631 27.8201 17.9691 28.1354 17.575 28.1354H10.955C10.561 28.1354 10.167 27.8201 10.167 27.3474C10.167 26.8742 10.561 26.5593 10.955 26.5593Z" fill="#FF5331"/>
</svg>
