<svg width="57" height="57" viewBox="0 0 57 57" fill="none" xmlns="http://www.w3.org/2000/svg">
<path d="M42.0807 42.0441C40.9898 42.0441 39.9435 42.4775 39.1718 43.2488C38.4005 44.0206 37.9671 45.0669 37.9671 46.1577C37.9671 47.2485 38.4005 48.2949 39.1718 49.0666C39.9435 49.838 40.9899 50.2714 42.0807 50.2714C43.1715 50.2714 44.2179 49.838 44.9896 49.0666C45.7609 48.2949 46.1943 47.2485 46.1943 46.1577C46.1943 45.0669 45.7609 44.0205 44.9896 43.2488C44.2178 42.4775 43.1715 42.0441 42.0807 42.0441ZM42.0807 42.0441C40.9898 42.0441 39.9435 42.4775 39.1718 43.2488C38.4005 44.0206 37.9671 45.0669 37.9671 46.1577C37.9671 47.2485 38.4005 48.2949 39.1718 49.0666C39.9435 49.838 40.9899 50.2714 42.0807 50.2714C43.1715 50.2714 44.2179 49.838 44.9896 49.0666C45.7609 48.2949 46.1943 47.2485 46.1943 46.1577C46.1943 45.0669 45.7609 44.0205 44.9896 43.2488C44.2178 42.4775 43.1715 42.0441 42.0807 42.0441ZM42.0807 42.0441C40.9898 42.0441 39.9435 42.4775 39.1718 43.2488C38.4005 44.0206 37.9671 45.0669 37.9671 46.1577C37.9671 47.2485 38.4005 48.2949 39.1718 49.0666C39.9435 49.838 40.9899 50.2714 42.0807 50.2714C43.1715 50.2714 44.2179 49.838 44.9896 49.0666C45.7609 48.2949 46.1943 47.2485 46.1943 46.1577C46.1943 45.0669 45.7609 44.0205 44.9896 43.2488C44.2178 42.4775 43.1715 42.0441 42.0807 42.0441ZM42.0807 42.0441C40.9898 42.0441 39.9435 42.4775 39.1718 43.2488C38.4005 44.0206 37.9671 45.0669 37.9671 46.1577C37.9671 47.2485 38.4005 48.2949 39.1718 49.0666C39.9435 49.838 40.9899 50.2714 42.0807 50.2714C43.1715 50.2714 44.2179 49.838 44.9896 49.0666C45.7609 48.2949 46.1943 47.2485 46.1943 46.1577C46.1943 45.0669 45.7609 44.0205 44.9896 43.2488C44.2178 42.4775 43.1715 42.0441 42.0807 42.0441ZM42.0807 42.0441C40.9898 42.0441 39.9435 42.4775 39.1718 43.2488C38.4005 44.0206 37.9671 45.0669 37.9671 46.1577C37.9671 47.2485 38.4005 48.2949 39.1718 49.0666C39.9435 49.838 40.9899 50.2714 42.0807 50.2714C43.1715 50.2714 44.2179 49.838 44.9896 49.0666C45.7609 48.2949 46.1943 47.2485 46.1943 46.1577C46.1943 45.0669 45.7609 44.0205 44.9896 43.2488C44.2178 42.4775 43.1715 42.0441 42.0807 42.0441ZM42.0807 42.0441C40.9898 42.0441 39.9435 42.4775 39.1718 43.2488C38.4005 44.0206 37.9671 45.0669 37.9671 46.1577C37.9671 47.2485 38.4005 48.2949 39.1718 49.0666C39.9435 49.838 40.9899 50.2714 42.0807 50.2714C43.1715 50.2714 44.2179 49.838 44.9896 49.0666C45.7609 48.2949 46.1943 47.2485 46.1943 46.1577C46.1943 45.0669 45.7609 44.0205 44.9896 43.2488C44.2178 42.4775 43.1715 42.0441 42.0807 42.0441ZM53.0745 45.6642L46.1223 34.8452H37.4015L30.4497 45.6642C29.3735 47.9891 29.5553 50.7025 30.9327 52.8631C32.3274 55.0921 34.7722 56.4446 37.4015 56.4418H46.1223C48.7456 56.4514 51.189 55.1109 52.5912 52.8937C53.9795 50.7258 54.1618 47.9978 53.0746 45.6641L53.0745 45.6642ZM42.0807 52.3282C40.4439 52.3282 38.8748 51.6781 37.7173 50.5211C36.5603 49.3637 35.9102 47.7945 35.9102 46.1577C35.9102 44.521 36.5603 42.9518 37.7173 41.7943C38.8747 40.6374 40.4439 39.9873 42.0807 39.9873C43.7174 39.9873 45.2866 40.6374 46.4441 41.7943C47.601 42.9518 48.2511 44.521 48.2511 46.1577C48.2511 47.7945 47.601 49.3637 46.4441 50.5211C45.2867 51.6781 43.7174 52.3282 42.0807 52.3282ZM42.0807 42.0441C40.9898 42.0441 39.9435 42.4775 39.1718 43.2488C38.4005 44.0206 37.9671 45.0669 37.9671 46.1577C37.9671 47.2485 38.4005 48.2949 39.1718 49.0666C39.9435 49.838 40.9899 50.2714 42.0807 50.2714C43.1715 50.2714 44.2179 49.838 44.9896 49.0666C45.7609 48.2949 46.1943 47.2485 46.1943 46.1577C46.1943 45.0669 45.7609 44.0205 44.9896 43.2488C44.2178 42.4775 43.1715 42.0441 42.0807 42.0441ZM44.9294 27.1116C44.3964 27.9899 43.5448 28.6289 42.5526 28.8953C41.56 29.1616 40.5035 29.0344 39.6023 28.5413C38.8856 28.2016 38.2346 27.7388 37.6791 27.1736C37.3866 26.9325 37.0295 26.7838 36.6525 26.7452C36.2756 26.7071 35.8955 26.7806 35.5603 26.9573L37.5042 32.7885H45.855L47.7781 27.0395C46.8728 26.7415 45.6079 26.5253 44.9294 27.1116L44.9294 27.1116ZM42.0807 42.0441C40.9898 42.0441 39.9435 42.4775 39.1718 43.2488C38.4005 44.0206 37.9671 45.0669 37.9671 46.1577C37.9671 47.2485 38.4005 48.2949 39.1718 49.0666C39.9435 49.838 40.9899 50.2714 42.0807 50.2714C43.1715 50.2714 44.2179 49.838 44.9896 49.0666C45.7609 48.2949 46.1943 47.2485 46.1943 46.1577C46.1943 45.0669 45.7609 44.0205 44.9896 43.2488C44.2178 42.4775 43.1715 42.0441 42.0807 42.0441ZM42.0807 42.0441C40.9898 42.0441 39.9435 42.4775 39.1718 43.2488C38.4005 44.0206 37.9671 45.0669 37.9671 46.1577C37.9671 47.2485 38.4005 48.2949 39.1718 49.0666C39.9435 49.838 40.9899 50.2714 42.0807 50.2714C43.1715 50.2714 44.2179 49.838 44.9896 49.0666C45.7609 48.2949 46.1943 47.2485 46.1943 46.1577C46.1943 45.0669 45.7609 44.0205 44.9896 43.2488C44.2178 42.4775 43.1715 42.0441 42.0807 42.0441ZM42.0807 42.0441C40.9898 42.0441 39.9435 42.4775 39.1718 43.2488C38.4005 44.0206 37.9671 45.0669 37.9671 46.1577C37.9671 47.2485 38.4005 48.2949 39.1718 49.0666C39.9435 49.838 40.9899 50.2714 42.0807 50.2714C43.1715 50.2714 44.2179 49.838 44.9896 49.0666C45.7609 48.2949 46.1943 47.2485 46.1943 46.1577C46.1943 45.0669 45.7609 44.0205 44.9896 43.2488C44.2178 42.4775 43.1715 42.0441 42.0807 42.0441ZM42.0807 42.0441C40.9898 42.0441 39.9435 42.4775 39.1718 43.2488C38.4005 44.0206 37.9671 45.0669 37.9671 46.1577C37.9671 47.2485 38.4005 48.2949 39.1718 49.0666C39.9435 49.838 40.9899 50.2714 42.0807 50.2714C43.1715 50.2714 44.2179 49.838 44.9896 49.0666C45.7609 48.2949 46.1943 47.2485 46.1943 46.1577C46.1943 45.0669 45.7609 44.0205 44.9896 43.2488C44.2178 42.4775 43.1715 42.0441 42.0807 42.0441ZM27.683 21.4759V42.0441H29.7398V21.4759H27.683ZM35.2518 1.70933C38.7999 5.02092 41.5972 10.8828 42.9341 18.3907H54C52.4564 14.3014 49.9447 10.6478 46.6795 7.7425C43.4139 4.83722 39.493 2.76712 35.2518 1.7098V1.70933ZM29.7398 1V18.3901H40.8567C39.0469 8.71294 34.6454 1.85328 29.7398 1ZM16.5656 18.3901H27.6825V1C22.7769 1.85348 18.4268 8.71306 16.5656 18.3901ZM3.42194 18.3901H14.4878C15.8248 10.8827 18.6015 5.02078 22.1701 1.70872C17.9288 2.76605 14.0081 4.83614 10.7424 7.74142C7.47728 10.6467 4.96549 14.3003 3.42194 18.3896V18.3901ZM42.0795 42.0435C40.9887 42.0435 39.9423 42.4769 39.1706 43.2482C38.3993 44.0199 37.9659 45.0663 37.9659 46.1571C37.9659 47.2479 38.3993 48.2943 39.1706 49.066C39.9423 49.8373 40.9887 50.2707 42.0795 50.2707C43.1703 50.2707 44.2167 49.8373 44.9884 49.066C45.7597 48.2943 46.1931 47.2479 46.1931 46.1571C46.1931 45.0663 45.7597 44.0199 44.9884 43.2482C44.2167 42.4769 43.1703 42.0435 42.0795 42.0435ZM42.0795 42.0435C40.9887 42.0435 39.9423 42.4769 39.1706 43.2482C38.3993 44.0199 37.9659 45.0663 37.9659 46.1571C37.9659 47.2479 38.3993 48.2943 39.1706 49.066C39.9423 49.8373 40.9887 50.2707 42.0795 50.2707C43.1703 50.2707 44.2167 49.8373 44.9884 49.066C45.7597 48.2943 46.1931 47.2479 46.1931 46.1571C46.1931 45.0663 45.7597 44.0199 44.9884 43.2482C44.2167 42.4769 43.1703 42.0435 42.0795 42.0435ZM12.2557 37.9298V39.9867H22.5398V37.9298H12.2557ZM12.2557 42.0435V44.1003H22.5398V42.0435H12.2557ZM12.2557 46.1571V48.2139H22.5398V46.1571H12.2557ZM12.2557 50.2707V52.3276H22.5398V50.2707H12.2557ZM12.2557 54.3844V56.4412H22.5398V54.3844H12.2557ZM3 46.1571V48.2139H10.1989V46.1571H3ZM3 50.2707V52.3276H10.1989V50.2707H3ZM3 54.3844V56.4412H10.1989V54.3844H3ZM42.0795 42.0435C40.9887 42.0435 39.9423 42.4769 39.1706 43.2482C38.3993 44.0199 37.9659 45.0663 37.9659 46.1571C37.9659 47.2479 38.3993 48.2943 39.1706 49.066C39.9423 49.8373 40.9887 50.2707 42.0795 50.2707C43.1703 50.2707 44.2167 49.8373 44.9884 49.066C45.7597 48.2943 46.1931 47.2479 46.1931 46.1571C46.1931 45.0663 45.7597 44.0199 44.9884 43.2482C44.2167 42.4769 43.1703 42.0435 42.0795 42.0435ZM42.0795 42.0435C40.9887 42.0435 39.9423 42.4769 39.1706 43.2482C38.3993 44.0199 37.9659 45.0663 37.9659 46.1571C37.9659 47.2479 38.3993 48.2943 39.1706 49.066C39.9423 49.8373 40.9887 50.2707 42.0795 50.2707C43.1703 50.2707 44.2167 49.8373 44.9884 49.066C45.7597 48.2943 46.1931 47.2479 46.1931 46.1571C46.1931 45.0663 45.7597 44.0199 44.9884 43.2482C44.2167 42.4769 43.1703 42.0435 42.0795 42.0435Z" fill="#FF5331"/>
</svg>
