<svg width="57" height="57" viewBox="0 0 57 57" fill="none" xmlns="http://www.w3.org/2000/svg">
<path fill-rule="evenodd" clip-rule="evenodd" d="M11.1892 7.45021C10.2659 6.18077 8.76945 5.35168 7.08926 5.35168C4.30267 5.35168 2.02382 7.63131 2.02294 10.418L2.01477 36.561C3.09588 34.9083 4.96396 33.8259 7.06601 33.8259C8.65196 33.8259 10.0948 34.4383 11.1716 35.4394L11.1892 12.9162L11.1892 7.45021Z" fill="#FF5331"/>
<path fill-rule="evenodd" clip-rule="evenodd" d="M28.7936 28.5306H32.943V39.544H17.8739V30.4504H28.3496C28.5947 30.4504 28.7938 30.2517 28.7938 30.0061L28.7936 28.5306Z" fill="#FF5331"/>
<path fill-rule="evenodd" clip-rule="evenodd" d="M36.9391 19.5594V17.2532H50.2731V25.5692H36.9391V19.5594Z" fill="#FF5331"/>
<path fill-rule="evenodd" clip-rule="evenodd" d="M28.7936 17.2531H36.0518V26.0129C36.0518 26.258 36.2505 26.4567 36.4956 26.4567H50.2744V39.5441H33.8314V28.0871C33.8314 27.842 33.6327 27.6433 33.3876 27.6433H28.7939L28.7936 17.2531Z" fill="#FF5331"/>
<path fill-rule="evenodd" clip-rule="evenodd" d="M17.8738 17.2531H27.9057V29.5622H17.8738V17.2531Z" fill="#FF5331"/>
<path fill-rule="evenodd" clip-rule="evenodd" d="M7.06631 34.7904C4.39664 34.7904 2.20949 36.8554 2.01419 39.4748C2.00473 39.6008 2 39.7281 2 39.8562C2 42.6541 4.26839 44.9226 7.06632 44.9226H56V11.2616H12.1558L12.1334 39.8562C12.1334 37.0584 9.865 34.7899 7.06708 34.7899L7.06631 34.7904ZM16.9094 16.2887H51.2386V40.5084H16.9094V16.2887Z" fill="#FF5331"/>
<path fill-rule="evenodd" clip-rule="evenodd" d="M44.7918 7.93105H21.8601V6.59753H44.7918V7.93105Z" fill="#FF5331"/>
<path fill-rule="evenodd" clip-rule="evenodd" d="M21.859 1.00012H44.7907V2.33364H21.859V1.00012Z" fill="#FF5331"/>
<path fill-rule="evenodd" clip-rule="evenodd" d="M45.7561 7.93103L51.2175 4.49117L45.7561 1.00012V7.93103Z" fill="#FF5331"/>
<path fill-rule="evenodd" clip-rule="evenodd" d="M20.8957 7.93102H18.9166C17.8282 7.93102 16.9375 7.04041 16.9375 5.95194V2.97908C16.9375 1.89066 17.8281 1 18.9166 1H20.8957V7.93102Z" fill="#FF5331"/>
<path fill-rule="evenodd" clip-rule="evenodd" d="M21.859 5.6334H44.7907V3.29785H21.859V5.6334Z" fill="#FF5331"/>
<path fill-rule="evenodd" clip-rule="evenodd" d="M50.7223 49.5347V55.1849H17.4313V49.5347H19.366V52.0216C19.366 52.2878 19.5776 52.5037 19.8386 52.5037C20.0996 52.5037 20.3112 52.2878 20.3112 52.0216V49.5347H22.1011V52.3622C22.1011 52.6284 22.3126 52.8443 22.5737 52.8443C22.8347 52.8443 23.0463 52.6284 23.0463 52.3622V49.5347H24.5144V52.0216C24.5144 52.2878 24.726 52.5037 24.987 52.5037C25.2481 52.5037 25.4597 52.2878 25.4597 52.0216V49.5347H27.2499V52.3622C27.2499 52.6284 27.4615 52.8443 27.7226 52.8443C27.9836 52.8443 28.1952 52.6284 28.1952 52.3622V49.5347H29.6633V52.0216C29.6633 52.2878 29.8749 52.5037 30.1359 52.5037C30.397 52.5037 30.6085 52.2878 30.6085 52.0216V49.5347H32.3984V52.3622C32.3984 52.6284 32.61 52.8443 32.871 52.8443C33.132 52.8443 33.3436 52.6284 33.3436 52.3622V49.5347H34.8118V52.0216C34.8118 52.2878 35.0233 52.5037 35.2844 52.5037C35.5454 52.5037 35.757 52.2878 35.757 52.0216V49.5347H37.5473V52.3622C37.5473 52.6284 37.7589 52.8443 38.0199 52.8443C38.2809 52.8443 38.4925 52.6284 38.4925 52.3622V49.5347H39.9607V52.0216C39.9607 52.2878 40.1722 52.5037 40.4333 52.5037C40.6943 52.5037 40.9059 52.2878 40.9059 52.0216V49.5347H42.6962V52.3622C42.6962 52.6284 42.9077 52.8443 43.1688 52.8443C43.4298 52.8443 43.6414 52.6284 43.6414 52.3622V49.5347H45.1095V52.0216C45.1095 52.2878 45.3211 52.5037 45.5822 52.5037C45.8432 52.5037 46.0548 52.2878 46.0548 52.0216V49.5347H47.845V52.3622C47.845 52.6284 48.0566 52.8443 48.3177 52.8443C48.5787 52.8443 48.7903 52.6284 48.7903 52.3622V49.5347H50.725H50.7223Z" fill="#FF5331"/>
</svg>
