<svg width="57" height="57" viewBox="0 0 57 57" fill="none" xmlns="http://www.w3.org/2000/svg">
<path d="M16.9523 36.6211H11.3767C10.9894 36.6211 10.6024 36.3115 10.6024 35.8467V25.0053C10.6024 22.3724 8.58896 20.1267 6.03337 20.0494C3.32297 19.972 1.15479 22.1402 1.15479 24.7731V40.4155C1.15479 40.7251 1.38697 40.8802 1.61955 40.8802H14.0868C14.4742 40.8802 14.8612 41.1898 14.8612 41.6546V53.2706C14.8612 54.4323 15.7129 55.5162 16.952 55.5936C18.1911 55.671 19.275 54.6645 19.275 53.4254V38.712C19.1206 37.6277 18.1137 36.6212 16.952 36.6212L16.9523 36.6211Z" fill="#FF5331"/>
<path d="M40.1066 36.6211H45.6822C46.0695 36.6211 46.4565 36.3115 46.4565 35.8467V25.0053C46.4565 22.3724 48.47 20.1267 51.0255 20.0494C53.736 19.972 55.9041 22.1402 55.9041 24.7731V40.4155C55.9041 40.7251 55.672 40.8802 55.4394 40.8802H42.9721C42.5847 40.8802 42.1978 41.1898 42.1978 41.6546V53.2706C42.1978 54.4323 41.346 55.5162 40.1069 55.5936C38.8679 55.671 37.7839 54.6645 37.7839 53.4254V38.712C37.9387 37.6276 38.9452 36.6212 40.1069 36.6212L40.1066 36.6211Z" fill="#FF5331"/>
<path d="M10.6021 12.3835C10.6021 15.0352 8.45249 17.1847 5.80083 17.1847C3.14957 17.1847 1 15.0352 1 12.3835C1 9.73184 3.14957 7.58228 5.80083 7.58228C8.45249 7.58228 10.6021 9.73184 10.6021 12.3835Z" fill="#FF5331"/>
<path d="M55.9808 12.3835C55.9808 15.0352 53.8313 17.1847 51.18 17.1847C48.5283 17.1847 46.3788 15.0352 46.3788 12.3835C46.3788 9.73184 48.5283 7.58228 51.18 7.58228C53.8313 7.58228 55.9808 9.73184 55.9808 12.3835Z" fill="#FF5331"/>
<path d="M37.4731 31.1233H19.7399C18.5782 31.1233 17.4943 31.975 17.4169 33.2141C17.3395 34.4532 18.346 35.5371 19.5851 35.5371H25.6254C26.0127 35.5371 26.3997 35.8467 26.3997 36.3115V51.1792C26.3997 52.3409 27.2514 53.4248 28.4905 53.5022C29.7296 53.5796 30.8135 52.5731 30.8135 51.334L30.8131 36.2343C30.8131 35.8469 31.1227 35.46 31.5875 35.46H37.4725C38.6342 35.46 39.7182 34.6082 39.7955 33.3691C39.7185 32.1301 38.712 31.1235 37.4729 31.1235L37.4731 31.1233Z" fill="#FF5331"/>
<path d="M10.9893 42.6614H2.70337C1.92904 42.6614 1.23213 43.2035 1.07731 43.9779C0.922518 44.9844 1.69686 45.7592 2.62601 45.7592H5.10423C5.18163 45.7592 5.25902 45.8366 5.25902 45.914V53.9677C5.25902 54.7421 5.80117 55.439 6.57555 55.5938C7.58203 55.7486 8.35683 54.9742 8.35683 54.0451L8.35644 45.9909C8.35644 45.9135 8.43383 45.8361 8.51123 45.8361H10.9116C11.6859 45.8361 12.3828 45.294 12.5377 44.5196C12.6928 43.5131 11.9959 42.6614 10.9894 42.6614H10.9893Z" fill="#FF5331"/>
<path d="M54.4316 42.6614H46.1456C45.3713 42.6614 44.6744 43.2035 44.5196 43.9779C44.3648 44.9844 45.1391 45.7592 46.0683 45.7592H48.5465C48.6239 45.7592 48.7013 45.8366 48.7013 45.914V53.9677C48.7013 54.7421 49.2434 55.439 50.0178 55.5938C51.0243 55.7486 51.7991 54.9742 51.7991 54.0451L51.7987 45.9909C51.7987 45.9135 51.8761 45.8361 51.9535 45.8361H54.3539C55.1282 45.8361 55.8251 45.294 55.9799 44.5196C56.1355 43.5131 55.3612 42.6614 54.4316 42.6614H54.4316Z" fill="#FF5331"/>
<path d="M32.8266 5.25901C32.8266 7.61118 30.9198 9.51801 28.5676 9.51801C26.2154 9.51801 24.3086 7.61118 24.3086 5.25901C24.3086 2.90683 26.2154 1 28.5676 1C30.9198 1 32.8266 2.90683 32.8266 5.25901Z" fill="#FF5331"/>
<path d="M39.4873 16.7195L32.75 12.6152C32.6726 12.5378 32.5952 12.5378 32.5179 12.5378C31.9757 12.073 31.4335 11.7635 30.8144 11.4534C30.6596 11.3761 30.5048 11.4534 30.4271 11.5308L29.4979 12.3826C29.4206 12.46 29.3432 12.6148 29.3432 12.6922L30.3496 21.5202C30.3496 21.675 30.3496 21.7524 30.1948 21.8298L28.7236 23.0688C28.5688 23.2236 28.3362 23.2236 28.1815 23.0688L26.7102 21.8298C26.6328 21.7524 26.5554 21.5976 26.5554 21.4424L27.7167 12.6929C27.7167 12.5381 27.7167 12.4607 27.5619 12.3833L26.6328 11.5316C26.5554 11.4542 26.4006 11.3768 26.2455 11.4542C25.6259 11.6864 25.0064 12.0738 24.542 12.5386C24.4646 12.5386 24.3872 12.616 24.3098 12.616L17.5722 16.7194C16.7979 17.1842 16.4879 18.1133 16.7979 18.9651L19.4308 25.8571C19.7404 26.5541 20.4373 27.0188 21.1343 27.0188C21.3664 27.0188 21.599 26.9414 21.8312 26.8641C21.9086 26.7867 22.0634 26.7867 22.1408 26.7093C22.2956 26.6319 22.4504 26.7093 22.4504 26.8641V28.1031C22.4504 28.1805 22.5278 28.2579 22.6051 28.2579H34.3755C34.4529 28.2579 34.5303 28.1805 34.5303 28.1031V26.8641C34.5303 26.7093 34.6851 26.6319 34.8399 26.7093C34.9173 26.7867 34.9946 26.7867 35.1494 26.8641C35.3816 26.9414 35.6142 27.0188 35.8464 27.0188C36.6207 27.0188 37.3176 26.5541 37.5498 25.8571L40.1827 18.9651C40.5709 18.1134 40.2613 17.1842 39.487 16.7194L39.4873 16.7195ZM22.451 22.4502C22.451 22.6824 22.1415 22.6824 22.1415 22.5276L20.8249 19.1977C20.8249 19.1203 20.8249 19.0429 20.9023 18.9655L22.2188 18.1912C22.3736 18.1138 22.5284 18.1912 22.5284 18.346V22.4503L22.451 22.4502ZM36.2355 19.1977L34.919 22.5276C34.8416 22.6824 34.6094 22.6824 34.6094 22.4502V18.3459C34.6094 18.1911 34.7642 18.1137 34.919 18.1911L36.2355 18.9654V19.1976V19.1977Z" fill="#FF5331"/>
</svg>
