<svg width="57" height="57" viewBox="0 0 57 57" fill="none" xmlns="http://www.w3.org/2000/svg">
<path d="M37.6597 41.8819V55H0V41.8819C0 38.9767 2.00117 36.5117 4.91197 35.8953L12.0072 34.3106L15.5547 41.0893L17.1922 36.5113L15.6458 33.4299H22.1042L20.5577 36.5113L22.1952 41.0893L25.7428 34.2225L32.8379 35.8072C35.6585 36.5117 37.6597 39.0649 37.6597 41.8819Z" fill="#FF5331"/>
<path d="M27.1982 19.3435C27.1982 24.8867 23.4512 29.3799 18.8292 29.3799C14.2072 29.3799 10.4602 24.8867 10.4602 19.3435C10.4602 13.8008 14.2072 9.30713 18.8292 9.30713C23.4512 9.30713 27.1982 13.8008 27.1982 19.3435Z" fill="#FF5331"/>
<path d="M54.4881 2.00032H33.7473C32.6557 2.00032 31.8372 2.8806 31.8372 3.849V22.7773L38.0228 19.0795H54.3961C55.4877 19.0795 56.3062 18.1992 56.3062 17.2308V3.84868C56.3973 2.79259 55.4877 2 54.4871 2L54.4881 2.00032ZM38.3866 5.52182H49.8488C50.3947 5.52182 50.7584 5.87385 50.7584 6.4021C50.7584 6.93035 50.3947 7.28238 49.8488 7.28238L38.3866 7.2828C37.8407 7.2828 37.477 6.93077 37.477 6.40252C37.477 5.87385 37.8407 5.52182 38.3866 5.52182V5.52182ZM49.8488 15.4701H38.3866C37.8407 15.4701 37.477 15.1181 37.477 14.5898C37.477 14.0616 37.8407 13.7095 38.3866 13.7095H49.8488C50.3947 13.7095 50.7584 14.0616 50.7584 14.5898C50.7584 15.1181 50.3036 15.4701 49.8488 15.4701ZM52.8507 11.3322H35.385C34.8392 11.3322 34.4754 10.9802 34.4754 10.4519C34.4754 9.92368 34.8392 9.57165 35.385 9.57165H52.8507C53.3965 9.57165 53.7602 9.92368 53.7602 10.4519C53.7602 10.9802 53.3054 11.3322 52.8507 11.3322Z" fill="#FF5331"/>
</svg>
