<svg width="57" height="57" viewBox="0 0 57 57" fill="none" xmlns="http://www.w3.org/2000/svg">
<path d="M14.813 28.0544L17.0408 28.5V28.7226V30.7278C17.0408 32.2873 18.3773 33.6238 19.9368 33.6238H22.1646C23.7241 33.6238 25.0606 32.2873 25.0606 30.7278V30.5052L28.4023 31.1734L28.4019 18.4753L15.0357 21.3714V28.0543L14.813 28.0544ZM19.2681 29.1683L22.8324 30.0596V30.2822L22.8328 30.7278C22.8328 31.1735 22.6102 31.3961 22.1646 31.3961H19.9368C19.4912 31.3961 19.2686 31.1735 19.2686 30.7278L19.2681 29.1683Z" fill="#FF5331"/>
<path d="M11.9168 20.0343C11.0255 20.0343 10.3573 20.703 10.3573 21.5938V27.8316C10.3573 28.7229 11.0256 29.6137 12.1394 29.6137C13.0307 29.6137 13.9215 28.9454 13.9215 27.8316V21.5938C13.6989 20.7029 13.0306 20.0343 11.9167 20.0343H11.9168Z" fill="#FF5331"/>
<path d="M31.0752 15.5795C30.1839 15.5795 29.2931 16.2478 29.2931 17.3616V32.51C29.2931 33.4012 29.9613 34.2921 31.0752 34.2921C31.9665 34.2921 32.8573 33.6238 32.8573 32.51V17.1382C32.8573 16.2473 31.966 15.5791 31.0752 15.5791V15.5795Z" fill="#FF5331"/>
<path d="M51.124 6H6.5695C3.45046 6 1 8.45036 1 11.5695V38.9702C1 41.8662 3.22778 44.094 5.90082 44.5397V49.8861C5.90082 50.5543 6.34646 51 7.01476 51H13.2525C13.6982 51 14.1438 50.7774 14.3665 50.3317L16.8168 44.7623H40.8767L43.3271 50.3317C43.5497 50.7774 43.9953 51 44.441 51H50.6788C51.347 51 51.7927 50.5544 51.7927 49.8861V44.5397C54.4661 44.317 56.6935 41.8662 56.6935 38.9702V11.5695C56.6935 8.45046 54.2432 6 51.124 6ZM40.8768 38.9704C40.8768 39.6386 40.4312 40.0843 39.7629 40.0843H6.57012C5.90187 40.0843 5.45618 39.6387 5.45618 38.9704V11.5697C5.45618 10.9015 5.90181 10.4558 6.57012 10.4558H39.7629C40.4311 10.4558 40.8768 10.9014 40.8768 11.5697V38.9704ZM47.7828 30.9505C45.3325 30.9505 43.3273 28.9457 43.3273 26.495C43.3273 24.0446 45.332 22.0394 47.7828 22.0394C50.2332 22.0394 52.2384 24.0442 52.2384 26.495C52.238 28.9457 50.2332 30.9505 47.7828 30.9505ZM47.7828 19.5898C45.3325 19.5898 43.3273 17.585 43.3273 15.1342C43.3273 12.6839 45.332 10.6787 47.7828 10.6787C50.2332 10.6787 52.2384 12.6834 52.2384 15.1342C52.238 17.5846 50.2332 19.5898 47.7828 19.5898Z" fill="#FF5331"/>
<path d="M48.8972 13.1283V13.7965C48.8972 14.4648 48.4516 14.9105 47.7833 14.9105C47.1151 14.9109 46.6694 14.4653 46.6694 13.797V13.1283C46.0011 13.5739 45.5554 14.2422 45.5554 15.1331C45.5554 16.4696 46.6694 17.3609 47.7832 17.3609C49.1197 17.3609 50.011 16.2469 50.011 15.1331C50.011 14.2422 49.5653 13.3513 48.897 13.1283L48.8972 13.1283Z" fill="#FF5331"/>
<path d="M47.7832 24.2677C46.4467 24.2677 45.5554 25.3816 45.5554 26.4955C45.5554 27.832 46.6694 28.7233 47.7832 28.7233C49.1197 28.7233 50.011 27.6093 50.011 26.4955C50.011 25.3815 48.897 24.2677 47.7832 24.2677Z" fill="#FF5331"/>
</svg>
