<svg width="57" height="57" viewBox="0 0 57 57" fill="none" xmlns="http://www.w3.org/2000/svg">
<path d="M34.0205 46.1425H37.2778V48.8566H34.0205V46.1425Z" fill="#FF5331"/>
<path d="M34.0205 41.6191H37.2778V44.3333H34.0205V41.6191Z" fill="#FF5331"/>
<path d="M39.0867 50.667H42.344V53.3811H39.0867V50.667Z" fill="#FF5331"/>
<path d="M39.0867 46.1425H42.344V48.8566H39.0867V46.1425Z" fill="#FF5331"/>
<path d="M34.0205 37.0958H37.2778V39.81H34.0205V37.0958Z" fill="#FF5331"/>
<path d="M28.9532 50.667H32.2106V53.3811H28.9532V50.667Z" fill="#FF5331"/>
<path d="M39.0867 41.6191H42.344V44.3333H39.0867V41.6191Z" fill="#FF5331"/>
<path d="M28.9532 46.1425H32.2106V48.8566H28.9532V46.1425Z" fill="#FF5331"/>
<path d="M34.0205 50.667H37.2778V53.3811H34.0205V50.667Z" fill="#FF5331"/>
<path d="M28.9532 41.6191H32.2106V44.3333H28.9532V41.6191Z" fill="#FF5331"/>
<path d="M28.9532 37.0958H32.2106V39.81H28.9532V37.0958Z" fill="#FF5331"/>
<path d="M49.22 41.6191H52.4773V44.3333H49.22V41.6191Z" fill="#FF5331"/>
<path d="M49.22 46.1425H52.4773V48.8566H49.22V46.1425Z" fill="#FF5331"/>
<path d="M49.22 50.667H52.4773V53.3811H49.22V50.667Z" fill="#FF5331"/>
<path d="M39.0867 37.0958H42.344V39.81H39.0867V37.0958Z" fill="#FF5331"/>
<path d="M49.22 37.0958H52.4773V39.81H49.22V37.0958Z" fill="#FF5331"/>
<path d="M44.1538 41.6191H47.4111V44.3333H44.1538V41.6191Z" fill="#FF5331"/>
<path d="M44.1538 50.667H47.4111V53.3811H44.1538V50.667Z" fill="#FF5331"/>
<path d="M44.1538 46.1425H47.4111V48.8566H44.1538V46.1425Z" fill="#FF5331"/>
<path d="M44.1538 37.0958H47.4111V39.81H44.1538V37.0958Z" fill="#FF5331"/>
<path d="M24.4299 57H57.0011V33.4756H24.4299V57ZM27.1445 36.1905C27.1445 35.6927 27.5515 35.2858 28.0492 35.2858H53.3821C53.8799 35.2858 54.2868 35.6927 54.2868 36.1905V54.2862C54.2868 54.7839 53.8799 55.1909 53.3821 55.1909H28.0492C27.5515 55.1909 27.1445 54.7839 27.1445 54.2862V36.1905Z" fill="#FF5331"/>
<path d="M24.4299 24.4287V31.6669H57.0011V24.4287H24.4299ZM50.6681 28.9527H30.7629C30.2651 28.9527 29.8582 28.5458 29.8582 28.048C29.8582 27.5503 30.2651 27.1433 30.7629 27.1433H50.6681C51.1659 27.1433 51.5729 27.5503 51.5729 28.048C51.5729 28.5458 51.1659 28.9527 50.6681 28.9527Z" fill="#FF5331"/>
<path d="M14.0608 25.171C14.0608 19.4436 18.7023 14.8022 24.4297 14.8022C29.2703 14.8022 33.3235 18.1316 34.4636 22.6193H48.8581V21.0994L43.8367 20.4663C43.2394 18.0054 42.1989 15.7252 40.7876 13.7075L44.0537 9.50925L39.3398 4.79531L34.9608 8.2063C32.9885 6.97585 30.8079 6.07117 28.4553 5.59164L27.7588 0H21.0905L20.3936 5.59164C18.0502 6.07108 15.8609 6.97575 13.8882 8.2063L9.50957 4.79531L4.79563 9.50925L8.0617 13.7075C6.65009 15.7252 5.60998 18.0054 5.01262 20.4663L0 21.0994V27.7585L4.71394 28.3467C5.14839 31.0608 6.12556 33.5942 7.53685 35.8202L4.7952 39.3487L9.50914 44.0535L12.8569 41.4476C15.1279 43.0671 17.7424 44.2251 20.5837 44.777L21.0902 48.8574H22.6193L22.6197 35.3587C17.7613 34.5081 14.0607 30.2736 14.0607 25.171L14.0608 25.171Z" fill="#FF5331"/>
</svg>
