<svg width="57" height="57" viewBox="0 0 57 57" fill="none" xmlns="http://www.w3.org/2000/svg">
<path d="M10.1841 37.1282C8.90779 37.1282 7.6835 37.6352 6.78073 38.5377C5.87832 39.4405 5.37122 40.6649 5.37122 41.9411C5.37122 43.2173 5.87829 44.4416 6.78073 45.3444C7.68353 46.2468 8.90789 46.7539 10.1841 46.7539C11.4603 46.7539 12.6847 46.2469 13.5875 45.3444C14.4899 44.4416 14.997 43.2173 14.997 41.9411C14.997 40.6649 14.4899 39.4405 13.5875 38.5377C12.6847 37.6353 11.4603 37.1282 10.1841 37.1282ZM10.1841 45.0038C9.37192 45.0038 8.59297 44.6811 8.01832 44.1068C7.44406 43.5322 7.12137 42.7532 7.12137 41.9411C7.12137 41.1289 7.44406 40.3499 8.01832 39.7753C8.59298 39.201 9.37193 38.8784 10.1841 38.8784C10.9963 38.8784 11.7752 39.201 12.3499 39.7753C12.9241 40.35 13.2468 41.1289 13.2468 41.9411C13.2468 42.7532 12.9241 43.5322 12.3499 44.1068C11.7752 44.6811 10.9963 45.0038 10.1841 45.0038Z" fill="#FF5331"/>
<path d="M10.6211 41.2626H9.74604C9.2628 41.2626 8.87097 41.6544 8.87097 42.1376C8.87097 42.6209 9.2628 43.0127 9.74604 43.0127H10.6211C11.1043 43.0127 11.4962 42.6209 11.4962 42.1376C11.4962 41.6544 11.1043 41.2626 10.6211 41.2626Z" fill="#FF5331"/>
<path d="M47.811 37.1282C46.5347 37.1282 45.3104 37.6352 44.4077 38.5377C43.5053 39.4405 42.9982 40.6649 42.9982 41.9411C42.9982 43.2173 43.5052 44.4416 44.4077 45.3444C45.3105 46.2468 46.5348 46.7539 47.811 46.7539C49.0872 46.7539 50.3116 46.2469 51.2144 45.3444C52.1168 44.4416 52.6239 43.2173 52.6239 41.9411C52.6239 40.6649 52.1169 39.4405 51.2144 38.5377C50.3116 37.6353 49.0872 37.1282 47.811 37.1282ZM47.811 45.0038C46.9989 45.0038 46.2199 44.6811 45.6453 44.1068C45.071 43.5322 44.7483 42.7532 44.7483 41.9411C44.7483 41.1289 45.071 40.3499 45.6453 39.7753C46.2199 39.201 46.9989 38.8784 47.811 38.8784C48.6232 38.8784 49.4022 39.201 49.9768 39.7753C50.5511 40.35 50.8738 41.1289 50.8738 41.9411C50.8738 42.7532 50.5511 43.5322 49.9768 44.1068C49.4022 44.6811 48.6232 45.0038 47.811 45.0038Z" fill="#FF5331"/>
<path d="M48.249 41.0654H47.374C46.8907 41.0654 46.4989 41.4573 46.4989 41.9405C46.4989 42.4237 46.8907 42.8156 47.374 42.8156H48.249C48.7323 42.8156 49.1241 42.4237 49.1241 41.9405C49.1241 41.4573 48.7323 41.0654 48.249 41.0654Z" fill="#FF5331"/>
<path d="M31.1857 37.1282C29.9094 37.1282 28.6851 37.6352 27.7823 38.5377C26.8799 39.4405 26.3728 40.6649 26.3728 41.9411C26.3728 43.2173 26.8799 44.4416 27.7823 45.3444C28.6851 46.2468 29.9095 46.7539 31.1857 46.7539C32.4619 46.7539 33.6863 46.2469 34.589 45.3444C35.4915 44.4416 35.9986 43.2173 35.9986 41.9411C35.9986 40.6649 35.4915 39.4405 34.589 38.5377C33.6862 37.6353 32.4619 37.1282 31.1857 37.1282ZM31.1857 45.0038C30.3735 45.0038 29.5946 44.6811 29.0199 44.1068C28.4456 43.5322 28.123 42.7532 28.123 41.9411C28.123 41.1289 28.4456 40.3499 29.0199 39.7753C29.5946 39.201 30.3735 38.8784 31.1857 38.8784C31.9978 38.8784 32.7768 39.201 33.3515 39.7753C33.9257 40.35 34.2484 41.1289 34.2484 41.9411C34.2484 42.7532 33.9257 43.5322 33.3515 44.1068C32.7768 44.6811 31.9978 45.0038 31.1857 45.0038Z" fill="#FF5331"/>
<path d="M31.6228 41.0654H30.7477C30.2645 41.0654 29.8727 41.4573 29.8727 41.9405C29.8727 42.4237 30.2645 42.8156 30.7477 42.8156H31.6228C32.1061 42.8156 32.4979 42.4237 32.4979 41.9405C32.4979 41.4573 32.1061 41.0654 31.6228 41.0654Z" fill="#FF5331"/>
<path d="M55.4246 10H19.1928C18.7603 10.0446 18.3599 10.2485 18.0697 10.5719C17.7794 10.8954 17.6196 11.3154 17.622 11.7501V18.7507H8.26304C7.7798 18.7507 7.38797 19.1425 7.38797 19.6258C7.38797 20.109 7.7798 20.5008 8.26304 20.5008H8.87129L6.79302 25.3137H6.75357C4.89832 25.2395 3.44591 25.7512 2.43523 26.8845C0.728893 28.7788 0.995614 31.6798 1.04372 32.1744V41.94C1.04372 42.1721 1.13591 42.3947 1.29999 42.5588C1.46406 42.7229 1.68674 42.8151 1.91879 42.8151H2.79386C3.27709 42.8151 3.66892 42.4232 3.66892 41.94C3.66892 41.4568 3.27709 41.0649 2.79386 41.0649V32.7518H17.622V40.6274H17.5697C17.086 40.6274 16.6946 41.0192 16.6946 41.5025C16.6946 41.9857 17.086 42.3775 17.5697 42.3775H24.6444C24.6444 42.233 24.6226 42.0888 24.6226 41.94C24.6226 39.5953 25.8735 37.4288 27.904 36.2564C29.9347 35.084 32.4364 35.084 34.467 36.2564C36.4977 37.4288 37.7485 39.5953 37.7485 41.94C37.7485 42.0888 37.7485 42.233 37.7266 42.3775H41.2707C41.2707 42.233 41.2488 42.0888 41.2488 41.94C41.2488 39.5953 42.4997 37.4288 44.5303 36.2564C46.5609 35.084 49.0626 35.084 51.0933 36.2564C53.1239 37.4288 54.3747 39.5953 54.3747 41.94C54.3747 42.0888 54.3747 42.233 54.3529 42.3775H56.1249C56.3569 42.3775 56.5796 42.2853 56.7437 42.1213C56.9078 41.9572 57 41.7345 57 41.5025V11.7501C57.0023 11.3149 56.8422 10.8942 56.5507 10.5707C56.2593 10.2469 55.8581 10.0434 55.4248 10L55.4246 10ZM17.6216 27.5014V31.0017H2.74546C2.77594 30.1266 2.96423 28.9058 3.72992 28.0569C4.38192 27.3483 5.37065 27.0202 6.71376 27.0639H17.6216L17.6216 27.5014ZM17.6216 25.3137H8.69593L10.7609 20.5008H17.6216V25.3137ZM55.2496 33.6269H19.3718V31.8767H23.3096V11.7502H25.0597V31.8767H27.6849V11.7502H29.4351V31.8767H32.0603V11.7502H33.8104V31.8767H36.4356V11.7502H38.1858V31.8767H40.811V11.7502H42.5611V31.8767H45.1863V11.7502H46.9364V31.8767H49.5616V11.7502H51.3118V31.8767H55.2496V33.6269Z" fill="#FF5331"/>
</svg>
