<svg width="57" height="57" viewBox="0 0 57 57" fill="none" xmlns="http://www.w3.org/2000/svg">
<path d="M21.2598 17.52V13.8527H39.4939V24.0725H23.1258C23.1717 24.4616 23.2119 24.8623 23.2457 25.2745H27.3711V27.412H25.3009V28.7476H35.453V27.412H33.3828V25.2745H40.6966V12.6504H20.0574V15.851C20.3604 16.1731 20.644 16.5313 20.9021 16.9231C21.0257 17.1126 21.1439 17.3135 21.2591 17.5194L21.2598 17.52Z" fill="#FF5331"/>
<path d="M56.9909 31.393V29.5896L23.3864 29.5893C23.3803 30.1722 23.3653 30.7742 23.3422 31.3926L56.9909 31.393Z" fill="#FF5331"/>
<path d="M55.4755 32.0273H40.9314V53H55.4755V32.0273ZM54.39 45.9079H42.0162V39.9467H54.39V45.9079ZM54.39 39.0286H42.0162V33.0674H54.39V39.0286Z" fill="#FF5331"/>
<path d="M20.4721 35.5424C20.4196 35.5424 20.3653 35.5411 20.3107 35.5381C19.7509 35.5053 19.2279 35.3131 18.791 34.9853V37.9709H40.1589V32.0264H23.3159C23.3025 32.315 23.2881 32.605 23.271 32.8997C23.185 34.3816 21.9555 35.5424 20.4716 35.5424L20.4721 35.5424Z" fill="#FF5331"/>
<path d="M44.54 25.9536L44.5393 28.6747H54.9588V25.9536H54.1579V27.8737H45.3413V25.9536H44.54Z" fill="#FF5331"/>
<path d="M46.2183 26.2535H53.2817V26.955H46.2183V26.2535Z" fill="#FF5331"/>
<path d="M46.2183 24.834H53.2817V25.5355H46.2183V24.834Z" fill="#FF5331"/>
<path d="M46.2183 23.4146H53.2817V24.1161H46.2183V23.4146Z" fill="#FF5331"/>
<path d="M46.2183 21.996H53.2817V22.6975H46.2183V21.996Z" fill="#FF5331"/>
<path d="M46.1993 34.069H50.2068V35.0708H46.1993V34.069Z" fill="#FF5331"/>
<path d="M46.1993 40.9476H50.2068V41.9495H46.1993V40.9476Z" fill="#FF5331"/>
<path d="M12.9027 13.9569C15.0439 13.6066 16.6778 11.749 16.6778 9.50843C16.6778 7.01867 14.6595 5 12.1691 5C9.67897 5 7.66064 7.01867 7.66064 9.50843C7.66064 11.7491 9.29488 13.6064 11.4361 13.9566C11.6745 13.9961 11.9196 14.0172 12.1691 14.0172C12.4192 14.0172 12.6636 13.9961 12.9027 13.9569L12.9027 13.9569Z" fill="#FF5331"/>
<path d="M6.74994 39.2179V50.0497C6.74994 51.4185 7.85952 52.5271 9.22727 52.5271C10.5954 52.5271 11.7049 51.4184 11.7049 50.0497V34.8079L12.6338 33.9812V50.0493C12.6338 51.4181 13.7433 52.5267 15.1111 52.5267C16.4792 52.5267 17.5888 51.418 17.5888 50.0493V26.6175L17.5884 20.0011C17.7069 20.2445 17.8268 20.5237 17.945 20.8495C18.5095 22.4152 18.9846 24.9839 18.9829 28.9928C18.9829 30.0977 18.9478 31.3114 18.8701 32.6446C18.8185 33.5285 19.4932 34.2873 20.3771 34.3382C20.4089 34.3402 20.4404 34.3409 20.4719 34.3409C21.315 34.3409 22.0211 33.6829 22.0706 32.8312C22.1513 31.4417 22.1888 30.1666 22.1888 28.9931C22.1811 22.9452 21.2149 19.5979 19.8977 17.5853C19.2394 16.5862 18.4697 15.9454 17.7575 15.5905C17.0751 15.246 16.4751 15.1679 16.1135 15.1626C16.0887 15.1612 16.0646 15.1589 16.0395 15.1589L8.29838 15.1586C8.2736 15.1586 8.24916 15.1612 8.22472 15.1623C7.87884 15.1666 7.317 15.2379 6.67045 15.5446C6.31621 15.71 5.94924 15.9467 5.58693 16.2611C4.90657 16.8508 4.24224 17.718 3.70995 18.9294C2.97133 20.5938 2.42225 22.9114 2.22605 26.2483C2.20295 26.6444 2.18353 27.0519 2.17047 27.4774H2.17014C2.15607 27.9619 2.14837 28.4662 2.14871 28.9908C2.14871 30.1637 2.18587 31.4407 2.26757 32.8316C2.31712 33.6827 3.02393 34.3404 3.86632 34.3404C3.89813 34.3404 3.9296 34.339 3.96175 34.337C4.84564 34.2855 5.52004 33.5264 5.4681 32.6431C5.38942 31.3102 5.35426 30.0958 5.3546 28.9906C5.35426 28.5004 5.36163 28.0319 5.37469 27.584C5.37502 27.5803 5.37536 27.5773 5.37536 27.5736C5.38708 27.1648 5.40482 26.775 5.42692 26.4003C5.45806 25.875 5.49857 25.3828 5.54745 24.9221C5.80292 22.5127 6.28005 20.9568 6.74977 19.9932V29.4175L5.77245 30.2877C5.78183 30.6848 5.79455 31.0886 5.81196 31.5017L6.06677 31.2751L6.99086 32.313L5.95294 33.2364L5.83575 33.1048C5.77012 33.4594 5.61142 33.7919 5.36532 34.0681C5.02882 34.4464 4.57112 34.6778 4.07025 34.7277L4.16199 34.8308L3.12407 35.7542L2.20067 34.7163L2.64364 34.3222C2.39554 34.1303 2.19297 33.8819 2.05669 33.5946L1 34.5361L5.5476 39.6455L5.86669 40.0037L6.74994 39.2179ZM8.65513 36.2725L7.73172 35.2346L8.7693 34.3112L9.69339 35.3488L8.65513 36.2725ZM11.705 32.7445V31.961H12.6338V33.7878L11.705 32.7445ZM11.4077 16.799H12.9309L13.3116 18.3016L13.2536 18.393C12.9399 18.6549 12.5555 18.7858 12.1692 18.7861C11.7828 18.7858 11.3991 18.6549 11.0856 18.3937L11.027 18.3016L11.4077 16.799ZM11.3622 19.2395C11.622 19.337 11.8955 19.3879 12.1688 19.3875H12.1691H12.1704C12.4437 19.3875 12.7165 19.3366 12.976 19.2392L14.0729 27.3188L12.1694 29.7236L10.266 27.3188L11.3622 19.2395ZM6.56916 30.829L7.90846 29.6371L11.5343 33.7105L10.1953 34.9021L6.56916 30.829ZM7.41794 32.7938L8.34203 33.8317L7.30411 34.7551L6.3807 33.7172L7.41794 32.7938ZM6.00399 34.0528L6.92739 35.0903L5.88947 36.0144L4.96607 34.9765L6.00399 34.0528ZM3.55177 36.2355L4.58969 35.3121L5.5131 36.3497L4.47518 37.2738L3.55177 36.2355ZM4.89707 37.7583L7.35468 35.5706L8.27877 36.6082L5.82081 38.7959L4.89707 37.7583Z" fill="#FF5331"/>
</svg>
