<svg width="57" height="57" viewBox="0 0 57 57" fill="none" xmlns="http://www.w3.org/2000/svg">
<path d="M5.66663 43.0668H11.2666V54.2668H5.66663V43.0668Z" fill="#FF5331"/>
<path d="M15.9333 35.6H21.5333V54.2666H15.9333V35.6Z" fill="#FF5331"/>
<path d="M26.2 30H31.8V54.2667H26.2V30Z" fill="#FF5331"/>
<path d="M36.4667 30H42.0667V54.2667H36.4667V30Z" fill="#FF5331"/>
<path d="M46.7334 15.0667H52.3334V54.2666H46.7334V15.0667Z" fill="#FF5331"/>
<path d="M16.3195 26.2666H29.3861L47.6667 7.98604V11.3331H49.5333V4.7998H43V6.66647H46.3471L28.6137 24.3998H15.5471L1.27295 38.6729L2.59295 39.9929L16.3195 26.2666Z" fill="#FF5331"/>
<path d="M23.4 5.73328C21.6671 5.73328 20.0055 6.42161 18.7804 7.64698C17.555 8.87194 16.8667 10.5336 16.8667 12.2666C16.8667 13.9996 17.555 15.6612 18.7804 16.8862C20.0054 18.1116 21.667 18.7999 23.4 18.7999C25.133 18.7999 26.7946 18.1116 28.0197 16.8862C29.245 15.6613 29.9334 13.9996 29.9334 12.2666C29.9313 10.5346 29.2425 8.87365 28.0175 7.64912C26.793 6.42416 25.1321 5.73541 23.4 5.73328V5.73328ZM19.6667 13.1999H17.8V11.3333H19.6667V13.1999ZM23.4 11.3333C24.125 11.3516 24.8134 11.6566 25.3142 12.1816C25.8146 12.7062 26.0871 13.4083 26.0713 14.1333C26.0767 14.6929 25.9138 15.2412 25.6038 15.707C25.2942 16.1729 24.8513 16.5354 24.3334 16.7466V17.8666H22.4667V16.7466C21.9488 16.5354 21.5059 16.1729 21.1963 15.707C20.8863 15.2412 20.7234 14.6929 20.7288 14.1333H22.5955C22.6421 14.4483 22.8684 14.707 23.1742 14.7954C23.4796 14.8841 23.8092 14.7862 24.0171 14.5454C24.225 14.3041 24.273 13.9637 24.1404 13.6745C24.0075 13.3854 23.7184 13.1999 23.4 13.1999C22.675 13.1816 21.9867 12.8766 21.4859 12.3516C20.9855 11.827 20.713 11.1249 20.7288 10.3999C20.7234 9.84035 20.8863 9.29199 21.1963 8.82617C21.5059 8.36034 21.9488 7.99784 22.4667 7.78659V6.66659H24.3334V7.78659C24.8513 7.99784 25.2942 8.36034 25.6038 8.82617C25.9138 9.29201 26.0767 9.84034 26.0713 10.3999H24.2046C24.1579 10.0849 23.9317 9.82618 23.6259 9.73785C23.3204 9.6491 22.9909 9.74702 22.7829 9.98786C22.575 10.2291 22.5271 10.5695 22.6596 10.8587C22.7925 11.1479 23.0817 11.3333 23.4 11.3333V11.3333ZM27.1334 13.1999V11.3333H29V13.1999H27.1334Z" fill="#FF5331"/>
<path d="M4.73328 2H6.59994V3.86667H4.73328V2Z" fill="#FF5331"/>
<path d="M8.46667 2H15.9333V3.86667H8.46667V2Z" fill="#FF5331"/>
<path d="M4.73328 5.73328H12.1999V7.59994H4.73328V5.73328Z" fill="#FF5331"/>
<path d="M1 53.3334H57V55.2H1V53.3334Z" fill="#FF5331"/>
</svg>
