<svg width="57" height="57" viewBox="0 0 57 57" fill="none" xmlns="http://www.w3.org/2000/svg">
<path d="M56.7323 40.7268H55.0341C54.6776 36.524 51.1533 33.224 46.8585 33.224C42.5634 33.224 39.039 36.524 38.683 40.7268H18.8798C18.5233 36.524 14.9995 33.224 10.7042 33.224C6.40909 33.224 2.88511 36.524 2.52865 40.7268H0.251365C0.124139 40.7268 0 40.6195 0 40.4839V11.9005C0 10.8504 0.851701 9.99955 1.90217 10L40.8401 10.0093C41.8932 10.0097 42.7422 10.861 42.7422 11.9105V18.3867H49.4212C51.4215 18.3867 52.9756 20.061 52.9756 21.9738V28.7835C55.4376 28.7835 57 30.8439 57 32.7319V40.4834C57 40.5828 56.9143 40.7264 56.7323 40.7264L56.7323 40.7268ZM10.6856 47.1875C7.50188 47.1875 4.92106 44.6068 4.92106 41.4235C4.92106 38.2398 7.50177 35.659 10.6856 35.659C13.8688 35.659 16.4501 38.2397 16.4501 41.4235C16.4501 44.6067 13.8689 47.1875 10.6856 47.1875ZM46.8596 47.1942C43.6759 47.1942 41.095 44.6135 41.095 41.4296C41.095 38.2458 43.6757 35.6651 46.8596 35.6651C50.0433 35.6651 52.6241 38.2458 52.6241 41.4296C52.6241 44.6135 50.0434 47.1942 46.8596 47.1942ZM42.7441 22.129V28.7889H49.1059V23.4573C49.1059 22.6573 48.4251 22.129 47.8044 22.129H42.7441ZM46.8596 43.1535C47.812 43.1535 48.5837 42.3817 48.5837 41.4293C48.5837 40.4769 47.812 39.7051 46.8596 39.7051C45.9071 39.7051 45.1354 40.4769 45.1354 41.4293C45.1354 42.3817 45.9071 43.1535 46.8596 43.1535ZM10.6856 43.1473C11.6376 43.1473 12.4097 42.3751 12.4097 41.4231C12.4097 40.4707 11.6376 39.6985 10.6856 39.6985C9.73315 39.6985 8.96142 40.4707 8.96142 41.4231C8.96142 42.3751 9.73316 43.1473 10.6856 43.1473Z" fill="#FF5331"/>
</svg>
