<svg width="57" height="57" viewBox="0 0 57 57" fill="none" xmlns="http://www.w3.org/2000/svg">
<path d="M28.4999 46.9137C32.7408 46.9137 36.6601 45.4642 39.7737 42.9949L39.1296 42.8339C38.4855 42.6728 37.9485 42.2433 37.6264 41.7063C35.8548 42.9409 33.8686 43.8 31.6674 44.2831C31.882 44.0685 32.097 43.8535 32.097 43.7461C32.097 43.6925 32.258 43.6386 32.3655 43.585C32.634 43.424 32.9025 43.263 33.0096 43.102C33.1706 42.8335 33.7611 42.2429 33.9757 42.1358C34.2977 41.9748 36.1768 40.2567 36.2839 39.9886C36.606 39.2906 36.9819 38.4855 37.2501 38.3245C37.6796 38.0025 37.3036 37.3584 37.1426 37.1435L37.089 37.0899C36.928 36.8214 35.8544 36.7139 35.6933 36.7139C35.4788 36.7139 34.5658 36.2309 34.5123 36.0698C34.5123 35.7478 33.5997 34.8888 33.3847 34.8888C33.2772 34.8888 32.7406 34.7813 32.4186 34.4057C32.0426 33.9762 30.808 33.7077 30.4324 33.7077C30.1103 33.7077 29.5733 33.6542 29.2513 33.4931C29.0367 33.2782 28.4997 33.4927 27.9628 33.7077C27.8553 33.7612 27.7482 33.8152 27.6943 33.8152C27.5333 33.8687 26.4596 33.6541 26.1911 33.5467C26.1376 33.4931 26.0836 33.0636 26.0836 32.8487C26.0836 32.5802 26.0301 32.4191 25.9762 32.3117C25.9226 32.2042 25.6541 32.0971 25.171 31.9896C25.0636 31.9361 24.9025 31.9361 24.7951 31.8821C24.7951 31.8286 24.8486 31.6676 24.9025 31.6136C25.0636 31.2377 25.171 30.9695 25.0636 30.7546C25.01 30.7011 24.9561 30.6471 24.9025 30.6471C24.688 30.5936 24.312 30.8082 23.99 31.0767C23.8289 31.1841 23.614 31.3452 23.5604 31.3452C23.3459 31.3452 22.9163 31.1841 22.4329 30.8621C22.1644 30.7011 22.4864 29.7345 22.6475 29.3054C22.701 29.0908 22.7549 28.9294 22.8085 28.8223C22.8085 28.7149 23.3455 28.5538 24.097 28.5538C24.3116 28.5538 24.5801 28.5003 24.9021 28.4464C25.1706 28.3928 25.3852 28.3389 25.6001 28.3389C25.7076 28.3389 25.9222 28.6074 26.0296 28.822C26.2442 29.0905 26.4056 29.305 26.6202 29.305C26.9422 29.2515 26.8887 28.8755 26.8887 28.5535V28.3389C26.8887 28.1779 27.3182 27.4799 27.6403 27.3188C28.0162 27.1042 28.5528 26.3527 28.3918 25.9767C28.3918 25.8157 29.0898 25.3862 29.3044 25.2251C29.4119 25.1716 29.519 25.1177 29.5729 25.0641C29.6265 25.0106 29.7339 24.9566 29.7875 24.9031C30.0021 24.7956 30.3245 24.6346 30.3245 24.2051C30.3245 23.9905 31.076 23.883 31.5055 23.7756C31.613 23.7756 31.7201 23.722 31.774 23.722C32.0425 23.6685 32.2036 23.6145 32.311 23.4535C32.4185 23.2925 32.311 23.1315 32.2575 22.9165C32.2039 22.863 32.2039 22.809 32.15 22.7555C31.989 22.3795 32.0965 22.1649 32.4185 21.8964C32.5795 21.789 32.848 21.789 33.1165 21.7354C33.4386 21.6819 33.7606 21.6819 34.0826 21.5208C34.2972 21.4134 34.4047 21.3063 34.4586 21.1988C34.5122 20.9842 34.4051 20.8228 34.2976 20.7157C34.244 20.6622 34.1901 20.6082 34.1901 20.5547C34.0291 20.2327 33.7606 20.0177 33.546 19.8567C33.4385 19.7492 33.3314 19.3197 33.2775 19.0516C33.224 18.8905 33.224 18.7295 33.17 18.622C33.1165 18.5146 33.0626 18.461 32.9555 18.4075C32.687 18.3 32.3114 18.461 32.0964 18.5685C32.0964 18.515 32.0429 18.4075 32.0429 18.3539C31.9893 18.1929 31.9893 18.0319 31.8819 17.9244C31.8283 17.8709 31.6673 17.7634 31.5598 17.6024C31.3452 17.3878 31.0228 17.1193 30.8618 16.9583C30.7543 16.8508 30.6472 16.8508 30.5398 16.8508C30.2713 16.9043 30.0567 17.2268 29.8417 17.5488C29.7882 17.6023 29.7882 17.6023 29.7882 17.6563C29.4661 18.1393 29.4122 18.5689 29.6272 18.7299C29.6272 18.7299 29.6807 18.8373 29.5736 18.9984C29.4661 19.2669 29.3051 19.4279 29.1976 19.4279C28.8756 19.3743 28.8217 19.8039 28.7146 20.233C28.7146 20.394 28.661 20.609 28.6071 20.7161C28.5535 20.6625 28.4461 20.394 28.4461 19.696V19.5885C28.4461 19.481 28.3925 19.4275 28.3386 19.3739C28.2311 19.2664 28.124 19.3204 28.0165 19.3204C27.8555 19.3204 27.802 19.3204 27.748 19.2668C27.587 18.9983 26.7279 18.6763 26.4059 18.5153V17.4952C26.5134 17.3341 27.8555 16.4216 28.124 16.3676C28.5536 16.2066 29.6272 15.5086 29.7882 15.3475C30.0027 15.24 30.0027 15.079 30.0027 14.9715C29.9492 14.6495 29.3586 14.381 29.0901 14.2735C28.7681 14.0054 28.446 14.0054 28.07 14.0054C27.8555 14.0054 27.6405 14.0054 27.4259 13.9518C26.5134 13.7908 25.7618 13.7908 25.1177 13.8444C24.6346 13.8979 23.8831 13.8444 23.3996 13.7369C23.185 13.6833 22.9701 13.6294 22.8091 13.6294H22.487C24.3662 12.8778 26.4059 12.4484 28.5534 12.4484C30.7006 12.4484 32.7943 12.8779 34.6735 13.683C34.727 13.8976 34.7809 14.1125 34.888 14.3271C35.1026 14.8102 35.425 15.6156 35.425 16.2062C35.425 16.7968 35.4786 17.4409 35.425 17.6019C35.3715 17.763 36.6061 19.2126 36.8746 19.2126C37.1431 19.2661 37.3577 19.0515 37.5187 18.783C37.6797 18.5145 37.9482 18.1925 38.4313 17.8169C38.7534 17.6023 39.5589 17.4949 40.1494 17.4409C40.6864 18.0315 41.223 18.6756 41.7061 19.3201C41.5986 19.4276 41.4376 19.5347 41.384 19.5886C41.1694 19.8032 40.525 20.4476 40.5789 20.9843C40.6324 21.4674 41.1694 22.1119 41.8674 22.4339C42.5115 22.7559 42.619 23.454 42.619 23.5614C42.619 23.6689 43.5316 24.2594 43.5316 24.2594C43.5316 24.2594 43.1556 25.011 42.941 25.011C42.78 25.011 42.619 25.7626 42.619 26.0846C42.619 26.4066 42.9949 26.9436 43.4241 27.2122C43.8536 27.5342 44.4977 26.6752 44.4977 26.6752L44.6052 26.6216C44.6587 27.1047 44.7126 27.5877 44.7126 28.1248C44.1756 28.2323 43.478 28.5008 43.263 28.6079C42.9945 28.8224 42.404 30.7015 42.1355 30.9161C41.867 31.0771 41.3304 33.6539 41.2764 33.9223C41.2764 34.0834 41.706 35.0499 42.189 35.7475C42.3501 36.016 42.4036 36.338 42.3501 36.6601L44.9268 36.9286C46.2689 34.4054 47.0205 31.5066 47.0205 28.4999C47.0205 18.3536 38.7533 10.0862 28.6067 10.0862C18.4602 10.0862 10.193 18.3534 10.193 28.4999C10.1926 38.6463 18.3527 46.9137 28.4994 46.9137L28.4999 46.9137ZM16.7431 17.6021C16.8505 17.6556 17.0116 17.7631 17.2261 17.9241C17.3336 18.0316 17.3336 18.7831 17.3336 19.5882V19.6953C17.3336 19.6953 18.0316 21.3594 17.3872 22.6481C16.6891 24.0438 16.8502 26.2984 17.1726 26.7819C17.4946 27.2114 18.9978 29.1976 19.2127 29.4125C19.3737 29.5735 19.9107 31.0231 19.9642 31.1841C20.0178 31.3451 20.9843 32.5798 22.0579 32.5798C22.6485 32.5798 23.4 32.9018 23.8295 33.1168C24.0441 33.2243 24.2055 33.3314 24.3665 33.3314C24.4201 33.3314 24.474 33.4388 24.5275 33.5459C24.6886 33.8144 24.9035 34.19 25.4937 34.5121C25.6547 34.6195 25.8157 34.6731 25.9767 34.7806C26.5137 35.1026 27.2653 35.5321 27.3189 35.6396C27.3189 35.6931 27.2114 35.8006 27.1043 35.9081C26.7822 36.2841 26.1917 36.9282 26.3527 37.7872C26.5673 38.9683 28.2319 40.4179 28.8224 40.7935C29.1984 41.008 28.9834 43.4777 28.8224 43.9072C28.7688 44.0682 28.7149 44.3367 28.7149 44.6052H28.5539C19.6962 44.6052 12.5023 37.4116 12.5023 28.5535C12.4483 24.3127 14.0589 20.4473 16.7431 17.6019L16.7431 17.6021Z" fill="#FF5331"/>
<path d="M51.0475 22.3799C51.155 22.863 51.638 23.185 52.0676 23.185C52.1751 23.185 52.2822 23.185 52.3361 23.1315C52.9266 22.9705 53.2487 22.3799 53.0877 21.7894C52.8192 20.7158 52.4436 19.6422 52.0141 18.6221C51.7995 18.0851 51.155 17.817 50.6184 18.0315C50.0814 18.2461 49.8132 18.8906 50.0278 19.4272C50.4034 20.4473 50.779 21.4135 51.0475 22.38L51.0475 22.3799Z" fill="#FF5331"/>
<path d="M5.52311 20.1791C5.68413 20.2326 5.79161 20.2866 5.95263 20.2866C6.38216 20.2866 6.75775 20.0181 6.97273 19.6425C7.34871 18.7299 7.83177 17.7633 8.31484 16.9047C8.63689 16.3677 8.42232 15.7236 7.93887 15.4015C7.40187 15.0795 6.75781 15.294 6.43571 15.7775C5.89871 16.7436 5.36211 17.7637 4.98613 18.7837C4.66408 19.32 4.93258 19.9644 5.52313 20.179L5.52311 20.1791Z" fill="#FF5331"/>
<path d="M46.9673 14.22C47.1819 14.4885 47.5043 14.6495 47.8264 14.6495C48.041 14.6495 48.3095 14.596 48.4705 14.435C48.9536 14.059 49.0075 13.4149 48.6851 12.9318C47.987 12.0728 47.2894 11.2137 46.4839 10.4086C46.0544 9.97911 45.3563 9.97911 44.9272 10.4086C44.4977 10.8382 44.4977 11.5362 44.9272 11.9653C45.6788 12.6633 46.3232 13.4149 46.9673 14.22V14.22Z" fill="#FF5331"/>
<path d="M11.2135 12.341C11.482 12.341 11.7505 12.2335 11.9651 12.019C12.6631 11.3209 13.4682 10.6233 14.2733 9.97886C14.7564 9.60288 14.8103 8.95876 14.4879 8.47569C14.1119 7.99262 13.4678 7.93869 12.9847 8.26112C12.1257 8.95913 11.2666 9.65682 10.4615 10.4623C10.032 10.8918 10.032 11.5898 10.4615 12.0189C10.6229 12.2335 10.945 12.341 11.2135 12.341L11.2135 12.341Z" fill="#FF5331"/>
<path d="M28.5001 5.14719C29.5202 5.14719 30.4863 5.20073 31.5063 5.36176H31.6673C32.2043 5.36176 32.6874 4.98579 32.7409 4.39563C32.7409 3.80508 32.3653 3.26845 31.7748 3.21457C30.7012 3.05355 29.6276 3 28.5 3H28.4465C27.8559 3 27.4264 3.48307 27.4264 4.07359C27.4264 4.66414 27.9095 5.14719 28.5 5.14719H28.5001Z" fill="#FF5331"/>
<path d="M19.1052 7.0264C19.2662 7.0264 19.3737 6.97285 19.5347 6.91892C20.4473 6.54332 21.4135 6.22128 22.38 5.95279C22.9705 5.79177 23.2926 5.20123 23.1315 4.61068C22.9705 4.02013 22.38 3.6981 21.7894 3.85912C20.7158 4.12762 19.6422 4.50322 18.6221 4.93271C18.0851 5.14729 17.817 5.79175 18.0316 6.32841C18.2462 6.81186 18.6757 7.02642 19.1052 7.02642L19.1052 7.0264Z" fill="#FF5331"/>
<path d="M37.358 6.9189C38.2706 7.29487 39.2372 7.77793 40.0958 8.26101C40.2569 8.36848 40.4718 8.42203 40.6328 8.42203C41.0088 8.42203 41.3844 8.20746 41.599 7.88503C41.921 7.34804 41.7064 6.70398 41.223 6.38187C40.2569 5.84487 39.2368 5.30828 38.2168 4.93229C37.6798 4.71772 37.0357 4.98584 36.8211 5.52284C36.5529 6.06021 36.8214 6.70428 37.3581 6.91883L37.358 6.9189Z" fill="#FF5331"/>
<path d="M37.4652 50.0812C36.5526 50.4571 35.5861 50.7792 34.5664 51.0473C33.9759 51.2083 33.6538 51.7989 33.8149 52.3894C33.9223 52.8725 34.4054 53.1945 34.835 53.1945C34.9424 53.1945 35.0495 53.1945 35.1035 53.141C36.1771 52.8725 37.2507 52.4969 38.2708 52.0674C38.8078 51.8528 39.0759 51.2083 38.8613 50.6717C38.6464 50.0811 38.0023 49.8126 37.4653 50.0811L37.4652 50.0812Z" fill="#FF5331"/>
<path d="M28.4998 51.8528C27.4797 51.8528 26.4597 51.7993 25.4936 51.6382C24.9031 51.5847 24.3661 51.9603 24.259 52.5508C24.2054 53.1414 24.581 53.6784 25.1716 53.7855C26.2452 53.9465 27.3727 54 28.4463 54C29.0369 54 29.5199 53.517 29.5199 52.9265C29.5735 52.3359 29.0904 51.8529 28.4998 51.8529L28.4998 51.8528Z" fill="#FF5331"/>
<path d="M52.9264 27.3727C52.3359 27.3727 51.8528 27.9097 51.8528 28.5003C51.8528 29.5204 51.7993 30.5404 51.6382 31.5605C51.5847 32.151 51.9603 32.688 52.5508 32.7951H52.7119C53.2489 32.7951 53.732 32.4191 53.7855 31.829C53.9465 30.7554 54 29.6278 54 28.5006V28.3932C54 27.8022 53.5169 27.3727 52.9264 27.3727L52.9264 27.3727Z" fill="#FF5331"/>
<path d="M10.0326 42.7266C9.65666 42.2435 9.01253 42.1896 8.52946 42.512C8.04639 42.888 7.99247 43.5321 8.31489 44.0152C9.0129 44.8742 9.71059 45.7333 10.516 46.5384C10.7306 46.7529 10.9991 46.8604 11.2676 46.8604C11.5361 46.8604 11.8046 46.7529 12.0192 46.5384C12.4487 46.1088 12.4487 45.4108 12.0192 44.9817C11.3212 44.2837 10.6232 43.5321 10.0326 42.7267L10.0326 42.7266Z" fill="#FF5331"/>
<path d="M5.95249 34.5664C5.79146 33.9759 5.20093 33.6538 4.61038 33.8149C4.01983 33.9759 3.69779 34.5664 3.85881 35.157C4.12731 36.2306 4.50291 37.3042 4.93241 38.3243C5.14698 38.6999 5.52296 38.9684 5.95251 38.9684C6.11353 38.9684 6.22101 38.9148 6.38203 38.8609C6.91903 38.6463 7.18714 38.0019 6.97258 37.4652C6.54306 36.5526 6.22102 35.5326 5.95248 34.5664L5.95249 34.5664Z" fill="#FF5331"/>
<path d="M19.5885 50.0814C18.6759 49.7054 17.7093 49.2223 16.8507 48.7393C16.3137 48.4172 15.6696 48.6318 15.3475 49.1152C15.0254 49.6522 15.24 50.2963 15.7235 50.6184C16.6896 51.1554 17.7097 51.692 18.7297 52.068C18.8907 52.1215 18.9982 52.1755 19.1592 52.1755C19.5887 52.1755 19.9643 51.907 20.1793 51.5314C20.3939 50.9401 20.1254 50.2959 19.5884 50.0814L19.5885 50.0814Z" fill="#FF5331"/>
<path d="M5.14723 28.5001C5.14723 27.48 5.20078 26.46 5.36181 25.4939C5.41536 24.9033 5.03976 24.3663 4.44922 24.2592C3.80512 24.2053 3.26855 24.6348 3.21457 25.2253C3.05355 26.2989 3 27.4265 3 28.4466V28.5541C3 29.1446 3.48307 29.6277 4.07359 29.6277C4.66414 29.6277 5.14719 29.0907 5.14719 28.5001L5.14723 28.5001Z" fill="#FF5331"/>
<path d="M52.3358 35.8012C51.4232 35.8548 50.5106 36.2843 49.9201 36.9823L47.8264 39.4516L41.6529 38.7535C41.2769 38.7 40.9548 38.861 40.6867 39.1295L39.5592 40.418C39.4517 40.5255 39.5056 40.6865 39.6666 40.7401L45.5181 42.2433L42.9946 45.7865L40.6324 45.4105C40.3639 45.357 40.0954 45.4641 39.9344 45.679L39.6123 46.055C39.5588 46.1625 39.5588 46.2696 39.6659 46.3235L41.706 47.612C41.5449 47.988 41.6524 48.4172 41.9745 48.6856C42.2965 48.9541 42.726 49.0077 43.102 48.7931L44.7127 50.6183C44.7662 50.7258 44.9272 50.7258 45.0347 50.6183L45.3568 50.2423C45.5178 50.0277 45.5713 49.7592 45.5178 49.4907L44.7127 47.2896L47.8264 44.2294L50.2421 49.7589C50.2956 49.8664 50.4567 49.9199 50.5641 49.8124L51.6917 48.5239C51.9063 48.2554 52.0137 47.8798 51.9063 47.5578L50.2421 41.5452L52.3358 39.0755C52.9264 38.3775 53.2484 37.4114 53.1409 36.4988C53.0874 36.0696 52.7114 35.8011 52.3358 35.8011L52.3358 35.8012Z" fill="#FF5331"/>
</svg>
