<svg width="57" height="57" viewBox="0 0 57 57" fill="none" xmlns="http://www.w3.org/2000/svg">
<path d="M38.4081 14.2339V1H4V43.3484H17.9771L38.4081 14.2339ZM25.8359 7.2855H31.1296C31.6774 7.2855 32.1219 7.72998 32.1219 8.27785C32.1219 8.82572 31.6774 9.2702 31.1296 9.2702H25.8359C25.288 9.2702 24.8435 8.82572 24.8435 8.27785C24.8435 7.72998 25.288 7.2855 25.8359 7.2855ZM14.5872 13.9024H27.8211C28.369 13.9024 28.8134 14.3469 28.8134 14.8948C28.8134 15.4427 28.369 15.8871 27.8211 15.8871H14.5872C14.0393 15.8871 13.5949 15.4427 13.5949 14.8948C13.5949 14.3469 14.0393 13.9024 14.5872 13.9024ZM13.5949 21.5117C13.5949 20.9638 14.0393 20.5193 14.5872 20.5193H27.8211C28.369 20.5193 28.8134 20.9638 28.8134 21.5117C28.8134 22.0595 28.369 22.504 27.8211 22.504H14.5872C14.0393 22.5045 13.5949 22.0595 13.5949 21.5117Z" fill="#FF5331"/>
<path d="M32.5272 43.3483H38.408V34.9687L32.5272 43.3483Z" fill="#FF5331"/>
<path d="M47.1873 5.18024L19.1516 45.1312L16.031 56.4879L25.6494 49.6927L53.6863 9.74179L47.1873 5.18024ZM47.6715 7.94541L50.9204 10.2265L46.9298 15.9139L43.6804 13.6337L47.6715 7.94541Z" fill="#FF5331"/>
</svg>
