<svg width="57" height="57" viewBox="0 0 57 57" fill="none" xmlns="http://www.w3.org/2000/svg">
<path d="M30.4779 40.4865C30.4779 35.0357 33.8154 30.3078 38.4875 28.3054V14.0664L28.6982 5H2V52H28.6982L35.1504 50.6095C32.3135 48.162 30.4779 44.4913 30.4779 40.4864V40.4865ZM13.0128 8.11489H17.7408V12.8429H13.0128V8.11489ZM13.0128 15.9576H17.7408V20.6856H13.0128V15.9576ZM13.0128 23.8558H17.7408V28.5838H13.0128V23.8558ZM13.0128 31.6985H17.7408V36.4265H13.0128V31.6985ZM5.11459 8.11509H9.8426V12.8431H5.11459V8.11509ZM5.11459 15.9578H9.8426V20.6858H5.11459V15.9578ZM5.11459 23.856H9.8426V28.584H5.11459V23.856ZM5.11459 31.6987H9.8426V36.4267L5.11459 36.4263V31.6987ZM14.626 48.9413H9.11943V39.5416H14.626V48.9413ZM21.5787 48.9413H16.0721V39.5416H21.5787V48.9413ZM25.5834 36.4265H20.8554V31.6985H25.5834V36.4265ZM25.5834 28.5842H20.8554V23.8562H25.5834V28.5842ZM25.5834 20.686H20.8554V15.958H25.5834V20.686ZM25.5834 12.8433H20.8554V8.11529H25.5834V12.8433Z" fill="#FF5331"/>
<path d="M43.7713 29.3622C37.6527 29.3622 32.7026 34.3125 32.7026 40.4308C32.7026 46.5494 37.6529 51.4995 43.7713 51.4995C49.8898 51.4995 54.8399 46.4937 54.8399 40.4308C54.8399 34.3678 49.8896 29.3622 43.7713 29.3622ZM44.6613 46.6048V47.7171C44.6613 47.9953 44.439 48.1621 44.2163 48.1621H42.9926C42.7144 48.1621 42.5476 47.9398 42.5476 47.7171V46.4934C41.4907 46.2153 40.6566 45.6034 40.1561 45.2143C39.8779 44.9919 39.8779 44.6024 40.1006 44.3801L40.9348 43.5459C41.1571 43.3236 41.4353 43.3236 41.658 43.4905C42.1585 43.88 43.0485 44.436 43.7717 44.436C45.2735 44.436 45.2735 43.5459 45.2735 43.2123C45.2735 42.7118 45.1622 42.2668 43.4935 41.6549C41.1574 40.8207 39.9892 39.5412 39.9892 37.7615C39.9892 36.1487 40.9902 34.9249 42.548 34.48V33.2563C42.548 32.9781 42.7703 32.8113 42.993 32.8113H44.2167C44.4949 32.8113 44.6617 33.0336 44.6617 33.2563V34.3686C45.5517 34.5354 46.2745 34.9805 46.7196 35.2586C46.9978 35.481 47.0533 35.8705 46.8309 36.0928L45.9968 36.9828C45.83 37.2051 45.4963 37.2051 45.2736 37.0942C44.8841 36.8719 44.3281 36.5937 43.8275 36.5937C43.4939 36.5937 42.3257 36.705 42.3257 37.706C42.3257 37.9842 42.3257 38.707 44.328 39.4302C45.329 39.7638 47.6655 40.5984 47.6655 43.1568C47.6092 44.992 46.4969 46.2711 44.6614 46.6048L44.6613 46.6048Z" fill="#FF5331"/>
</svg>
