<svg width="57" height="57" viewBox="0 0 57 57" fill="none" xmlns="http://www.w3.org/2000/svg">
<path d="M43.9511 23.6963C44.0066 24.1702 43.6511 24.5966 43.1696 24.5966H13.3712C12.8896 24.5966 12.5342 24.1702 12.5897 23.6963C13.466 16.101 19.7745 10.1157 27.481 9.72884V7.5972C26.565 7.27336 25.9019 6.39705 25.9019 5.37071C25.9019 3.90991 27.2284 2.76532 28.7286 3.04128C29.6524 3.21477 30.4103 3.96502 30.5919 4.88878C30.8367 6.11241 30.1262 7.2259 29.0601 7.5971V9.72914C36.7743 10.1158 43.0829 16.1086 43.9515 23.6966L43.9511 23.6963Z" fill="#FF5331"/>
<path d="M50.3782 28.6627C50.3782 29.0968 50.0308 29.4523 49.5886 29.4523H44.4325C44.3616 29.4758 44.2902 29.4839 44.2116 29.4839H12.3366C12.2657 29.4839 12.1944 29.4758 12.1234 29.4523H6.95192C6.51782 29.4523 6.16235 29.0968 6.16235 28.6627C6.16235 28.2286 6.51782 27.8731 6.95192 27.8731H10.8365L10.5219 27.4066C10.1684 26.8823 10.5439 26.1756 11.1766 26.1756H45.3719C46.0045 26.1756 46.3801 26.8823 46.0265 27.4066L45.7119 27.8731H49.5884C50.0306 27.8731 50.378 28.2286 50.378 28.6627H50.3782Z" fill="#FF5331"/>
<path d="M3.78957 31.0236C3.35546 31.0236 3 31.379 3 31.8131V53.2105C3 53.6527 3.35546 54.0001 3.78957 54.0001H12.1984V31.0236H3.78957ZM9.17434 42.1565C9.17434 42.5906 8.82698 42.9461 8.38477 42.9461C7.95067 42.9461 7.5952 42.5906 7.5952 42.1565V37.561C7.5952 37.1269 7.95067 36.7714 8.38477 36.7714C8.82698 36.7714 9.17434 37.1269 9.17434 37.561V42.1565Z" fill="#FF5331"/>
<path d="M13.7776 31.0236H19.0837V50.9839H13.7776V31.0236Z" fill="#FF5331"/>
<path d="M51.8035 41.9433L44.65 45.7806C41.105 47.6835 37.1017 48.6863 33.067 48.6863H20.6628V33.3212H21.5314C23.2845 33.3212 25.0055 33.8976 26.3714 34.9477L26.5688 35.0819C27.7216 35.9424 29.0639 36.3927 30.4693 36.3927C33.8092 36.3927 36.6043 38.2166 37.2439 40.6802C39.6045 40.3093 41.8707 39.5668 44.0104 38.4696L47.4925 36.693C48.124 36.3692 48.8427 36.1957 49.6165 36.1957C51.2982 36.1957 52.7432 37.0092 53.3037 38.2722C53.9198 39.6373 53.3037 41.1536 51.8036 41.9432L51.8035 41.9433Z" fill="#FF5331"/>
</svg>
