<svg width="57" height="57" viewBox="0 0 57 57" fill="none" xmlns="http://www.w3.org/2000/svg">
<path d="M30.2646 27.1935C30.6541 26.7928 31.1466 26.4948 31.6735 26.3346L31.6731 2.14525C31.6731 1.50371 31.1693 1 30.5278 1H2.14565C1.50451 1 1.0004 1.50373 1.0004 2.14525L1 54.682C1 55.312 1.50413 55.8273 2.14525 55.8273H9.54421L9.54461 39.7239H21.6056L21.6052 55.8273H30.5276C30.8256 55.8273 31.0889 55.7242 31.2838 55.5409C30.9287 55.3691 30.6079 55.1518 30.3331 54.8654L27.1948 51.7271C26.0496 50.5819 25.8547 48.8294 26.7366 47.4664L27.1377 46.8021L26.3016 46.6072C24.7437 46.2177 23.6671 44.8547 23.6671 43.2628V38.8192C23.6671 37.2269 24.7436 35.864 26.2784 35.486L27.1029 35.2915L26.6335 34.5469C25.8202 33.2067 26.0036 31.4773 27.1029 30.3433L30.2646 27.1935ZM13.6908 32.4968H7.89529V26.6897H13.6908V32.4968ZM13.6908 22.6811H7.88374V16.8741H13.6908V22.6811ZM13.6908 12.8083H7.89529V7.01282H13.6908V12.8083ZM24.8007 32.4971H18.9936V26.69H24.8007V32.4971ZM24.8007 22.6814H18.9936V16.8744H24.8007V22.6814ZM24.8007 12.8086H18.9936V7.01313H24.8007V12.8086Z" fill="#FF5331"/>
<path d="M55.1186 37.6162L51.6141 36.7685C51.5454 36.6311 51.4878 36.4821 51.4191 36.3331L53.2863 33.2863C53.5727 32.8281 53.504 32.2553 53.1257 31.8774L49.9987 28.7396C49.632 28.3617 49.0368 28.293 48.5898 28.5678L45.5203 30.4693C45.3713 30.4006 45.2222 30.3431 45.0733 30.286L44.2599 26.8153C44.1337 26.2884 43.6759 25.9337 43.1374 25.9337H38.7161C38.1781 25.9337 37.7199 26.2888 37.5936 26.8153L36.7691 30.3315C36.6205 30.389 36.4711 30.4461 36.3341 30.5148L33.2985 28.6361C32.8403 28.3613 32.2563 28.43 31.8784 28.8083L28.7518 31.9349C28.3851 32.3128 28.3167 32.8968 28.5916 33.3438L30.4814 36.4249C30.4127 36.5851 30.3556 36.7341 30.2984 36.8831L26.8278 37.7076C26.3125 37.8334 25.9574 38.2916 25.9574 38.8185V43.2621C25.9574 43.789 26.3125 44.2472 26.8278 44.373L30.3327 45.1979C30.4014 45.3581 30.4585 45.5071 30.5272 45.6561L28.6605 48.7024C28.3741 49.149 28.4428 49.7334 28.8207 50.1113L31.9473 53.2496C32.3252 53.6274 32.9096 53.6966 33.3674 53.4101L36.4374 51.5087C36.5748 51.5774 36.7238 51.6345 36.8724 51.692L37.6969 55.1738C37.8231 55.6891 38.2809 56.0558 38.8078 56.0558H43.229C43.7671 56.0558 44.2253 55.6895 44.3399 55.1738L45.1876 51.6461C45.3362 51.5886 45.474 51.5314 45.6226 51.4627L48.6582 53.341C49.1048 53.6158 49.7004 53.5471 50.0671 53.1808L53.1937 50.0426C53.5716 49.6647 53.6403 49.0807 53.3655 48.6337L51.4644 45.5526C51.5331 45.3924 51.5906 45.2434 51.6473 45.0944L55.118 44.2699C55.6333 44.1437 56 43.6859 56 43.159V38.7265C56.0004 38.2004 55.6337 37.7306 55.1184 37.616L55.1186 37.6162ZM40.9736 45.5994C38.4306 45.5994 36.3694 43.5378 36.3694 40.9952C36.3694 38.441 38.4306 36.3794 40.9736 36.3794C43.5162 36.3794 45.5778 38.441 45.5778 40.9952C45.5778 43.5374 43.5162 45.5994 40.9736 45.5994Z" fill="#FF5331"/>
</svg>
