<svg width="57" height="57" viewBox="0 0 57 57" fill="none" xmlns="http://www.w3.org/2000/svg">
<path d="M57 24.3828C56.0585 24.571 50.2828 25.199 45.826 24.571L43.5661 35.3058C43.5661 35.3684 43.4404 35.8707 43.3152 36.059C43.1269 36.2473 40.3021 38.9469 37.6656 40.8298C38.6702 41.0807 39.6116 41.3321 40.8044 41.5203C46.8936 42.4618 50.7229 42.4618 54.6777 41.3947L50.5967 32.6689L57 24.3828Z" fill="#FF5331"/>
<path d="M37.2886 35.4312L36.2214 39.951C37.8535 38.8213 39.7998 37.1888 41.1179 35.9334C40.3017 35.8077 38.9205 35.6194 37.2886 35.4312L37.2886 35.4312Z" fill="#FF5331"/>
<path d="M13.1829 35.2429L10.7973 24.7594C6.40318 25.3243 0.878853 24.7594 0 24.5085L6.40318 32.7946L2.25991 41.5203C6.21486 42.5248 10.1068 42.5875 16.1332 41.646C17.3261 41.4577 18.3306 41.2064 19.272 40.9555C16.6354 39.0721 13.8107 36.31 13.6224 36.1847C13.622 36.059 13.1828 35.4941 13.1828 35.2428L13.1829 35.2429Z" fill="#FF5331"/>
<path d="M15.5684 35.8706C16.8869 37.126 18.958 38.8837 20.7162 40.0765L19.586 35.3684C17.8909 35.5567 16.4472 35.745 15.5684 35.8707V35.8706Z" fill="#FF5331"/>
<path d="M37.5396 34.3012C38.9834 34.4895 40.7411 34.6152 42.1851 34.9918C42.2477 34.9292 42.3108 34.8661 42.3734 34.8661C43.6288 28.9651 44.8842 23.0644 46.1401 17.1007C36.473 13.1458 20.4023 12.7691 10.1072 17.1634C11.4882 23.0643 12.8063 29.0279 14.1873 34.9287H14.313C21.4689 32.8572 30.6973 33.5477 37.5398 34.3012H37.5396ZM28.4999 28.7142L23.6661 31.0368L24.3566 25.7007L20.653 21.8088L25.926 20.8042L28.4999 16.0961L31.0738 20.8042L36.3468 21.8088L32.6432 25.7007L33.3337 31.0368L28.4999 28.7142Z" fill="#FF5331"/>
</svg>
