<svg width="58" height="57" viewBox="0 0 58 57" fill="none" xmlns="http://www.w3.org/2000/svg">
<path d="M57.3434 30.6042C57.1058 29.8314 56.5113 29.1777 55.7386 28.8808C54.9658 28.5836 54.1337 28.5836 53.3614 28.9998L42.0095 35.0021C42.1285 35.6559 42.0688 36.3097 41.9502 36.9634C41.3557 39.5786 38.9785 41.3617 36.3041 41.0645L26.0222 40.0542C25.0711 39.9352 24.358 39.1031 24.477 38.1521C24.596 37.201 25.428 36.4879 26.3791 36.6069L36.661 37.6172C37.5524 37.7362 38.4442 37.0824 38.6224 36.1907C38.8006 35.2994 38.3251 34.4673 37.493 34.1103L26.7949 29.8903C24.7743 29.1175 22.4563 29.1772 20.4353 30.0685L14.6108 32.743V49.3845L30.7769 51.4649C34.1051 51.8811 37.4334 50.8704 39.9295 48.6121L56.571 33.4565C57.3434 32.7438 57.6406 31.6146 57.3434 30.6042L57.3434 30.6042Z" fill="#FF5331"/>
<path d="M8.60755 30.0693H3.55545C2.12893 30.0693 1 31.1986 1 32.6247V49.4445C1 50.8711 2.12935 52 3.55545 52H8.54779C9.97432 52 11.1032 50.8706 11.1032 49.4445L11.1037 32.6247C11.1634 31.1982 9.97431 30.0688 8.60743 30.0688L8.60755 30.0693Z" fill="#FF5331"/>
<path d="M16.4528 9.624L18.236 10.4561C18.4142 10.5153 18.5925 10.5153 18.7708 10.4561L20.8512 9.624C21.2077 9.50502 21.5642 9.68329 21.7425 10.0402L22.5153 12.1206C22.5746 12.2989 22.6935 12.4179 22.8718 12.4772L23.288 12.6555C23.4663 12.7147 23.6446 12.7147 23.8229 12.6555L25.9033 11.8827C26.2598 11.7637 26.6163 11.942 26.7353 12.2392L27.5674 14.3196C27.6267 14.4979 27.7456 14.6169 27.9239 14.6762L29.9446 15.5675C30.2418 15.6865 30.5391 15.9837 30.5984 16.3403C30.5984 16.4593 30.6576 16.5778 30.6576 16.6968C32.381 15.0327 34.5206 14.1414 36.5417 14.3197C36.7793 14.3197 37.0765 14.379 37.3145 14.379C39.2166 14.4979 41.3558 14.6165 42.7824 16.3403C42.9014 16.4593 43.02 16.6375 43.0797 16.7565C44.922 11.6452 42.0693 10.9321 39.0976 9.62455C37.1955 8.79249 34.9373 9.32729 33.2135 10.3973C32.9163 10.5756 32.5597 10.5756 32.2032 10.4566L20.3164 5.16698C19.8409 4.98871 19.3061 4.92942 18.8305 5.10769L16.5126 5.93975C15.9778 6.11802 15.5616 6.47456 15.3833 7.00934C15.0263 8.01926 15.4421 9.20787 16.4529 9.62412L16.4528 9.624Z" fill="#FF5331"/>
<path d="M16.9877 23.8882C17.166 23.8882 17.3443 23.829 17.4632 23.71L19.1866 22.2834C19.4839 22.0459 19.8997 22.1052 20.1376 22.3427L21.5642 24.0661C21.6832 24.1851 21.8614 24.3037 22.0397 24.3037L22.5152 24.3629C22.6935 24.3629 22.8718 24.3037 22.9907 24.1847L24.7141 22.7582C25.0114 22.5206 25.4272 22.5799 25.6652 22.8174L27.0917 24.5408C27.2107 24.6598 27.3889 24.7784 27.5672 24.7784L29.7661 24.9566C30.1227 24.9566 30.4199 25.1942 30.5982 25.4914C31.6085 27.2148 33.3324 28.8196 35.4123 28.9979C37.1954 29.1169 38.8594 29.4142 40.1073 28.8197C38.0269 27.7501 36.3629 25.9073 35.5904 23.649C35.4715 23.2925 35.4122 22.9952 35.4715 22.6387C35.5307 21.6284 36.2442 20.7366 37.1948 20.3801C38.5617 19.9046 40.0476 20.6774 40.4638 21.9849C40.8203 22.936 41.4741 23.7681 42.3659 24.1839C42.4252 23.8866 42.4252 23.5301 42.4849 23.1736C43.079 16.0427 39.929 16.459 36.4225 16.1618C34.3421 15.9836 32.3812 17.2912 31.1329 18.8363C30.8953 19.0738 30.5384 19.2525 30.2416 19.1928L17.285 18.1825C16.7501 18.1232 16.2746 18.3015 15.8584 18.5987L13.8967 20.2035C13.4805 20.5601 13.1836 21.0356 13.1836 21.5704C13.1243 22.64 13.8967 23.5911 15.026 23.71L16.9877 23.8882Z" fill="#FF5331"/>
<path d="M43.7332 26.1467C41.4746 25.9684 39.5729 24.4825 38.8594 22.3429C38.6812 21.8674 38.2056 21.6298 37.7898 21.8081C37.4333 21.9271 37.255 22.2243 37.1953 22.5809C37.1953 22.6998 37.1953 22.8184 37.2546 22.9374C38.2056 25.7308 40.7018 27.6325 43.6142 27.8704C47.6555 28.1677 51.1625 25.196 51.4597 21.1543C51.757 17.3505 49.0826 14.0223 45.457 13.3685C45.5163 13.7251 45.5163 14.1413 45.457 14.6169C45.457 14.7951 45.3977 14.9734 45.3977 15.1517C48.0722 15.7462 49.9742 18.2423 49.7363 21.0357C49.4983 24.0663 46.7642 26.3843 43.7333 26.1466L43.7332 26.1467Z" fill="#FF5331"/>
</svg>
