<svg width="58" height="57" viewBox="0 0 58 57" fill="none" xmlns="http://www.w3.org/2000/svg">
<path d="M53.3474 37.6044L41.7036 40.9311V40.9903C42.0007 42.1784 41.8225 43.4261 41.2283 44.436C40.5748 45.5648 39.5649 46.3964 38.3172 46.7528C37.0696 47.1093 35.7629 46.931 34.6341 46.3368L27.921 42.594L28.5745 41.4652L35.2876 45.2079C36.1193 45.6833 37.0699 45.8022 37.9608 45.5051C38.8517 45.2676 39.6242 44.6734 40.0995 43.8417C40.3369 43.4256 40.4558 42.9507 40.5155 42.4754C40.6937 41.2874 40.1591 40.0993 39.0896 39.5643L22.8121 30.4163C22.8121 30.4163 21.0895 29.2874 18.8318 29.941H18.7725C18.3565 30.0002 0.831552 35.05 0.059258 35.2282H0L3.56464 47.7631L15.2679 44.4364C16.4559 45.1492 25.367 50.6743 26.4958 51.3278C28.4563 52.4566 30.9514 51.8623 31.4859 51.6841C31.5452 51.6841 55.3676 44.9117 55.3676 44.9117C57.031 44.4364 58.3973 42.2385 57.7437 39.9809C57.2676 38.1986 55.2478 37.0699 53.347 37.6044L53.3474 37.6044Z" fill="#FF5331"/>
<path d="M49.6047 32.5549H33.9807C33.6243 32.5549 33.3271 32.852 33.3271 33.2084C33.3271 33.5647 33.6243 33.8619 33.9807 33.8619H49.6047C49.9611 33.8619 50.2582 33.5647 50.2582 33.2084C50.2582 32.8516 49.9611 32.5549 49.6047 32.5549Z" fill="#FF5331"/>
<path d="M31.8421 13.0099C32.7927 13.0099 33.5647 12.2374 33.5647 11.2873C33.5647 11.1683 33.5647 11.0498 33.5054 10.9309H41.1687V30.357H36.6539C36.2975 30.357 36.0004 30.6542 36.0004 31.0105C36.0004 31.3669 36.2975 31.664 36.6539 31.664H47.0501C47.4065 31.664 47.7036 31.3669 47.7036 31.0105C47.7036 30.6542 47.4065 30.357 47.0501 30.357H42.5353V10.9309H50.1986C50.1986 11.0498 50.1394 11.1683 50.1394 11.2873C50.1394 12.2379 50.9118 13.0099 51.8619 13.0099C52.8126 13.0099 53.5845 12.2374 53.5845 11.2873C53.5845 10.3963 52.8718 9.68316 52.0401 9.62386H51.9211H42.4759V6.6535C42.4759 6.29712 42.1788 6 41.8224 6C41.466 6 41.1689 6.29712 41.1689 6.6535V9.62386H31.8418H31.7228C30.8319 9.68312 30.1784 10.3963 30.1784 11.2873C30.1191 12.2375 30.8915 13.0099 31.8418 13.0099H31.8421Z" fill="#FF5331"/>
<path d="M36.0599 22.218V22.1588V22.0995V22.0403V21.981L32.4953 14.258C32.3763 14.0205 32.1389 13.8419 31.901 13.8419C31.6636 13.8419 31.4257 13.9608 31.3068 14.1983L27.6237 21.9213V21.9806V22.0399V22.0991V22.1584C27.6237 23.9999 29.4652 25.5448 31.7229 25.6633H31.7821H31.9603H32.0196C34.2184 25.604 36.0599 24.0596 36.0599 22.218L36.0599 22.218ZM31.8418 16.0399L34.3369 21.5646H29.1686L31.8418 16.0399Z" fill="#FF5331"/>
<path d="M56.0801 22.2179V22.1587V22.0994V22.0402V21.9809L52.4562 14.2579C52.3373 14.0204 52.0999 13.9015 51.862 13.9015C51.6246 13.9015 51.3867 14.0797 51.2678 14.2579L47.6439 21.9809V22.0402V22.0994V22.1587V22.2179C47.6439 24.0595 49.4854 25.6044 51.7431 25.7229H51.8024H51.9806H52.0398C54.2386 25.6039 56.0802 24.0595 56.0802 22.2179H56.0801ZM51.8028 16.0398L54.3571 21.5645H49.1887L51.8028 16.0398Z" fill="#FF5331"/>
</svg>
