<svg width="57" height="57" viewBox="0 0 57 57" fill="none" xmlns="http://www.w3.org/2000/svg">
<path fill-rule="evenodd" clip-rule="evenodd" d="M27.503 4.69473L29.4831 3.37382L43.6983 24.689L41.7182 26.0099L40.4952 24.1755L27.376 30.0628C25.8115 30.7645 23.9001 30.4466 22.807 28.8107L17.6502 21.0782C16.5597 19.4423 17.0018 17.5547 18.251 16.382L28.7259 6.52888L27.503 4.69473ZM42.5312 9.07852L47.3967 5.83298L48.2015 7.04004L43.336 10.2856L42.5312 9.07852ZM43.929 12.0539L49.7768 12.1943L49.7399 13.6425L43.895 13.502L43.9294 12.0539H43.929ZM39.6831 7.4504L41.8063 2L43.1565 2.52681L41.0359 7.97457L39.6831 7.4504ZM35.4819 10.8519C39.421 8.22599 43.0953 13.6128 39.1004 16.276L35.4819 10.8519ZM11.8319 25.6917L17.2797 22.0598L21.7589 28.7757L16.3111 32.4101C15.7924 32.7569 15.08 32.6138 14.7333 32.0951L11.517 27.2721C11.1702 26.7505 11.3103 26.0385 11.8319 25.6917L11.8319 25.6917ZM23.9328 31.8386L24.9121 31.1846C25.4415 32.45 26.6486 33.2626 27.9802 33.9905L26.1721 35.195L23.9325 31.8386L23.9328 31.8386ZM17.7889 32.3284L21.4925 29.8585L28.9311 41.0082L25.2275 43.4781L17.7889 32.3284ZM7.16534 14.9125H17.3753C17.3753 14.9125 16.2103 15.8256 16.2103 17.1414H7.16506C6.92956 17.1414 6.73104 17.3425 6.73104 17.578V46.0831C6.73104 46.3186 6.92957 46.5197 7.16506 46.5197H49.8351C50.0706 46.5197 50.2717 46.3186 50.2717 46.0831V17.578C50.2717 17.3425 50.0706 17.1414 49.8351 17.1414H40.7713C40.7713 17.1414 41.7536 16.334 42.1928 14.9125H49.8351C51.3017 14.9125 52.501 16.1118 52.501 17.5784V46.0834C52.501 47.55 51.3017 48.7493 49.8351 48.7493H7.16506C5.70105 48.7493 4.4992 47.55 4.4992 46.0834V17.5784C4.4992 16.1118 5.70105 14.9125 7.16506 14.9125H7.16534ZM2.00076 50.0093H21.7013V50.9569H35.2994V50.0093H55V52.5055C55 53.8767 53.8222 54.9991 52.3818 54.9991H4.61816C3.17819 54.9991 2 53.8768 2 52.5055V50.0093H2.00076Z" fill="#FF5331"/>
</svg>
