<svg width="82" height="67" viewBox="0 0 82 67" fill="none" xmlns="http://www.w3.org/2000/svg">
<path d="M73.3744 0H7.6522C3.6907 0 0.449603 3.06088 0.0898031 6.93251C0.0898031 7.20255 0 7.38279 0 7.65283V47.9865C0 52.2179 3.42132 55.6394 7.65291 55.6394H73.3751C77.3366 55.6394 80.5777 52.5785 80.9375 48.7069C80.9375 48.4368 81.0273 48.2566 81.0273 47.9866V7.65291C81.0273 3.42148 77.606 0 73.3744 0ZM70.2237 51.6775H10.3534C6.75254 51.6775 3.78137 48.7065 3.78137 45.1054V10.5337C3.78137 6.93283 7.29256 3.96166 10.8935 3.96166H70.7637C74.3646 3.96166 77.3358 6.93267 77.3358 10.5337V45.1054C77.3364 48.707 73.8252 51.6781 70.2243 51.6781L70.2237 51.6775Z" fill="#FF5331"/>
<path d="M57.349 59.3301H23.6776C22.6872 59.3301 21.7866 60.1402 21.7866 61.221V65.0023C21.7866 65.9927 22.5968 66.8933 23.6776 66.8933H57.349C58.3393 66.8933 59.2399 66.0831 59.2399 65.0023V61.221C59.2399 60.2307 58.4298 59.3301 57.349 59.3301Z" fill="#FF5331"/>
<path d="M58.8801 29.53C58.8801 30.3401 58.2495 30.9706 57.5299 31.0604L32.1413 34.0314C32.2311 34.5715 32.5011 35.202 32.5011 35.7422C32.5011 36.2823 32.1413 36.8223 31.961 37.2726H54.3786C55.1887 37.2726 55.9091 37.9929 55.9091 38.803C55.9091 39.6132 55.1887 40.3335 54.3786 40.3335H29.2601C28.45 40.3335 27.7297 39.6132 27.7297 38.803C27.7297 38.0827 28.9003 36.1925 29.2601 35.4721L24.9388 15.3953H19.987C19.1769 15.3953 18.4565 14.675 18.4565 13.8649C18.4565 13.0547 19.1769 12.3344 19.987 12.3344H26.1992C27.8195 12.3344 27.91 14.3151 28.0902 15.4858H57.3501C58.1602 15.4858 58.8805 16.2061 58.8805 17.0162L58.8801 29.53ZM30.7906 46.6358C29.0798 46.6358 27.6398 45.285 27.6398 43.4844C27.6398 41.7736 28.99 40.333 30.7912 40.333C32.5019 40.333 33.9426 41.6832 33.9426 43.4844C33.942 45.2848 32.5013 46.6358 30.7907 46.6358H30.7906ZM52.5779 46.6358C50.8672 46.6358 49.4265 45.2856 49.4265 43.4844C49.4265 41.7736 50.7767 40.333 52.5779 40.333C54.2887 40.333 55.7293 41.6832 55.7293 43.4844C55.7293 45.2848 54.3791 46.6358 52.5779 46.6358Z" fill="#FF5331"/>
</svg>
