<svg width="63" height="66" viewBox="0 0 63 66" fill="none" xmlns="http://www.w3.org/2000/svg">
<path d="M7.35905 39.6838C7.41133 41.6154 8.99689 43.1796 10.9389 43.1796H29.6362C31.5886 43.1796 33.1737 41.6154 33.2265 39.6838C33.2369 39.652 33.2369 39.6101 33.2369 39.5788C33.2474 39.5051 33.2474 39.4319 33.2474 39.3582V26.298C33.2474 24.4187 31.7356 22.9064 29.8562 22.9064H21.6887C21.6254 22.8751 21.5731 22.8437 21.5104 22.8228L19.2322 20.1666C18.9802 19.8728 18.6023 19.6946 18.2139 19.6946H12.2931C11.5582 19.6946 10.9601 20.3036 10.9601 21.0381V22.6655C10.9601 22.8019 10.855 22.9065 10.7186 22.9065C8.84976 22.9065 7.33838 24.4188 7.33838 26.298V39.3582C7.33838 39.4314 7.33838 39.5046 7.34884 39.5788C7.34834 39.6097 7.34834 39.652 7.3588 39.6839L7.35905 39.6838ZM9.44855 31.7363H31.1377V39.5788C31.1377 40.4084 30.4655 41.0796 29.6364 41.0796H10.9392C10.1205 41.0796 9.44829 40.4079 9.44829 39.5788L9.44855 31.7363Z" fill="#FF5331"/>
<path d="M60.3747 4.21042H51.7869C50.3383 4.21042 49.1621 5.38562 49.1621 6.8352V9.7398H47.6851C45.9278 9.7398 44.4982 11.169 44.4982 12.9263V31.8351H40.3013L40.3018 9.89991C40.3018 9.81576 40.2914 9.7316 40.2705 9.65841V5.08116C40.2705 2.27766 37.9923 0 35.1893 0H5.11202C2.30903 0 0.0313716 2.27766 0.0313716 5.08116V9.65841C0.0104575 9.73161 0 9.81577 0 9.89991V52.7225C0 52.8066 0.0104577 52.8903 0.0313716 52.964V60.0186C0.0313716 62.8112 2.30903 65.0888 5.11202 65.0888H35.1893C37.9818 65.0888 40.2705 62.8107 40.2705 60.0077V52.9635C40.2914 52.8898 40.3018 52.8061 40.3018 52.722V33.9342H44.4987V52.8431C44.4987 54.6009 45.9283 56.0305 47.6856 56.0305H49.1626V58.2549C49.1626 59.7035 50.3383 60.8797 51.7874 60.8797H60.3752C61.8238 60.8797 63 59.704 63 58.2549V50.3393C63 48.8902 61.8243 47.7145 60.3752 47.7145H51.7874C50.3388 47.7145 49.1626 48.8897 49.1626 50.3393V53.9311H47.6856C47.0861 53.9311 46.5986 53.4431 46.5986 52.8436V33.9334H49.1626V36.838C49.1626 38.2865 50.3383 39.4628 51.7873 39.4628H60.3752C61.8237 39.4628 63 38.2871 63 36.838V28.9323C63 27.4838 61.8243 26.3075 60.3752 26.3075H51.7873C50.3388 26.3075 49.1626 27.4832 49.1626 28.9323V31.8334H46.5986V12.9246C46.5986 12.3255 47.0861 11.838 47.6856 11.838H49.1626V14.7387C49.1626 16.1872 50.3383 17.3634 51.7874 17.3634H60.3752C61.8238 17.3634 63 16.1878 63 14.7387L62.9995 6.83398C62.9995 5.38493 61.8233 4.2092 60.3747 4.2092V4.21042ZM16.6075 4.4101H23.6831C24.2712 4.4101 24.7328 4.88217 24.7328 5.45981C24.7328 6.03695 24.2712 6.50952 23.6831 6.50952H16.6075C16.0299 6.50952 15.5578 6.03696 15.5578 5.45981C15.5578 4.88218 16.0299 4.4101 16.6075 4.4101ZM20.1451 60.6485C18.9061 60.6485 17.8988 59.6406 17.8988 58.4017C17.8988 57.1523 18.9066 56.1449 20.1451 56.1449C21.3945 56.1449 22.4018 57.1528 22.4018 58.4017C22.4023 59.6411 21.3944 60.6485 20.1451 60.6485ZM38.2024 32.8722C38.2024 32.8762 38.1999 32.8802 38.1999 32.8847C38.1999 32.8892 38.2024 32.8926 38.2024 32.8976V51.6726L2.09922 51.6721V10.9492H38.2024V32.8722ZM54.4113 53.2471H57.7501C58.3272 53.2471 58.7998 53.7192 58.7998 54.2968C58.7998 54.8739 58.3272 55.3465 57.7501 55.3465H54.4113C53.8341 55.3465 53.3616 54.874 53.3616 54.2968C53.3616 53.7192 53.8341 53.2471 54.4113 53.2471ZM54.4113 31.8307H57.7501C58.3272 31.8307 58.7998 32.3033 58.7998 32.8804C58.7998 33.4685 58.3272 33.9301 57.7501 33.9301H54.4113C53.8341 33.9301 53.3616 33.4685 53.3616 32.8804C53.3616 32.3033 53.8341 31.8307 54.4113 31.8307ZM57.7497 11.8421H54.4109C53.8338 11.8421 53.3612 11.37 53.3612 10.7924C53.3612 10.2048 53.8338 9.74268 54.4109 9.74268H57.7497C58.3268 9.74268 58.7994 10.2053 58.7994 10.7924C58.7999 11.37 58.3273 11.8421 57.7497 11.8421Z" fill="#FF5331"/>
</svg>
