<svg width="81" height="67" viewBox="0 0 81 67" fill="none" xmlns="http://www.w3.org/2000/svg">
<path d="M80.9106 56.2488L76.4437 44.2273L76.2664 4.71991C76.2664 3.46805 75.7692 2.26759 74.884 1.38237C73.9987 0.497132 72.7983 0 71.5464 0H9.46533C8.21233 0.00338946 7.01185 0.50335 6.12663 1.39084C5.24196 2.27777 4.7454 3.47988 4.7454 4.73287V7.08627L5.07418 44.151L0.101121 56.8053C0.0372843 56.9442 0.00282443 57.0951 0 57.2482V62.8917C0.00960379 63.7826 0.372281 64.6328 1.00783 65.2565C1.64336 65.8802 2.50031 66.2265 3.39117 66.2197H77.6088C78.4969 66.2265 79.3522 65.8819 79.9877 65.261C80.6226 64.6396 80.9864 63.7928 81 62.9047V56.6532C80.996 56.5137 80.9661 56.3764 80.9113 56.2482L80.9106 56.2488ZM44.099 63.3731H36.9109C36.4997 63.4115 36.0918 63.2748 35.7862 62.9968C35.4811 62.7183 35.3071 62.3246 35.3071 61.9116C35.3071 61.4987 35.4811 61.1049 35.7862 60.827C36.0918 60.5485 36.4997 60.4118 36.9109 60.4502H44.099C44.5103 60.4118 44.9181 60.5485 45.2238 60.827C45.5288 61.1049 45.7028 61.4987 45.7028 61.9116C45.7028 62.3246 45.5288 62.7183 45.2238 62.9968C44.9181 63.2748 44.5103 63.4115 44.099 63.3731ZM72.8119 42.4682H8.69309L8.38972 8.06165H72.6604L72.8119 42.4682Z" fill="#FF5331"/>
<path d="M35.0895 39.2415H46.0987C47.2958 39.2483 48.4459 38.7782 49.2961 37.9354C50.1458 37.0925 50.6254 35.9457 50.6288 34.7493V26.0048C50.6333 25.1563 50.3983 24.3236 49.9509 23.6028C49.5029 22.882 48.8606 22.3023 48.098 21.9301V19.1971C47.9895 16.529 46.5039 14.1088 44.1734 12.8056C41.8432 11.5018 39.0033 11.5018 36.673 12.8056C34.3427 14.1089 32.8569 16.529 32.7485 19.1971V22.2341C31.4621 23.0674 30.6894 24.4983 30.6983 26.0304V34.7743C30.7079 35.9431 31.1712 37.0627 31.9903 37.896C32.81 38.7293 33.9213 39.2118 35.0895 39.2417L35.0895 39.2415ZM40.3287 13.9329H40.3281C41.7212 13.9363 43.0555 14.4928 44.0379 15.4797C45.0203 16.4671 45.5706 17.8043 45.5671 19.1968V21.5757H35.0641V19.1968C35.0505 17.7919 35.5991 16.4401 36.5877 15.4418C37.5768 14.4436 38.923 13.882 40.328 13.882L40.3287 13.9329Z" fill="#FF5331"/>
</svg>
