<svg width="68" height="68" viewBox="0 0 68 68" fill="none" xmlns="http://www.w3.org/2000/svg">
<path fill-rule="evenodd" clip-rule="evenodd" d="M32.4557 58.9915C30.6554 59.6285 29.3649 61.347 29.3649 63.3636C29.3649 65.9229 31.442 68 34.0013 68C36.5606 68 38.6377 65.9229 38.6377 63.3636C38.6377 61.3464 37.3472 59.628 35.547 58.9915V47.9091C35.547 47.0558 34.8546 46.3634 34.0013 46.3634C33.148 46.3634 32.4557 47.0558 32.4557 47.9091V58.9915ZM34.0013 64.9092C33.148 64.9092 32.4557 64.2169 32.4557 63.3636C32.4557 62.5103 33.148 61.8179 34.0013 61.8179C34.8546 61.8179 35.547 62.5103 35.547 63.3636C35.547 64.2169 34.8546 64.9092 34.0013 64.9092ZM7.72877 46.6284C5.92851 47.2654 4.638 48.9838 4.638 51.0004C4.638 53.5597 6.71511 55.6368 9.27441 55.6368C11.8337 55.6368 13.9108 53.5597 13.9108 51.0004C13.9108 48.9833 12.6203 47.2649 10.8201 46.6284V43.2732H21.6385C22.4918 43.2732 23.1842 42.5808 23.1842 41.7275C23.1842 40.8742 22.4918 40.1818 21.6385 40.1818H10.8201C9.1124 40.1818 7.7293 41.565 7.7293 43.2726V46.6278L7.72877 46.6284ZM57.1834 46.6284C55.3831 47.2654 54.0926 48.9838 54.0926 51.0004C54.0926 53.5597 56.1697 55.6368 58.729 55.6368C61.2883 55.6368 63.3654 53.5597 63.3654 51.0004C63.3654 48.9833 62.0749 47.2649 60.2747 46.6284V43.2732C60.2747 41.5655 58.8916 40.1824 57.1839 40.1824H46.3654C45.5122 40.1824 44.8198 40.8747 44.8198 41.728C44.8198 42.5813 45.5122 43.2737 46.3654 43.2737H57.1839V46.6289L57.1834 46.6284ZM9.27335 52.5461C8.42007 52.5461 7.72771 51.8537 7.72771 51.0004C7.72771 50.1471 8.42007 49.4547 9.27335 49.4547C10.1266 49.4547 10.819 50.1471 10.819 51.0004C10.819 51.8537 10.1266 52.5461 9.27335 52.5461ZM58.728 52.5461C57.8747 52.5461 57.1823 51.8537 57.1823 51.0004C57.1823 50.1471 57.8747 49.4547 58.728 49.4547C59.5813 49.4547 60.2736 50.1471 60.2736 51.0004C60.2736 51.8537 59.5813 52.5461 58.728 52.5461ZM34.7948 23.4027C34.3063 23.1077 33.6942 23.1077 33.2062 23.4027L25.4791 28.0391C25.0123 28.3175 24.7277 28.821 24.7277 29.3638V38.6367C24.7277 39.179 25.0123 39.683 25.4791 39.9614L33.2062 44.5979C33.6947 44.8928 34.3069 44.8928 34.7948 44.5979L42.522 39.9614C42.9887 39.683 43.2733 39.1795 43.2733 38.6367V29.3638C43.2733 28.8215 42.9887 28.3175 42.522 28.0391L34.7948 23.4027ZM9.00842 35.5454H21.6364C22.4897 35.5454 23.1821 34.853 23.1821 33.9997C23.1821 33.1464 22.4897 32.4541 21.6364 32.4541H9.00842C8.37143 30.6538 6.65299 29.3633 4.63641 29.3633C2.07711 29.3633 0 31.4404 0 33.9997C0 36.5591 2.07711 38.6362 4.63641 38.6362C6.65352 38.6362 8.3719 37.3456 9.00842 35.5454ZM58.9916 32.4546H46.3636C45.5103 32.4546 44.8179 33.147 44.8179 34.0003C44.8179 34.8536 45.5103 35.5459 46.3636 35.5459H58.9916C59.6286 37.3462 61.347 38.6367 63.3636 38.6367C65.9229 38.6367 68 36.5596 68 34.0003C68 31.4409 65.9229 29.3638 63.3636 29.3638C61.3465 29.3638 59.6281 30.6544 58.9916 32.4546ZM4.63562 32.4546C5.4889 32.4546 6.18126 33.147 6.18126 34.0003C6.18126 34.8536 5.4889 35.5459 4.63562 35.5459C3.78233 35.5459 3.08997 34.8536 3.08997 34.0003C3.08997 33.147 3.78233 32.4546 4.63562 32.4546ZM63.3631 32.4546C64.2163 32.4546 64.9087 33.147 64.9087 34.0003C64.9087 34.8536 64.2163 35.5459 63.3631 35.5459C62.5098 35.5459 61.8174 34.8536 61.8174 34.0003C61.8174 33.147 62.5098 32.4546 63.3631 32.4546ZM57.181 21.3722V24.7274H46.3625C45.5092 24.7274 44.8169 25.4197 44.8169 26.273C44.8169 27.1263 45.5092 27.8187 46.3625 27.8187H57.181C58.8887 27.8187 60.2718 26.4356 60.2718 24.7279V21.3727C62.072 20.7357 63.3625 19.0173 63.3625 17.0007C63.3625 14.4413 61.2854 12.3642 58.7261 12.3642C56.1668 12.3642 54.0897 14.4413 54.0897 17.0007C54.0897 19.0178 55.3802 20.7362 57.1805 21.3727L57.181 21.3722ZM7.72638 21.3722V24.7274C7.72638 26.435 9.10949 27.8182 10.8171 27.8182H21.6356C22.4889 27.8182 23.1813 27.1258 23.1813 26.2725C23.1813 25.4192 22.4889 24.7268 21.6356 24.7268H10.8171V21.3716C12.6174 20.7346 13.9079 19.0162 13.9079 16.9996C13.9079 14.4403 11.8308 12.3632 9.2715 12.3632C6.7122 12.3632 4.63509 14.4403 4.63509 16.9996C4.63509 19.0167 5.92563 20.7351 7.72585 21.3716L7.72638 21.3722ZM32.4544 9.00849V20.0909C32.4544 20.9442 33.1467 21.6366 34 21.6366C34.8533 21.6366 35.5456 20.9442 35.5456 20.0909V9.00849C37.3459 8.37149 38.6364 6.65304 38.6364 4.63645C38.6364 2.07713 36.5593 0 34 0C31.4407 0 29.3636 2.07713 29.3636 4.63645C29.3636 6.65357 30.6541 8.37197 32.4544 9.00849ZM9.27229 15.4545C10.1256 15.4545 10.8179 16.1468 10.8179 17.0001C10.8179 17.8534 10.1256 18.5458 9.27229 18.5458C8.41901 18.5458 7.72665 17.8534 7.72665 17.0001C7.72665 16.1468 8.41901 15.4545 9.27229 15.4545ZM58.7269 15.4545C59.5802 15.4545 60.2726 16.1468 60.2726 17.0001C60.2726 17.8534 59.5802 18.5458 58.7269 18.5458C57.8736 18.5458 57.1813 17.8534 57.1813 17.0001C57.1813 16.1468 57.8736 15.4545 58.7269 15.4545ZM33.9989 3.09079C34.8522 3.09079 35.5446 3.78316 35.5446 4.63645C35.5446 5.48974 34.8522 6.18211 33.9989 6.18211C33.1457 6.18211 32.4533 5.48974 32.4533 4.63645C32.4533 3.78316 33.1457 3.09079 33.9989 3.09079Z" fill="#FF5331"/>
</svg>
