<svg width="54" height="65" viewBox="0 0 54 65" fill="none" xmlns="http://www.w3.org/2000/svg">
<path d="M42.9545 0.95459H1.22727C0.549538 0.95459 0 1.50413 0 2.18186V63.5455C0 63.8709 0.129303 64.1832 0.359416 64.4133C0.589528 64.6435 0.901828 64.7728 1.22727 64.7728H42.9545C43.28 64.7728 43.5923 64.6435 43.8224 64.4133C44.0525 64.1832 44.1818 63.8709 44.1818 63.5455V2.18186C44.1818 1.85642 44.0525 1.54412 43.8224 1.31401C43.5923 1.0839 43.28 0.95459 42.9545 0.95459ZM9.81818 57.4091H6.13636C5.45863 57.4091 4.90909 56.8596 4.90909 56.1819C4.90909 55.5041 5.45863 54.9546 6.13636 54.9546H9.81818C10.4959 54.9546 11.0455 55.5041 11.0455 56.1819C11.0455 56.8596 10.4959 57.4091 9.81818 57.4091ZM25.7727 57.4091H14.7273C14.0495 57.4091 13.5 56.8596 13.5 56.1819C13.5 55.5041 14.0495 54.9546 14.7273 54.9546H25.7727C26.4505 54.9546 27 55.5041 27 56.1819C27 56.8596 26.4505 57.4091 25.7727 57.4091ZM25.7727 52.5H6.13636C5.45863 52.5 4.90909 51.9505 4.90909 51.2728C4.90909 50.595 5.45863 50.0455 6.13636 50.0455H25.7727C26.4505 50.0455 27 50.595 27 51.2728C27 51.9505 26.4505 52.5 25.7727 52.5ZM4.90909 40.2273C4.90909 39.5496 5.45863 39 6.13636 39H9.81818C10.4959 39 11.0455 39.5496 11.0455 40.2273C11.0455 40.905 10.4959 41.4546 9.81818 41.4546H6.13636C5.45863 41.4546 4.90909 40.905 4.90909 40.2273ZM25.7727 41.4546H14.7273C14.0495 41.4546 13.5 40.905 13.5 40.2273C13.5 39.5496 14.0495 39 14.7273 39H25.7727C26.4505 39 27 39.5496 27 40.2273C27 40.905 26.4505 41.4546 25.7727 41.4546ZM25.7727 36.5455H6.13636C5.45863 36.5455 4.90909 35.996 4.90909 35.3182C4.90909 34.6405 5.45863 34.091 6.13636 34.091H25.7727C26.4505 34.091 27 34.6405 27 35.3182C27 35.996 26.4505 36.5455 25.7727 36.5455ZM4.90909 24.2728C4.90909 23.595 5.45863 23.0455 6.13636 23.0455H9.81818C10.4959 23.0455 11.0455 23.595 11.0455 24.2728C11.0455 24.9505 10.4959 25.5 9.81818 25.5H6.13636C5.45863 25.5 4.90909 24.9505 4.90909 24.2728ZM25.7727 25.5H14.7273C14.0495 25.5 13.5 24.9505 13.5 24.2728C13.5 23.595 14.0495 23.0455 14.7273 23.0455H25.7727C26.4505 23.0455 27 23.595 27 24.2728C27 24.9505 26.4505 25.5 25.7727 25.5ZM25.7727 20.591H6.13636C5.45863 20.591 4.90909 20.0414 4.90909 19.3637C4.90909 18.6859 5.45863 18.1364 6.13636 18.1364H25.7727C26.4505 18.1364 27 18.6859 27 19.3637C27 20.0414 26.4505 20.591 25.7727 20.591ZM38.9166 52.1438L34.0075 57.0529C33.7774 57.2852 33.4635 57.4161 33.1364 57.4161C32.8093 57.4161 32.4953 57.2852 32.2652 57.0529L29.8107 54.5983C29.3291 54.1173 29.3291 53.3371 29.8107 52.856C30.2917 52.3744 31.0719 52.3744 31.553 52.856L33.1364 54.4515L37.1743 50.4015C37.6554 49.9199 38.4356 49.9199 38.9166 50.4015C39.3982 50.8825 39.3982 51.6627 38.9166 52.1438H38.9166ZM38.9166 36.1892L34.0075 41.0983C33.7774 41.3306 33.4635 41.4616 33.1364 41.4616C32.8093 41.4616 32.4953 41.3306 32.2652 41.0983L29.8107 38.6438C29.3291 38.1627 29.3291 37.3825 29.8107 36.9015C30.2917 36.4199 31.0719 36.4199 31.553 36.9015L33.1364 38.4969L37.1743 34.4469C37.6554 33.9653 38.4356 33.9653 38.9166 34.4469C39.3982 34.928 39.3982 35.7082 38.9166 36.1892H38.9166ZM38.9166 20.2347L34.0075 25.1438C33.7774 25.3761 33.4635 25.507 33.1364 25.507C32.8093 25.507 32.4953 25.3761 32.2652 25.1438L29.8107 22.6892C29.3291 22.2082 29.3291 21.428 29.8107 20.9469C30.2917 20.4653 31.0719 20.4653 31.553 20.9469L33.1364 22.5424L37.1743 18.4924C37.6554 18.0108 38.4356 18.0108 38.9166 18.4924C39.3982 18.9734 39.3982 19.7536 38.9166 20.2347H38.9166ZM39.2727 11.9999C39.2727 12.3253 39.1434 12.6376 38.9133 12.8678C38.6832 13.0979 38.3709 13.2272 38.0455 13.2272H35.5909C34.9132 13.2272 34.3636 12.6776 34.3636 11.9999C34.3636 11.3222 34.9132 10.7726 35.5909 10.7726H36.8182V8.31809H7.36365V10.7726H30.6818C31.3596 10.7726 31.9091 11.3222 31.9091 11.9999C31.9091 12.6776 31.3596 13.2272 30.6818 13.2272H6.13638C5.45864 13.2272 4.90911 12.6776 4.90911 11.9999V7.09081C4.90911 6.41308 5.45864 5.86354 6.13638 5.86354H38.0455C38.3709 5.86354 38.6832 5.99284 38.9133 6.22296C39.1434 6.45307 39.2727 6.76537 39.2727 7.09081V11.9999Z" fill="#FF5331"/>
<path d="M52.7726 3.40913H47.8635C47.1857 3.40913 46.6362 3.95867 46.6362 4.63641V53.7273C46.6187 53.8577 46.6187 53.9897 46.6362 54.1201L49.0907 61.4838C49.2562 61.9873 49.7263 62.3275 50.2567 62.3275C50.787 62.3275 51.2571 61.9873 51.4226 61.4838L53.8771 54.1201C53.9363 53.9958 53.9779 53.8632 53.9998 53.7273V4.63641C53.9998 4.31096 53.8705 3.99866 53.6404 3.76855C53.4103 3.53844 53.098 3.40913 52.7726 3.40913ZM49.0907 5.86368H51.5453V9.5455H49.0907V5.86368ZM50.318 57.2128L49.0907 53.727H51.5453L50.318 57.2128Z" fill="#FF5331"/>
</svg>
