<svg width="60" height="67" viewBox="0 0 60 67" fill="none" xmlns="http://www.w3.org/2000/svg">
<path d="M39.6208 43.034L39.0003 43.4479V55.9655H1.96553V10.2414H39.0003V17.1724L39.6208 17.4829C39.9314 17.3796 40.3447 17.1724 40.6553 17.0691C40.862 16.138 40.9658 16.0347 41.0691 15.8274V4.03437C41.0691 1.75883 39.207 0 37.0348 0H4.03437C1.75835 0 0 1.75883 0 4.03437V62.2761C0 64.4487 1.75835 66.2076 4.03437 66.2076H37.0348C39.2069 66.2076 41.0691 64.4487 41.0691 62.1732V44.6909C40.9658 44.5876 40.9658 44.4842 40.6553 43.4493C40.3447 43.3459 40.0347 43.2426 39.6208 43.0354V43.034ZM24.4136 4.44843C24.8275 4.03456 25.448 4.03456 25.8619 4.44843C26.1724 4.75895 26.2758 5.48285 25.8619 5.89673C25.4481 6.31059 24.8275 6.31059 24.4136 5.89673C23.9998 5.48287 23.9998 4.8623 24.4136 4.44843ZM19.7582 4.44843C20.172 4.03456 20.7926 4.03456 21.2065 4.44843C21.6203 4.86229 21.6203 5.48285 21.2065 5.89673C20.7926 6.31059 20.1721 6.31059 19.7582 5.89673C19.4481 5.48287 19.4481 4.8623 19.7582 4.44843ZM15.2066 4.44843C15.6205 4.03456 16.2411 4.03456 16.6549 4.44843C17.0688 4.86229 17.0688 5.48285 16.6549 5.89673C16.2411 6.31059 15.6205 6.31059 15.2066 5.89673C14.7928 5.48287 14.7928 4.8623 15.2066 4.44843ZM24.6203 62.0696H16.3444C15.8272 62.0696 15.31 61.6557 15.31 61.0351C15.31 60.5179 15.7238 60.0007 16.3444 60.0007H24.6203C25.1375 60.0007 25.6547 60.4146 25.6547 61.0351C25.6547 61.6562 25.2408 62.0696 24.6203 62.0696Z" fill="#FF5331"/>
<path d="M29.4832 40.0348C29.8971 39.9314 30.2071 39.5175 30.2071 39.1037V36.4139C30.2071 36 29.8966 35.5861 29.4832 35.3794C29.4832 35.3794 28.6555 35.1727 28.0349 34.9656C27.8282 34.2417 27.5177 33.6207 27.2072 33.0001L27.9311 31.6552C28.1378 31.2413 28.0345 30.7241 27.7244 30.4135L25.8623 28.5514C25.5518 28.2409 25.0346 28.1376 24.6207 28.3447L23.2758 29.0686C22.6552 28.7581 21.9308 28.4481 21.3103 28.2409L20.8964 26.7926C20.7931 26.3787 20.3792 26.0687 19.9653 26.0687H17.2755C16.8616 26.0687 16.4478 26.3792 16.3444 26.7926L15.9306 28.2409C15.31 28.4476 14.5857 28.7581 13.9651 29.0686L12.6202 28.3447C12.2063 28.138 11.6891 28.2414 11.3785 28.5514L9.51642 30.4135C9.2059 30.724 9.10256 31.2413 9.30973 31.6552L10.0336 33.0001C9.72311 33.6206 9.41308 34.345 9.2059 34.9656L7.7576 35.3794C7.34374 35.4828 7.03369 35.8966 7.03369 36.3105V39.0003C7.03369 39.4142 7.34421 39.8281 7.7576 39.9314L9.2059 40.3453C9.41259 41.0692 9.72311 41.6902 10.0336 42.3108L9.30973 43.6557C9.10303 44.0695 9.20638 44.5867 9.51642 44.8973L11.3785 46.7594C11.689 47.0699 12.2063 47.1733 12.6202 46.9661L13.9651 46.2422C14.5856 46.5527 15.2067 46.8628 15.9306 47.0699L16.3444 48.5182C16.4478 48.9321 16.8616 49.2421 17.2755 49.2421H19.9653C20.3792 49.2421 20.7931 48.9316 20.8964 48.5182L21.3103 47.0699C22.0342 46.8632 22.6552 46.5527 23.2758 46.2422L24.6207 46.9661C25.0345 47.1728 25.4484 47.0695 25.8623 46.7594L27.7244 44.8973C28.0349 44.5868 28.1383 44.0696 27.9311 43.6557L27.2072 42.414C27.5177 41.7935 27.8278 41.0691 28.0349 40.4485L29.4832 40.0348ZM18.6213 40.9658C16.8624 40.9658 15.4141 39.5175 15.4141 37.7587C15.4141 35.9999 16.8624 34.5516 18.6213 34.5516C20.3801 34.5516 21.8284 35.9999 21.8284 37.7587C21.8279 39.5175 20.3796 40.9658 18.6213 40.9658Z" fill="#FF5331"/>
<path d="M58.9659 27.6208C58.7592 27.6208 57.8282 27.3102 57.1038 27.1035H57.0005C56.69 26.1725 56.3799 25.2414 55.8627 24.4137L56.8971 22.6549C57.1038 22.241 57.0005 21.7238 56.6904 21.4132L54.311 19.0338C54.0005 18.7233 53.4833 18.62 53.0694 18.8271L51.3106 19.8616C50.4828 19.3443 49.5517 19.0338 48.6207 18.7238L48.1035 16.7583C48.0002 16.3444 47.5863 16.0344 47.1724 16.0344H43.7586C43.3448 16.0344 42.9309 16.3449 42.8276 16.7583L42.3104 18.7243C41.3793 19.0348 40.4483 19.3448 39.6205 19.862L37.8617 18.8276C37.4478 18.6209 36.9306 18.7243 36.6201 19.0343L34.2406 21.4137C33.9301 21.7242 33.8268 22.2415 34.0339 22.6554L35.0684 24.4142C34.5512 25.2419 34.2406 26.173 33.9306 27.104L31.9656 27.7241C31.5517 27.8275 31.2417 28.2413 31.2417 28.6552V32.069C31.2417 32.4828 31.5522 32.8967 31.9656 33L33.9311 33.5173C34.2416 34.4483 34.5517 35.3794 35.0689 36.2071L34.0344 37.9659C33.8277 38.3798 33.9311 38.7937 34.2411 39.2076L36.6205 41.587C36.9311 41.8975 37.4483 42.0008 37.8622 41.7937L39.621 40.7592C40.4488 41.2765 41.3799 41.587 42.3108 41.897L42.8281 43.8625C42.9314 44.2764 43.3453 44.5864 43.7591 44.5864H47.1729C47.5868 44.5864 48.0007 44.2759 48.104 43.8625L48.6212 41.897C49.5523 41.6903 50.4833 41.2765 51.311 40.7592L53.0699 41.7937C53.4837 42.0004 54.0009 41.897 54.3115 41.587L56.7932 39.3105C56.8966 39.2071 56.9999 39.1038 57.1037 38.8966C57.1037 38.7933 57.2071 38.6899 57.2071 38.4827C57.2071 38.2761 57.2071 38.0689 57.1037 37.9655C57.0004 37.8622 56.4832 36.8278 56.1727 36.2067C56.6899 35.379 57.0004 34.4479 57.3104 33.5169L59.2759 32.9997C59.6898 32.8963 59.9998 32.4824 59.9998 32.0686V28.6548C59.7931 28.1381 59.4831 27.7242 58.9659 27.6208L58.9659 27.6208ZM45.518 35.4827C42.7248 35.4827 40.3454 33.2067 40.3454 30.3101C40.3454 27.4135 42.6214 25.1375 45.518 25.1375C48.3112 25.1375 50.6907 27.4135 50.6907 30.3101C50.6907 33.2067 48.3112 35.4827 45.518 35.4827Z" fill="#FF5331"/>
</svg>
