<svg width="84" height="68" viewBox="0 0 84 68" fill="none" xmlns="http://www.w3.org/2000/svg">
<path d="M83.4685 56.3247H50.9296C50.7526 56.3247 50.5762 56.5017 50.5762 56.6781V58.0042C50.5762 58.7998 49.9569 59.5073 49.0731 59.5073L35.0143 59.5079C34.2186 59.5079 33.5112 58.8004 33.5112 58.0048V56.7669C33.5112 56.5899 33.3342 56.4135 33.1578 56.4135H0.530432C0.265217 56.4135 0 56.6787 0 56.944V62.3376C0 64.9015 2.12226 67.024 4.68632 67.024H79.3137C81.8776 67.024 84 64.9017 84 62.3376V56.944C84 56.5017 83.7348 56.3247 83.4696 56.3247H83.4685Z" fill="#FF5331"/>
<path d="M10.5211 52.3457H73.3885C75.6873 52.3457 77.4562 50.4886 77.4562 48.278L77.4555 9.0191C77.4555 4.06768 73.3879 0 68.4364 0H15.4722C10.5208 0 6.45312 4.06768 6.45312 9.0191V48.278C6.45312 50.5768 8.31028 52.3451 10.5208 52.3451L10.5211 52.3457ZM14.6769 9.01942C14.6769 8.57719 15.0303 8.22377 15.4725 8.22377L68.5252 8.22316C68.9674 8.22316 69.3208 8.57657 69.3208 9.0188V44.2104L14.6766 44.211L14.6769 9.01942Z" fill="#FF5331"/>
<path d="M35.2793 17.331C34.3948 16.4465 33.0687 16.4465 32.1842 17.331L25.2874 24.2279C24.4029 25.1123 24.4029 26.4384 25.2874 27.3229L32.1842 34.2197C32.6264 34.662 33.1569 34.839 33.6873 34.839C34.2177 34.839 34.837 34.662 35.1904 34.2197C36.0748 33.3353 36.0748 32.0092 35.1904 31.1247L29.8848 25.8191L35.1904 20.5135C36.163 19.6303 36.163 18.2154 35.2792 17.331H35.2793Z" fill="#FF5331"/>
<path d="M51.8136 17.331C50.9291 16.4465 49.603 16.4465 48.7185 17.331C47.8341 18.2155 47.8341 19.5415 48.7185 20.4261L54.0241 25.7316L48.7185 31.0372C47.8341 31.9217 47.8341 33.2477 48.7185 34.1323C49.1608 34.5745 49.6912 34.7515 50.2216 34.7515C50.752 34.7515 51.3713 34.5745 51.7247 34.1323L58.6215 27.2354C59.506 26.351 59.506 25.0249 58.6215 24.1404L51.8136 17.331Z" fill="#FF5331"/>
<path d="M44.8285 14.4131C43.6788 14.1479 42.441 14.8553 42.1757 16.0043L37.5776 35.3686C37.3124 36.5182 38.0199 37.7561 39.1689 38.0213C39.3459 38.0213 39.5223 38.1095 39.6993 38.1095C40.672 38.1095 41.5565 37.4021 41.8216 36.4294L46.4197 17.0652C46.6849 15.8273 45.9774 14.6783 44.8284 14.413L44.8285 14.4131Z" fill="#FF5331"/>
</svg>
