<svg width="68" height="67" viewBox="0 0 68 67" fill="none" xmlns="http://www.w3.org/2000/svg">
<path d="M16.5615 56.4195C13.1615 52.4598 9.44325 46.4168 8.63189 40.8227L0.109863 48.9276C0.449664 55.3878 3.104 60.3125 8.77441 65.017L10.54 66.0482L16.5615 56.4195Z" fill="#FF5331"/>
<path d="M51.9428 3.30174L47.1611 17.4508C52.8536 22.5068 54.7397 27.8922 56.0558 35.1421L56.9332 40.626L67.9999 29.3184C66.6838 22.0689 61.1123 12.0658 56.429 7.3177L51.9428 3.30174ZM59.4885 32.6076H59.3789H59.3793C58.8138 32.6106 58.3389 32.1831 58.2826 31.6205C57.7841 26.6733 55.9911 21.945 53.0836 17.9102L52.3927 17C52.2204 16.7645 52.1489 16.4702 52.1944 16.1823C52.2395 15.8939 52.3976 15.6359 52.6341 15.4645C52.8706 15.2936 53.1659 15.2236 53.4543 15.2711C53.7422 15.3186 53.9997 15.4787 54.1696 15.7166L54.8717 16.693H54.8713C58.0054 21.0395 59.9385 26.135 60.4761 31.4663C60.5021 32.0479 60.0687 32.5488 59.489 32.6066L59.4885 32.6076ZM63.2617 25.4017C63.4673 25.9712 63.1731 26.5999 62.6036 26.806C62.4842 26.8491 62.3578 26.8716 62.231 26.8716C61.7688 26.8716 61.357 26.5822 61.1998 26.1479L60.4869 24.1958V24.1953C58.927 19.8665 56.4376 15.9317 53.1933 12.6684C52.7678 12.2404 52.7678 11.5496 53.1933 11.1221C53.3994 10.9145 53.6795 10.7975 53.9718 10.7975C54.2646 10.7975 54.5447 10.9145 54.7508 11.1221C58.2037 14.6181 60.8537 18.825 62.5159 23.4496L63.2617 25.4017Z" fill="#FF5331"/>
<path d="M31.8061 15.9039L24.5453 0C15.8039 2.38007 5.54907 9.49784 0 16.7914L9.07041 32.9033C14.6199 25.6097 23.0327 18.2391 31.8069 15.9039H31.8061ZM25.5873 12.076C25.8801 11.979 26.2003 12.0099 26.4691 12.1607C26.7384 12.3115 26.9313 12.569 27.0008 12.8692C27.0704 13.1698 27.0106 13.4856 26.8353 13.7397C26.6605 13.9938 26.3864 14.1623 26.0808 14.2039C21.3441 15.3056 16.9801 17.6319 13.4246 20.949L12.5692 21.7608H12.5688C12.1266 22.1755 11.4318 22.1535 11.0171 21.7114C10.6019 21.2692 10.6244 20.5744 11.0666 20.1592L11.9332 19.3474L11.9327 19.3479C15.7617 15.753 20.4724 13.2329 25.5879 12.0431L25.5873 12.076ZM6.99719 18.8211C6.78665 19.061 6.48258 19.1971 6.16384 19.1942C5.91364 19.1863 5.67371 19.0938 5.48374 18.9308C5.02985 18.5307 4.98578 17.8389 5.38483 17.3845C8.53127 13.7363 12.4399 10.8234 16.8354 8.85168L18.6452 8.01785C19.1995 7.7696 19.8502 8.01784 20.0984 8.57211C20.3467 9.12638 20.0989 9.77661 19.5447 10.0254L17.6909 10.848C13.5874 12.6939 9.93765 15.4153 6.99741 18.8211L6.99719 18.8211Z" fill="#FF5331"/>
<path d="M29.8868 19.3371C29.0343 19.888 28.4379 20.7566 28.2308 21.7501L28.0771 22.485C27.8729 23.4359 28.0423 24.4294 28.551 25.2583C29.0593 26.0877 29.8677 26.689 30.8083 26.9377C31.2778 28.6254 32.2777 30.1178 33.6599 31.194C35.0426 32.2702 36.7343 32.8734 38.4857 32.915C42.9717 32.915 46.6126 28.9887 46.6126 24.1408C46.6126 19.2929 42.9712 15.3666 38.4857 15.3666C35.9406 15.3999 33.5664 16.6524 32.1023 18.7338C31.3194 18.7029 30.5458 18.9135 29.8867 19.337L29.8868 19.3371ZM30.2266 22.9237L30.3803 22.2C30.4655 21.7784 30.7191 21.4102 31.0825 21.1796C31.3449 21.0024 31.6539 20.9074 31.9707 20.9054C32.0838 20.8956 32.1974 20.8956 32.3105 20.9054L40.0868 22.5506C40.5084 22.6377 40.8771 22.8894 41.1121 23.2498C41.3471 23.6101 41.4279 24.0498 41.3373 24.4699L41.1948 25.1936L41.1943 25.1941C41.0029 26.0705 40.1441 26.6317 39.2643 26.4553L31.4772 24.8102C31.0566 24.7225 30.6893 24.4694 30.4572 24.108C30.231 23.7574 30.1488 23.3334 30.2266 22.9236L30.2266 22.9237Z" fill="#FF5331"/>
<path d="M31.5542 55.9369H32.1902C32.905 55.9403 33.5038 55.3978 33.5719 54.6864L35.0966 44.9692L37.1149 55.0595C37.2207 55.5785 37.6819 55.9477 38.2117 55.937H39.4289C39.7335 55.9379 40.0248 55.8116 40.2329 55.5888C40.441 55.3666 40.5472 55.0674 40.5257 54.7633L40.5805 39.4849L42.5219 45.3199C42.6727 45.7664 43.0923 46.0666 43.5638 46.0656H44.2439C44.5656 46.069 44.8726 45.9314 45.0836 45.6886C45.2952 45.4457 45.3887 45.1226 45.3407 44.8043L43.531 33.0359C42.0317 34.0201 40.2789 34.546 38.4858 34.5494C36.6066 34.5175 34.7773 33.9407 33.2197 32.8895C31.6622 31.8383 30.4436 30.3572 29.7116 28.6268C26.3444 28.2537 22.9008 28.0128 22.5169 28.5171C20.8718 30.7106 30.1944 35.0977 30.1944 35.0977L30.1939 54.5439C30.1939 55.3004 30.7976 55.9189 31.5542 55.9369V55.9369Z" fill="#FF5331"/>
<path d="M46.7337 39.5178L47.4907 44.4754C47.6038 45.1624 47.4883 45.8674 47.1617 46.4824C48.1434 47.9905 48.6692 49.7502 48.6751 51.5497C48.6751 57.4174 43.0923 62.1776 36.2047 62.1776C29.317 62.1776 23.7235 57.4174 23.7235 51.5497C23.791 48.3685 25.3666 45.4087 27.9681 43.576V38.0921C25.398 39.2903 23.2142 41.1837 21.6635 43.5579C20.1134 45.932 19.2575 48.6927 19.1938 51.5276C19.1938 60.0056 26.8057 66.8825 36.1933 66.8825C45.5808 66.8825 53.1927 60.0056 53.1927 51.5276C53.1188 46.7126 50.7097 42.2335 46.7325 39.518L46.7337 39.5178Z" fill="#FF5331"/>
</svg>
