<svg width="84" height="69" viewBox="0 0 84 69" fill="none" xmlns="http://www.w3.org/2000/svg">
<path d="M1.85645 31.4372H10.6879V64.2202H1.85645V31.4372Z" fill="#FF5331"/>
<path d="M19.6714 40.4456H28.5028V64.2219H19.6714V40.4456Z" fill="#FF5331"/>
<path d="M37.4849 22.0662H46.3163V64.2202H37.4849V22.0662Z" fill="#FF5331"/>
<path d="M55.2998 27.7812H64.1313V64.2185H55.2998V27.7812Z" fill="#FF5331"/>
<path d="M73.1133 15.0055H81.9447V64.2202H73.1133V15.0055Z" fill="#FF5331"/>
<path d="M82.8725 67.1443H0.927829C0.415487 67.1443 0 67.5598 0 68.0722C0 68.5845 0.415487 69 0.927829 69H82.8725C83.3848 69 83.8003 68.5845 83.8003 68.0722C83.8003 67.5598 83.3848 67.1443 82.8725 67.1443Z" fill="#FF5331"/>
<path d="M6.18094 24.3765C8.56626 24.3765 10.5075 22.4352 10.5075 20.0499C10.5075 17.6646 8.56626 15.7254 6.18094 15.7254C3.79562 15.7254 1.85645 17.6646 1.85645 20.0499C1.85645 22.4359 3.7963 24.3765 6.18094 24.3765Z" fill="#FF5331"/>
<path d="M24.0868 33.6055C26.4721 33.6055 28.4134 31.6663 28.4134 29.281C28.4134 26.8943 26.4721 24.9545 24.0868 24.9545C21.7015 24.9545 19.7603 26.8936 19.7603 29.281C19.7603 31.6663 21.7015 33.6055 24.0868 33.6055Z" fill="#FF5331"/>
<path d="M41.9003 15.6143C44.2856 15.6143 46.2268 13.6731 46.2268 11.2877C46.2268 8.90242 44.2856 6.96324 41.9003 6.96324C39.515 6.96324 37.5737 8.90242 37.5737 11.2877C37.5737 13.6731 39.515 15.6143 41.9003 15.6143Z" fill="#FF5331"/>
<path d="M59.7152 21.3343C62.1005 21.3343 64.0418 19.3952 64.0418 17.0078C64.0418 14.6225 62.1005 12.6833 59.7152 12.6833C57.3299 12.6833 55.3887 14.6225 55.3887 17.0078C55.3887 19.3952 57.3299 21.3343 59.7152 21.3343Z" fill="#FF5331"/>
<path d="M77.5287 8.65104C79.914 8.65104 81.8552 6.71187 81.8552 4.3245C81.8552 1.93917 79.914 0 77.5287 0C75.1434 0 73.2021 1.93917 73.2021 4.3245C73.2021 6.7105 75.1434 8.65104 77.5287 8.65104Z" fill="#FF5331"/>
<path d="M12.1557 24.173L17.1842 26.676C17.3172 26.7421 17.4581 26.7735 17.597 26.7735C17.9377 26.7735 18.2664 26.5851 18.428 26.2591C18.6558 25.8002 18.4694 25.2431 18.0105 25.0154L12.982 22.5124C12.5231 22.2846 11.966 22.471 11.7382 22.9299C11.5105 23.3881 11.6968 23.9439 12.1557 24.173L12.1557 24.173Z" fill="#FF5331"/>
<path d="M29.3073 24.9391C29.5464 24.9391 29.7849 24.8469 29.9673 24.6632L37.3197 17.2292C37.6798 16.8651 37.6771 16.2773 37.3124 15.9173C36.9483 15.5572 36.3605 15.5599 36.0005 15.9246L28.648 23.3586C28.288 23.7227 28.2906 24.3105 28.6554 24.6705C28.835 24.8496 29.0715 24.9391 29.3073 24.9391V24.9391Z" fill="#FF5331"/>
<path d="M48.5181 14.3283L52.3551 15.7197C52.4593 15.7578 52.5668 15.7752 52.6711 15.7752C53.0505 15.7752 53.4065 15.5407 53.5434 15.1633C53.7178 14.6817 53.47 14.1493 52.9883 13.975L49.1514 12.5836C48.6698 12.4092 48.1374 12.6571 47.9631 13.1387C47.7874 13.6216 48.0365 14.1533 48.5181 14.3283L48.5181 14.3283Z" fill="#FF5331"/>
<path d="M65.7278 13.711C65.9155 13.711 66.1052 13.6543 66.2689 13.5367L72.0182 9.40047C72.4336 9.10055 72.5285 8.52141 72.2299 8.10459C71.9313 7.68777 71.3508 7.59425 70.934 7.89284L65.1847 12.0291C64.7693 12.329 64.6744 12.9081 64.973 13.3249C65.1553 13.5761 65.4392 13.711 65.7278 13.711H65.7278Z" fill="#FF5331"/>
</svg>
