<svg width="61" height="67" viewBox="0 0 61 67" fill="none" xmlns="http://www.w3.org/2000/svg">
<path d="M57.6535 29.5345C57.5503 13.1073 43.8089 -0.0139835 27.2782 0.812794C12.1941 1.63946 0.210097 14.0376 0.00309768 29.1205C-0.100117 36.2494 2.37944 43.0686 6.92514 48.4408C11.1612 53.3999 13.6407 59.4956 14.0541 66.004C14.0541 66.5206 14.5706 66.9339 15.0872 66.9339H42.6728C43.2926 66.9339 43.7059 66.4174 43.7059 65.9008V57.7389H48.2516C51.0412 57.7389 53.3138 55.4658 53.3138 52.6766V45.7546H59.9262C60.2363 45.7546 60.546 45.6514 60.7529 45.3413C60.9593 45.1348 61.063 44.7215 60.9593 44.4114L57.6535 29.5345ZM43.4997 28.8115C44.1194 28.8115 44.5327 29.2249 44.5327 29.8446C44.5327 30.4644 44.1194 30.8777 43.4997 30.8777H40.1935V35.3202H43.4997C44.1194 35.3202 44.5327 35.7335 44.5327 36.3533C44.5327 36.973 44.1194 37.3863 43.4997 37.3863H40.1935V40.2792C40.1935 40.899 39.7802 41.3123 39.1604 41.3123H36.2675V44.6184C36.2675 45.2382 35.8542 45.6515 35.2345 45.6515C34.6147 45.6515 34.2014 45.2382 34.2014 44.6184V41.3123H29.7589V44.6184C29.7589 45.2382 29.3456 45.6515 28.7258 45.6515C28.1061 45.6515 27.6927 45.2382 27.6927 44.6184V41.3123H23.2503V44.6184C23.2503 45.2382 22.837 45.6515 22.2172 45.6515C21.5974 45.6515 21.1841 45.2382 21.1841 44.6184V41.3123H18.2912C17.6715 41.3123 17.2581 40.899 17.2581 40.2792V37.3863H13.952C13.3322 37.3863 12.9189 36.973 12.9189 36.3533C12.9189 35.7335 13.3322 35.3202 13.952 35.3202H17.2581V30.8777H13.952C13.3322 30.8777 12.9189 30.4644 12.9189 29.8446C12.9189 29.2249 13.3322 28.8115 13.952 28.8115H17.2581V24.3691H13.952C13.3322 24.3691 12.9189 23.9558 12.9189 23.336C12.9189 22.7162 13.3322 22.3029 13.952 22.3029H17.2581L17.2577 19.4095C17.2577 18.7898 17.671 18.3764 18.2908 18.3764H21.1836V15.0703C21.1836 14.4506 21.597 14.0372 22.2167 14.0372C22.8365 14.0372 23.2498 14.4505 23.2498 15.0703V18.3764H27.6923V15.0703C27.6923 14.4506 28.1056 14.0372 28.7253 14.0372C29.3451 14.0372 29.7584 14.4505 29.7584 15.0703L29.7589 18.3764H34.2014V15.0703C34.2014 14.4506 34.6147 14.0372 35.2345 14.0372C35.8542 14.0372 36.2675 14.4505 36.2675 15.0703V18.3764H39.1604C39.7802 18.3764 40.1935 18.7898 40.1935 19.4095V22.3024H43.4997C44.1194 22.3024 44.5327 22.7157 44.5327 23.3355C44.5327 23.9553 44.1194 24.3686 43.4997 24.3686H40.1935V28.811L43.4997 28.8115Z" fill="#FF5331"/>
<path d="M19.4272 39.2464H38.2313V20.4424H19.4272V39.2464ZM23.8697 25.9193C23.8697 25.2996 24.283 24.8862 24.9028 24.8862H32.7546C33.3744 24.8862 33.7877 25.2996 33.7877 25.9193V33.7712C33.7877 34.3909 33.3744 34.8043 32.7546 34.8043H24.9028C24.283 34.8043 23.8697 34.3909 23.8697 33.7712V25.9193Z" fill="#FF5331"/>
<path d="M25.936 26.9519H31.7218V32.7376H25.936V26.9519Z" fill="#FF5331"/>
</svg>
