<svg width="66" height="66" viewBox="0 0 66 66" fill="none" xmlns="http://www.w3.org/2000/svg">
<path d="M41.9933 17.8083H34.8867V15.4392C34.8867 15.0034 34.5332 14.6494 34.0969 14.6494H33.307V13.9601C33.307 12.2407 31.9755 10.7605 30.257 10.7026C28.4625 10.6423 26.9887 12.0804 26.9897 13.8615C26.9902 14.2945 26.6328 14.6489 26.1999 14.6489H21.4623C21.026 14.6489 20.6725 15.0024 20.6725 15.4388C20.6725 15.8751 21.026 16.2286 21.4623 16.2286H26.1999C27.5055 16.2286 28.5748 15.1725 28.5689 13.8675C28.565 12.9801 29.2921 12.2618 30.1829 12.2809C31.0517 12.2995 31.7278 13.0521 31.7278 13.9208V14.6494H30.938C30.5016 14.6494 30.1481 15.0029 30.1481 15.4392V17.8083H23.0415C20.0694 17.8176 17.3086 19.3458 15.7227 21.8599C14.1367 24.3741 13.9464 27.5242 15.2182 30.2104C16.4895 32.8971 19.0468 34.7465 21.9958 35.1141C24.9453 35.4814 27.8782 34.3145 29.7693 32.0219H35.2967C37.1897 34.3169 40.1255 35.4833 43.0775 35.1131C46.0295 34.743 48.5868 32.8878 49.8546 30.1966C51.1225 27.5055 50.9249 24.3525 49.331 21.8402C47.7371 19.3275 44.9684 17.8061 41.9934 17.8081L41.9933 17.8083ZM19.0271 28.1988C18.1912 28.1988 17.5136 27.5212 17.5136 26.6853C17.5136 25.8493 18.1912 25.1717 19.0271 25.1717C19.8631 25.1717 20.5407 25.8493 20.5407 26.6853C20.5407 27.5212 19.8631 28.1988 19.0271 28.1988ZM22.6852 32.3608C21.8493 32.3608 21.1716 31.6832 21.1716 30.8472C21.1716 30.0113 21.8492 29.3337 22.6852 29.3337C23.5212 29.3337 24.1987 30.0113 24.1987 30.8472C24.1987 31.6832 23.5207 32.3608 22.6852 32.3608ZM22.6852 24.0368C21.8493 24.0368 21.1716 23.3593 21.1716 22.5233C21.1716 21.6873 21.8492 21.0097 22.6852 21.0097C23.5212 21.0097 24.1987 21.6873 24.1987 22.5233C24.1987 23.3592 23.5207 24.0368 22.6852 24.0368ZM26.3427 28.1988C25.5068 28.1988 24.8292 27.5212 24.8292 26.6853C24.8292 25.8493 25.5067 25.1717 26.3427 25.1717C27.1787 25.1717 27.8563 25.8493 27.8563 26.6853C27.8563 27.5212 27.1787 28.1988 26.3427 28.1988ZM38.9542 28.1988C38.1183 28.1988 37.4406 27.5212 37.4406 26.6853C37.4406 25.8493 38.1182 25.1717 38.9542 25.1717C39.7902 25.1717 40.4677 25.8493 40.4677 26.6853C40.4677 27.5212 39.7902 28.1988 38.9542 28.1988ZM42.6117 32.3608C41.7758 32.3608 41.0982 31.6832 41.0982 30.8472C41.0982 30.0113 41.7758 29.3337 42.6117 29.3337C43.4477 29.3337 44.1253 30.0113 44.1253 30.8472C44.1253 31.6832 43.4477 32.3608 42.6117 32.3608ZM42.6117 24.0368C41.7758 24.0368 41.0982 23.3593 41.0982 22.5233C41.0982 21.6873 41.7758 21.0097 42.6117 21.0097C43.4477 21.0097 44.1253 21.6873 44.1253 22.5233C44.1253 23.3592 43.4477 24.0368 42.6117 24.0368ZM46.2693 28.1988C45.4334 28.1988 44.7557 27.5212 44.7557 26.6853C44.7557 25.8493 45.4333 25.1717 46.2693 25.1717C47.1053 25.1717 47.7828 25.8493 47.7828 26.6853C47.7828 27.5212 47.1053 28.1988 46.2693 28.1988ZM29.6126 59.2166C29.542 59.2166 29.4851 59.1107 29.4851 58.9798V51.9075C29.4851 51.7766 29.542 51.6707 29.6126 51.6707H35.4548C35.5254 51.6707 35.5823 51.7766 35.5823 51.9075V58.9798C35.5823 59.1107 35.5254 59.2166 35.4548 59.2166H29.6126ZM26.8621 60.9895H38.2058C40.9126 60.9895 43.1071 63.1839 43.1071 65.8909L21.9609 65.8913C21.9609 63.184 24.1553 60.9895 26.8627 60.9895L26.8621 60.9895ZM0 3.68441V46.3673C0 48.402 1.64936 50.0517 3.68441 50.0517H61.3836C63.4183 50.0517 65.068 48.4024 65.068 46.3673L65.0675 3.68441C65.0675 1.64973 63.4182 0 61.3831 0H3.68517C1.64999 0 0.000765108 1.64986 0.000765108 3.68441H0ZM32.534 48.383C30.8062 48.383 29.4055 46.9823 29.4055 45.2545C29.4055 43.5267 30.8062 42.126 32.534 42.126C34.2618 42.126 35.6625 43.5267 35.6625 45.2545C35.6625 46.9828 34.2618 48.383 32.534 48.383ZM59.0196 46.2979H54.8488C54.2727 46.2979 53.806 45.8312 53.806 45.2551C53.806 44.679 54.2727 44.2122 54.8488 44.2122H59.0196C59.5956 44.2122 60.0624 44.679 60.0624 45.2551C60.0619 45.8307 59.5951 46.2979 59.0196 46.2979ZM5.00542 5.00442H60.0626V40.4578H5.00542V5.00442Z" fill="#FF5331"/>
</svg>
