<svg width="15" height="13" viewBox="0 0 15 13" fill="none" xmlns="http://www.w3.org/2000/svg">
<path d="M7.11706 1.74402L7.49993 2.20005L7.88288 1.74409C8.382 1.1498 9.22943 0.5 10.5927 0.5C12.8895 0.5 14.5 2.62969 14.5 4.68278C14.5 5.35532 14.1685 6.14597 13.5804 6.99948C12.9995 7.8426 12.2078 8.69045 11.3787 9.46583C9.72161 11.0155 7.97038 12.2245 7.61484 12.4652L7.89498 12.8791L7.61527 12.4649C7.58086 12.4881 7.54073 12.5 7.5 12.5C7.45912 12.5 7.41921 12.4881 7.38513 12.4651C7.02959 12.2245 5.27836 11.0155 3.62126 9.46584C2.79214 8.69046 2.00052 7.84261 1.41961 6.99948C0.831547 6.14597 0.5 5.35532 0.5 4.68278C0.5 2.62965 2.1103 0.5 4.40705 0.5C5.7709 0.5 6.6182 1.14981 7.11706 1.74402Z" stroke="black"/>
</svg>
