<svg width="211" height="213" viewBox="0 0 211 213" fill="none" xmlns="http://www.w3.org/2000/svg">
<path d="M105.5 212.763C163.766 212.763 211 209.988 211 206.566C211 203.144 163.766 200.369 105.5 200.369C47.234 200.369 0 203.144 0 206.566C0 209.988 47.234 212.763 105.5 212.763Z" fill="#E6E6E6"/>
<path d="M119.597 49.088H118.462V17.9954C118.462 13.2227 116.566 8.64553 113.191 5.27074C109.816 1.89594 105.239 0 100.467 0H34.5931C29.8204 0 25.2432 1.89594 21.8684 5.27074C18.4936 8.64553 16.5977 13.2227 16.5977 17.9954V188.571C16.5977 193.343 18.4936 197.921 21.8684 201.295C25.2432 204.67 29.8204 206.566 34.5931 206.566H100.467C105.239 206.566 109.816 204.67 113.191 201.295C116.566 197.921 118.462 193.343 118.462 188.571V71.2201H119.597V49.088Z" fill="#3F3D56"/>
<path d="M114.632 18.1212V188.445C114.632 192.01 113.216 195.428 110.696 197.948C108.175 200.469 104.757 201.884 101.193 201.885H35.0034C31.4392 201.884 28.0211 200.468 25.5008 197.948C22.9806 195.428 21.5646 192.01 21.5645 188.446V18.1212C21.5645 14.5569 22.9805 11.1386 25.5008 8.61832C28.0211 6.09799 31.4394 4.68204 35.0037 4.68196H43.0335C42.6389 5.65151 42.4886 6.70317 42.5958 7.74444C42.703 8.7857 43.0645 9.78466 43.6485 10.6534C44.2324 11.5222 45.0209 12.2342 45.9445 12.7267C46.8682 13.2192 47.8987 13.4772 48.9455 13.478H86.6838C87.7306 13.4773 88.7612 13.2193 89.6849 12.7268C90.6086 12.2343 91.3971 11.5223 91.9811 10.6536C92.5651 9.78478 92.9266 8.78581 93.0338 7.74452C93.1411 6.70323 92.9908 5.65153 92.5962 4.68196H101.193C104.757 4.68204 108.175 6.09799 110.696 8.61832C113.216 11.1386 114.632 14.5569 114.632 18.1212Z" fill="white"/>
<path d="M52.1421 147.078H50.75L51.2148 119.888H51.6795L52.1421 147.078Z" fill="#E6E6E6"/>
<path d="M53.3009 102.769L55.5479 99.297C54.8815 97.4564 54.1119 95.6548 53.2427 93.9009L51.7898 95.0745L52.9403 93.2967C51.8438 91.1387 50.9812 89.7788 50.9812 89.7788C50.9812 89.7788 46.4755 96.8794 44.9694 104.399L47.8527 108.855L44.6614 106.276C44.5477 107.152 44.4893 108.034 44.4863 108.918C44.4863 117.822 47.3945 125.04 50.9818 125.04C54.5691 125.04 57.4772 117.821 57.4772 108.918C57.4772 106.157 56.8526 103.269 55.99 100.597L53.3009 102.769Z" fill="#CCCCCC"/>
<path d="M88.3804 147.078H86.9883L87.453 119.888H87.9178L88.3804 147.078Z" fill="#E6E6E6"/>
<path d="M89.5404 102.769L91.7874 99.297C91.1211 97.4564 90.3514 95.6548 89.4822 93.9009L88.0294 95.0745L89.1798 93.2967C88.0833 91.1387 87.2207 89.7788 87.2207 89.7788C87.2207 89.7788 82.7144 96.88 81.2098 104.399L84.091 108.854L80.8997 106.276C80.786 107.152 80.7275 108.034 80.7246 108.917C80.7246 117.821 83.6327 125.04 87.2201 125.04C90.8074 125.04 93.7155 117.82 93.7155 108.917C93.7155 106.157 93.0909 103.269 92.2283 100.597L89.5404 102.769Z" fill="#CCCCCC"/>
<path d="M51.0811 56.9477C58.1449 56.9477 63.8713 51.2214 63.8713 44.1576C63.8713 37.0938 58.1449 31.3674 51.0811 31.3674C44.0174 31.3674 38.291 37.0938 38.291 44.1576C38.291 51.2214 44.0174 56.9477 51.0811 56.9477Z" fill="#E6E6E6"/>
<path d="M68.7958 143.119H65.9258L66.8826 87.0556H67.839L68.7958 143.119Z" fill="#E6E6E6"/>
<path d="M71.1896 51.7588L75.8226 44.5997C74.4487 40.8044 72.8618 37.0897 71.0694 33.4731L68.0736 35.8926L70.4457 32.2266C68.1839 27.7767 66.4064 24.973 66.4064 24.973C66.4064 24.973 57.1149 39.6147 54.0106 55.1172L59.9543 64.3054L53.3727 58.9895C53.1383 60.7954 53.0177 62.6142 53.0117 64.4353C53.0117 82.7954 59.008 97.6791 66.4048 97.6791C73.8016 97.6791 79.7979 82.7954 79.7979 64.4353C79.7979 58.7435 78.5102 52.7887 76.7339 47.2801L71.1896 51.7588Z" fill="#CCCCCC"/>
<path d="M114.631 151.201V189.313C114.631 197.043 108.614 203.31 101.192 203.31H35.0021C27.5799 203.31 21.5628 197.044 21.5625 189.313V154.916C33.0383 140.886 49.6305 132.501 67.3139 131.795C84.9973 131.089 102.157 138.126 114.631 151.201Z" fill="#E6E6E6"/>
<path opacity="0.2" d="M68.1722 188.796C78.9883 188.796 87.7564 180.028 87.7564 169.212C87.7564 158.396 78.9883 149.628 68.1722 149.628C57.3561 149.628 48.5879 158.396 48.5879 169.212C48.5879 180.028 57.3561 188.796 68.1722 188.796Z" fill="#FF5331"/>
<path d="M68.1696 184.981C76.8787 184.981 83.9388 177.921 83.9388 169.212C83.9388 160.503 76.8787 153.443 68.1696 153.443C59.4605 153.443 52.4004 160.503 52.4004 169.212C52.4004 177.921 59.4605 184.981 68.1696 184.981Z" fill="#FF5331"/>
<path d="M66.331 175.954L60.7734 168.809L64.0054 166.295L66.6365 169.678L75.5255 160.295L78.4981 163.111L66.331 175.954Z" fill="white"/>
<path d="M151.973 144.685C157.62 144.685 162.197 140.107 162.197 134.46C162.197 128.813 157.62 124.236 151.973 124.236C146.326 124.236 141.748 128.813 141.748 134.46C141.748 140.107 146.326 144.685 151.973 144.685Z" fill="#2F2E41"/>
<path d="M156.117 191.86L156.905 195.576L171.613 194.306L170.451 188.821L156.117 191.86Z" fill="#FFB8B8"/>
<path d="M154.973 203.473L152.498 191.794L157.01 190.838L158.529 198.004C158.654 198.597 158.662 199.209 158.551 199.804C158.44 200.4 158.214 200.967 157.883 201.475C157.553 201.983 157.126 202.421 156.627 202.764C156.127 203.106 155.565 203.347 154.973 203.473Z" fill="#2F2E41"/>
<path d="M146.903 191.662L145.247 195.081L131.273 190.323L133.717 185.277L146.903 191.662Z" fill="#FFB8B8"/>
<path d="M143.09 197.053L146.283 190.459L150.434 192.469L145.232 203.214C144.131 202.681 143.286 201.732 142.885 200.577C142.483 199.421 142.557 198.154 143.09 197.053Z" fill="#2F2E41"/>
<path d="M119.37 184.909C119.848 184.999 120.34 184.982 120.812 184.86C121.283 184.738 121.721 184.515 122.097 184.205C122.472 183.896 122.775 183.507 122.984 183.068C123.194 182.629 123.304 182.149 123.308 181.662L146.352 160.416L140.629 155.984L119.765 178.275C118.947 178.322 118.175 178.668 117.595 179.247C117.015 179.826 116.668 180.598 116.619 181.416C116.57 182.234 116.824 183.042 117.331 183.686C117.838 184.329 118.564 184.765 119.37 184.909L119.37 184.909Z" fill="#FFB8B8"/>
<path d="M150.69 145.147C154.893 145.147 158.3 141.74 158.3 137.537C158.3 133.334 154.893 129.927 150.69 129.927C146.487 129.927 143.08 133.334 143.08 137.537C143.08 141.74 146.487 145.147 150.69 145.147Z" fill="#FFB8B8"/>
<path d="M157.519 182.269C152.181 182.269 145.752 181.145 141.786 176.544L141.697 176.441L141.79 176.339C141.821 176.306 144.737 172.972 141.824 167.025L137.818 168.257L133.83 162.994L136.039 156.367L145.079 149.085C146.374 148.047 147.951 147.422 149.606 147.291C152.6 147.001 155.517 146.171 158.215 144.839C159.449 144.239 160.809 143.942 162.181 143.971L162.358 143.976C162.776 143.988 163.186 144.084 163.565 144.26C163.944 144.435 164.284 144.685 164.563 144.995C164.842 145.305 165.056 145.669 165.19 146.064C165.325 146.46 165.378 146.878 165.346 147.294C164.732 155.235 163.65 174.418 166.83 181.023L166.912 181.194L166.729 181.241C163.706 181.921 160.618 182.266 157.52 182.269L157.519 182.269Z" fill="#FF5331"/>
<path d="M142.834 176.443C142.834 176.443 122.695 174.584 120.526 180.471C118.357 186.358 120.836 189.147 124.554 190.386C128.272 191.626 137.257 193.175 137.257 193.175L141.285 188.217L151.82 188.837C151.82 188.837 163.558 195.645 166.803 202.927C167.5 204.502 168.61 205.86 170.017 206.855C171.423 207.849 173.073 208.445 174.79 208.577C177.393 208.758 179.705 207.775 179.705 203.709C179.705 194.413 166.692 181.09 166.692 181.09L142.834 176.443Z" fill="#2F2E41"/>
<path d="M127.498 185.584C127.498 185.584 132.765 184.034 141.131 188.062L127.498 185.584Z" fill="#2F2E41"/>
<path d="M143.098 132.683C146.07 134.498 149.42 135.602 152.889 135.909L151.856 134.673C152.608 134.951 153.399 135.107 154.199 135.138C154.6 135.149 154.998 135.067 155.361 134.897C155.724 134.727 156.043 134.474 156.291 134.159C156.493 133.832 156.613 133.46 156.641 133.076C156.669 132.692 156.604 132.307 156.45 131.954C156.136 131.25 155.646 130.638 155.029 130.176C153.933 129.31 152.641 128.728 151.266 128.482C149.891 128.236 148.477 128.335 147.149 128.768C146.238 129.04 145.422 129.563 144.794 130.277C144.486 130.637 144.272 131.068 144.171 131.531C144.07 131.994 144.086 132.475 144.217 132.93" fill="#2F2E41"/>
<path d="M151.918 126.601C153.27 123.461 155.294 120.656 157.847 118.383C159.487 116.927 161.402 115.674 163.563 115.296C165.723 114.918 168.158 115.565 169.484 117.313C170.568 118.743 170.77 120.657 170.651 122.447C170.532 124.237 170.132 126.01 170.17 127.802C170.209 129.632 170.704 131.423 171.611 133.013C172.518 134.602 173.808 135.94 175.363 136.905C176.918 137.87 178.689 138.432 180.516 138.538C182.344 138.645 184.168 138.293 185.825 137.516C183.959 138.547 182.506 140.181 180.775 141.422C179.044 142.664 176.758 143.517 174.791 142.696C172.71 141.828 171.755 139.468 171.009 137.339L167.684 127.845C167.119 126.231 166.526 124.57 165.372 123.308C164.219 122.046 162.347 121.276 160.759 121.911C159.555 122.391 158.772 123.54 158.085 124.637C157.398 125.735 156.673 126.905 155.513 127.481C154.354 128.057 152.632 127.703 152.253 126.463" fill="#2F2E41"/>
<path d="M154.529 182.296C154.398 182.296 154.267 182.289 154.137 182.274C153.271 182.177 152.475 181.751 151.913 181.085C151.351 180.419 151.065 179.563 151.115 178.693C151.165 177.823 151.546 177.005 152.18 176.408C152.814 175.81 153.653 175.478 154.524 175.479C154.676 175.48 154.828 175.491 154.978 175.513L165.382 164.438L164.296 160.817L169.749 158.372L171.278 162.109C171.791 163.374 171.881 164.772 171.537 166.093C171.192 167.415 170.431 168.59 169.366 169.444L157.914 178.553C157.926 178.664 157.932 178.776 157.932 178.888C157.932 179.367 157.831 179.841 157.635 180.279C157.44 180.717 157.154 181.108 156.797 181.428C156.175 181.989 155.367 182.299 154.529 182.296Z" fill="#FFB8B8"/>
<path d="M162.664 145.46C163.025 145.299 163.414 145.213 163.809 145.207C164.204 145.201 164.595 145.275 164.961 145.424C165.326 145.574 165.658 145.795 165.936 146.076C166.213 146.356 166.431 146.69 166.577 147.057L171.959 160.642L163.594 166.219L162.664 145.46Z" fill="#FF5331"/>
</svg>
