<svg width="198" height="231" viewBox="0 0 198 231" fill="none" xmlns="http://www.w3.org/2000/svg">
<path d="M191.285 84.9795H6.21967C4.57069 84.9776 2.9898 84.3217 1.8238 83.1557C0.657797 81.9897 0.00190403 80.4088 0 78.7598V6.21966C0.00190403 4.57069 0.657797 2.9898 1.8238 1.8238C2.9898 0.657797 4.57069 0.00190403 6.21967 0H191.285C192.934 0.00190403 194.515 0.657797 195.681 1.8238C196.847 2.9898 197.503 4.57069 197.505 6.21966V78.7598C197.503 80.4088 196.847 81.9897 195.681 83.1557C194.515 84.3217 192.934 84.9776 191.285 84.9795Z" fill="#F2F2F2"/>
<path d="M148.121 81.0127H35.593C27.2076 81.0032 19.1683 77.668 13.239 71.7386C7.30958 65.8092 3.9743 57.77 3.96484 49.3846V35.5984C3.9743 27.213 7.30956 19.1737 13.2389 13.2443C19.1683 7.31486 27.2076 3.97954 35.593 3.97002H161.907C170.292 3.97954 178.331 7.31486 184.261 13.2443C190.19 19.1737 193.525 27.213 193.535 35.5984C193.521 47.6388 188.732 59.1822 180.218 67.6961C171.704 76.21 160.161 80.9991 148.121 81.0127Z" fill="white"/>
<path d="M119.096 24.7359H44.7134C44.288 24.7359 43.88 24.5669 43.5792 24.266C43.2784 23.9652 43.1094 23.5572 43.1094 23.1318C43.1094 22.7064 43.2784 22.2984 43.5792 21.9976C43.88 21.6968 44.288 21.5278 44.7134 21.5278H119.096C119.521 21.5278 119.929 21.6968 120.23 21.9976C120.531 22.2984 120.7 22.7064 120.7 23.1318C120.7 23.5572 120.531 23.9652 120.23 24.266C119.929 24.5669 119.521 24.7359 119.096 24.7359Z" fill="#E6E6E6"/>
<path d="M156.749 41.85H44.7134C44.288 41.85 43.88 41.681 43.5792 41.3802C43.2784 41.0794 43.1094 40.6714 43.1094 40.246C43.1094 39.8206 43.2784 39.4126 43.5792 39.1118C43.88 38.8109 44.288 38.6419 44.7134 38.6419H156.749C157.174 38.6419 157.582 38.8109 157.883 39.1118C158.184 39.4126 158.353 39.8206 158.353 40.246C158.353 40.6714 158.184 41.0794 157.883 41.3802C157.582 41.681 157.174 41.85 156.749 41.85Z" fill="#E6E6E6"/>
<path d="M156.749 58.9642H44.7134C44.288 58.9642 43.88 58.7952 43.5792 58.4944C43.2784 58.1936 43.1094 57.7856 43.1094 57.3602C43.1094 56.9348 43.2784 56.5268 43.5792 56.2259C43.88 55.9251 44.288 55.7561 44.7134 55.7561H156.749C157.174 55.7561 157.582 55.9251 157.883 56.2259C158.184 56.5268 158.353 56.9348 158.353 57.3602C158.353 57.7856 158.184 58.1936 157.883 58.4944C157.582 58.7952 157.174 58.9642 156.749 58.9642Z" fill="#E6E6E6"/>
<path d="M156.749 58.9642H44.7134C44.288 58.9642 43.88 58.7952 43.5792 58.4944C43.2784 58.1936 43.1094 57.7856 43.1094 57.3602C43.1094 56.9348 43.2784 56.5268 43.5792 56.2259C43.88 55.9251 44.288 55.7561 44.7134 55.7561H156.749C157.174 55.7561 157.582 55.9251 157.883 56.2259C158.184 56.5268 158.353 56.9348 158.353 57.3602C158.353 57.7856 158.184 58.1936 157.883 58.4944C157.582 58.7952 157.174 58.9642 156.749 58.9642Z" fill="#E6E6E6"/>
<path d="M111.245 43.8143C111.263 44.2975 111.387 44.7709 111.607 45.2011C111.828 45.6314 112.14 46.0081 112.522 46.3046C112.904 46.6011 113.346 46.8103 113.818 46.9174C114.289 47.0245 114.778 47.027 115.251 46.9246L121.368 56.9599L123.972 51.4352L117.763 42.7525C117.539 41.9701 117.035 41.2973 116.347 40.8615C115.66 40.4258 114.836 40.2574 114.033 40.3883C113.229 40.5192 112.502 40.9402 111.988 41.5717C111.474 42.2031 111.21 43.0011 111.245 43.8143H111.245Z" fill="#FFB6B6"/>
<path d="M157.156 72.5751L136.074 61.1402L129.425 54.9017C129.425 54.9017 126.534 54.1277 127.598 53.1878C128.662 52.2479 125.63 51.3414 125.63 51.3414L122.061 47.9924L116.988 51.5814L118.456 53.8569C118.456 53.8569 118.355 57.624 120.419 56.8993C122.483 56.1745 121.967 59.2988 121.967 59.2988L134.285 78.3929L157.156 72.5751Z" fill="#3F3D56"/>
<path d="M94.9233 61.8017C106.296 61.8017 115.515 52.5827 115.515 41.2104C115.515 29.8382 106.296 20.6192 94.9233 20.6192C83.5511 20.6192 74.332 29.8382 74.332 41.2104C74.332 52.5827 83.5511 61.8017 94.9233 61.8017Z" fill="#FF5331"/>
<path d="M157.217 222.557H152.936L150.898 206.043H157.217V222.557Z" fill="#FFB6B6"/>
<path d="M159.477 229.976H156.406L155.858 227.077L154.455 229.976H146.311C145.921 229.976 145.541 229.851 145.226 229.62C144.912 229.388 144.68 229.063 144.563 228.69C144.447 228.317 144.453 227.917 144.581 227.548C144.708 227.179 144.95 226.86 145.271 226.639L151.774 222.147V219.217L158.614 219.625L159.477 229.976Z" fill="#2F2E41"/>
<path d="M122.975 222.557H118.694L116.656 206.043H122.975V222.557Z" fill="#FFB6B6"/>
<path d="M125.235 229.976H122.164L121.616 227.077L120.212 229.976H112.069C111.679 229.976 111.298 229.851 110.984 229.62C110.67 229.388 110.437 229.063 110.321 228.69C110.205 228.317 110.211 227.917 110.338 227.548C110.466 227.179 110.708 226.86 111.029 226.639L117.532 222.147V219.217L124.372 219.625L125.235 229.976Z" fill="#2F2E41"/>
<path d="M152.676 97.6621H131.066V122.264H152.676V97.6621Z" fill="#FFB6B6"/>
<path d="M131.561 109.797L127.904 114.119L121.587 127.417L105.671 165.287L102.305 173.296L105.023 187.454C105.023 187.454 105.463 197.429 105.463 199.062C105.463 202.386 108.244 204.228 108.244 204.228L110.284 214.853L130.065 214.022C130.065 214.022 129.375 202.31 125.232 199.356C121.089 196.402 119.184 181.006 119.184 181.006L116.933 174.174L138.875 148.164L139.017 157.256L139.085 161.657C139.085 161.657 135.872 190.279 139.618 195.834C143.363 201.389 139.694 200.735 139.694 200.735L139.872 212.194L163.311 212.36L158.14 179.371C158.14 179.371 155.514 177.298 156.919 175.214C158.324 173.13 155.557 170.578 155.557 170.578L156.798 144.824C156.798 144.824 155.424 140.376 157.04 139.797C158.656 139.219 157.252 135.394 157.252 135.394L157.493 130.409L152.672 114.95L131.561 109.797Z" fill="#2F2E41"/>
<path d="M153.005 97.6621L155.332 90.6805L156.994 88.3533L157.659 81.7041C157.659 63.7514 153.655 66.7409 153.655 66.7409L151.342 60.4268L140.704 60.0944L133.888 66.5773L128.237 68.572L126.023 80.0718L130.065 92.3428L131.063 98.9919C129.16 102.504 129.321 100.843 130.896 103.48L149.68 108.633C156.329 110.96 156.329 104.976 154.996 103.48C153.663 101.984 153.005 97.6621 153.005 97.6621Z" fill="#3F3D56"/>
<path d="M144.651 57.8627C150.098 57.8627 154.514 53.4471 154.514 48.0003C154.514 42.5534 150.098 38.1379 144.651 38.1379C139.205 38.1379 134.789 42.5534 134.789 48.0003C134.789 53.4471 139.205 57.8627 144.651 57.8627Z" fill="#FFB6B6"/>
<path d="M157.819 61.1649C157.912 61.3217 157.969 61.4974 157.984 61.679C158 61.8606 157.974 62.0433 157.909 62.2136C157.844 62.384 157.742 62.5374 157.61 62.6627C157.477 62.7879 157.318 62.8816 157.145 62.9369C155.821 63.3757 155.007 64.6557 154.056 65.6797C153.108 66.7003 151.583 67.5481 150.372 66.8532C149.166 66.1617 149.082 64.3964 148.072 63.4389C147.088 62.508 145.452 62.621 144.295 63.3292L144.26 63.3505C144.061 63.4807 143.827 63.5495 143.589 63.5484C143.35 63.5473 143.118 63.4764 142.919 63.3444C142.721 63.2123 142.565 63.025 142.472 62.8056C142.379 62.5862 142.352 62.3443 142.395 62.1097C142.8 59.9538 143.205 57.7982 143.61 55.6428C142.546 58.2061 141.001 60.5421 139.059 62.5246C138.524 63.1421 137.846 63.6192 137.084 63.9143C136.393 64.1337 135.721 63.4189 135.049 63.5486C136.718 62.0891 142.33 52.7337 141.326 46.4802C140.146 46.6132 138.966 46.7462 137.786 46.8792C137.658 46.3206 137.385 45.8057 136.994 45.3864C137.042 45.93 136.973 46.4775 136.791 46.9922C136.299 47.0487 135.804 47.1019 135.312 47.1584C134.627 47.2349 133.882 47.3014 133.294 46.9423C132.313 46.3439 132.283 44.9276 132.563 43.8106C133.38 40.5625 135.861 37.8463 138.896 36.4234C141.931 35.0038 142.829 38.1654 146.027 37.1548C152.344 35.1601 157.184 38.5711 158.89 44.9011C160.323 50.2104 159.282 55.8456 157.819 61.1649Z" fill="#2F2E41"/>
<path d="M185.121 230.19H173.045L172.993 230.096C172.839 229.816 172.69 229.519 172.55 229.214C171.306 226.551 170.781 223.505 170.317 220.818L169.967 218.793C169.925 218.547 169.957 218.295 170.059 218.068C170.161 217.841 170.328 217.649 170.54 217.518C170.751 217.386 170.997 217.321 171.246 217.33C171.495 217.339 171.735 217.423 171.936 217.569C173.771 218.905 175.607 220.239 177.444 221.572C178.14 222.078 178.934 222.663 179.694 223.296C179.768 222.94 179.845 222.582 179.921 222.23C179.974 221.986 180.099 221.764 180.279 221.592C180.458 221.42 180.686 221.305 180.931 221.262C181.176 221.22 181.429 221.252 181.656 221.354C181.884 221.456 182.075 221.623 182.207 221.835L183.62 224.105C184.65 225.762 185.56 227.396 185.375 229.158C185.375 229.179 185.374 229.201 185.37 229.222C185.333 229.511 185.264 229.796 185.165 230.07L185.121 230.19Z" fill="#F0F0F0"/>
<path d="M197.242 230.451L82.4858 230.563C82.3713 230.563 82.2616 230.517 82.1808 230.436C82.1 230.354 82.0547 230.244 82.0547 230.13C82.0547 230.015 82.1 229.906 82.1808 229.824C82.2616 229.743 82.3713 229.697 82.4858 229.697L197.242 229.585C197.357 229.585 197.466 229.631 197.547 229.712C197.628 229.794 197.673 229.904 197.673 230.018C197.673 230.133 197.628 230.243 197.547 230.324C197.466 230.405 197.357 230.451 197.242 230.451Z" fill="#CACACA"/>
<path d="M93.0501 68.9248L80.4274 58.2649C79.9959 57.8998 79.7269 57.3783 79.6794 56.8151C79.6319 56.2518 79.8098 55.6927 80.174 55.2604L82.4973 52.5094C82.8625 52.0779 83.3839 51.8089 83.9472 51.7614C84.5104 51.714 85.0695 51.8918 85.5018 52.2561L98.1245 62.9159C98.556 63.2811 98.825 63.8025 98.8725 64.3658C98.92 64.929 98.7421 65.4881 98.3778 65.9204L96.0546 68.6715C95.6894 69.1029 95.168 69.3719 94.6047 69.4194C94.0415 69.4669 93.4823 69.289 93.0501 68.9248Z" fill="#3F3D56"/>
<path d="M81.0909 55.4822C80.8946 55.7152 80.7988 56.0165 80.8244 56.32C80.85 56.6235 80.9949 56.9045 81.2274 57.1013L93.8501 67.7611C94.0831 67.9574 94.3844 68.0533 94.6879 68.0277C94.9914 68.0021 95.2724 67.8571 95.4692 67.6246L97.7925 64.8736C97.9887 64.6407 98.0846 64.3394 98.059 64.0358C98.0334 63.7323 97.8884 63.4513 97.656 63.2545L85.0332 52.5947C84.8003 52.3984 84.499 52.3026 84.1955 52.3282C83.892 52.3538 83.6109 52.4987 83.4141 52.7312L81.0909 55.4822Z" fill="white"/>
<path d="M88.5002 59.6262C88.4564 59.6875 88.3989 59.7377 88.3323 59.7729C88.2657 59.8082 88.1918 59.8274 88.1165 59.8291L86.1332 59.8747C86.0694 59.8761 86.0061 59.865 85.9467 59.842C85.8872 59.819 85.8329 59.7844 85.7868 59.7404C85.7407 59.6964 85.7038 59.6437 85.678 59.5854C85.6523 59.5271 85.6383 59.4643 85.6368 59.4006C85.6354 59.3369 85.6465 59.2735 85.6695 59.2141C85.6926 59.1547 85.7271 59.1004 85.7711 59.0543C85.8151 59.0082 85.8678 58.9712 85.9261 58.9455C85.9844 58.9198 86.0472 58.9057 86.1109 58.9043L87.4084 58.8744L86.1306 55.5028C86.0854 55.3826 86.0897 55.2492 86.1426 55.1321C86.1955 55.015 86.2927 54.9237 86.4129 54.8781C86.533 54.8326 86.6664 54.8366 86.7836 54.8892C86.9008 54.9418 86.9924 55.0388 87.0383 55.1588L88.5592 59.1719C88.5867 59.2445 88.5964 59.3227 88.5875 59.3998C88.5785 59.4769 88.5512 59.5507 88.5079 59.6151L88.5002 59.6262Z" fill="#FF5331"/>
<path d="M88.7554 60.4735C89.2338 60.5437 89.691 60.718 90.0947 60.9841C90.4984 61.2501 90.8389 61.6015 91.0921 62.0133C91.3454 62.4252 91.5052 62.8876 91.5605 63.3679C91.6157 63.8482 91.5649 64.3349 91.4117 64.7934L100.722 71.9656L94.9474 73.9529L86.9912 66.8375C86.2378 66.529 85.6238 65.955 85.2654 65.2241C84.907 64.4932 84.8292 63.6563 85.0466 62.8719C85.2641 62.0874 85.7618 61.41 86.4453 60.968C87.1289 60.5259 87.9508 60.35 88.7554 60.4735L88.7554 60.4735Z" fill="#FFB6B6"/>
<path d="M137.229 64.0197L113.391 78.6765C113.391 78.6765 103.779 75.1203 105.658 73.474C107.536 71.8277 101.556 70.7147 101.556 70.7147L94.9504 66.2705L91.1172 70.7254C91.1172 70.7254 91.8156 77.9615 93.004 76.7085C94.1924 75.4556 95.9688 78.8783 95.9688 78.8783C95.9688 78.8783 96.4937 82.7001 99.8767 81.7383C103.26 80.7766 112.337 90.8577 112.337 90.8577L141.675 79.9157L137.229 64.0197Z" fill="#3F3D56"/>
<path d="M94.2006 49.4704C93.9243 49.4704 93.6517 49.4061 93.4045 49.2824C93.1574 49.1588 92.9424 48.9793 92.7766 48.7582L88.4107 42.9368C88.2704 42.7498 88.1684 42.537 88.1104 42.3105C88.0524 42.0841 88.0395 41.8484 88.0726 41.617C88.1057 41.3856 88.184 41.163 88.3031 40.9618C88.4222 40.7607 88.5798 40.5849 88.7668 40.4447C89.1445 40.1614 89.6192 40.0398 90.0866 40.1066C90.318 40.1397 90.5406 40.218 90.7418 40.3371C90.9429 40.4562 91.1187 40.6138 91.2589 40.8008L94.1153 44.609L101.451 33.6048C101.713 33.212 102.121 32.9393 102.584 32.8467C103.047 32.7541 103.527 32.8492 103.92 33.1111C104.313 33.373 104.586 33.7802 104.678 34.2432C104.771 34.7062 104.676 35.1869 104.414 35.5798L95.682 48.6777C95.524 48.9146 95.3116 49.1101 95.0625 49.2479C94.8133 49.3858 94.5348 49.4619 94.2502 49.4699C94.2336 49.4701 94.2171 49.4704 94.2006 49.4704Z" fill="white"/>
</svg>
