<svg width="454" height="426" viewBox="0 0 454 426" fill="none" xmlns="http://www.w3.org/2000/svg">
<path d="M248.232 337.503H144.082V417.833H248.232V337.503Z" fill="#EBEBEB"/>
<path d="M222.143 417.273C222.003 417.273 221.883 399.363 221.883 377.273C221.883 355.183 222.003 337.273 222.143 337.273C222.283 337.273 222.403 355.183 222.403 377.273C222.403 399.363 222.283 417.273 222.143 417.273Z" fill="#E0E0E0"/>
<path d="M239.406 399.553H231.426V408.583H239.406V399.553Z" fill="#FAFAFA"/>
<path d="M187.693 337.713H175.863V354.853H187.693V337.713Z" fill="#E0E0E0"/>
<path d="M187.693 400.453H175.863V417.593H187.693V400.453Z" fill="#E0E0E0"/>
<path d="M437.225 317.363H305.895V418.653H437.225V317.363Z" fill="#EBEBEB"/>
<path d="M404.315 417.933C404.175 417.933 404.055 395.363 404.055 367.513C404.055 339.663 404.175 317.093 404.315 317.093C404.455 317.093 404.575 339.663 404.575 367.513C404.575 395.363 404.465 417.933 404.315 417.933Z" fill="#E0E0E0"/>
<path d="M426.086 395.593H416.016V406.973H426.086V395.593Z" fill="#FAFAFA"/>
<path d="M360.873 317.623H345.953V339.233H360.873V317.623Z" fill="#E0E0E0"/>
<path d="M360.873 396.733H345.953V418.343H360.873V396.733Z" fill="#E0E0E0"/>
<path d="M58.5347 320.343C63.8547 317.603 70.1147 317.243 76.0147 318.223C79.1847 318.743 82.4847 319.693 84.6447 322.073C86.8047 324.453 87.2047 328.643 84.7347 330.693C83.2547 331.913 81.2047 332.093 79.2847 332.073C74.6647 332.013 69.5447 331.203 65.8547 333.983C63.7447 335.573 62.3447 338.203 59.8547 338.983C57.3647 339.763 54.6147 338.293 53.3147 336.073C52.112 333.758 51.847 331.069 52.5747 328.563C52.8691 326.827 53.56 325.182 54.5937 323.756C55.6274 322.331 56.976 321.163 58.5347 320.343Z" fill="#EBEBEB"/>
<path d="M46.353 296.833C49.603 301.473 55.923 299.943 58.853 297.103C61.783 294.263 63.023 290.163 64.143 286.253C66.723 277.303 69.313 267.913 67.403 258.803C66.9431 256.04 65.7283 253.459 63.893 251.343C62.9638 250.304 61.7792 249.526 60.4567 249.086C59.1341 248.645 57.7195 248.558 56.353 248.833C53.163 249.673 51.183 252.833 49.753 255.763C45.5368 264.522 43.3298 274.112 43.293 283.833C43.293 288.363 43.803 293.103 46.353 296.833Z" fill="#EBEBEB"/>
<path d="M37.4339 303.493C40.9639 299.303 41.6339 293.203 40.0639 287.953C38.4939 282.703 34.9439 278.243 30.8539 274.593C26.0435 270.314 20.446 267.013 14.3739 264.873C12.0205 263.922 9.48919 263.493 6.9539 263.613C5.68916 263.685 4.46126 264.066 3.37716 264.721C2.29305 265.376 1.38561 266.287 0.733896 267.373C-1.0061 270.683 0.663896 274.693 2.4639 277.973C5.6337 283.744 9.25147 289.258 13.2839 294.463C16.5339 298.643 20.2839 302.773 25.1939 304.663C30.1039 306.553 35.2839 306.333 37.9039 302.903" fill="#EBEBEB"/>
<path d="M46.1334 366.853C46.3071 366.166 46.4076 365.462 46.4334 364.753C46.5834 363.213 46.7634 361.283 46.9934 358.993C47.2801 356.16 47.7106 353.343 48.2834 350.553C49.0348 347.142 50.0615 343.798 51.3534 340.553C52.6205 337.33 54.3339 334.3 56.4434 331.553C58.168 329.319 60.3633 327.493 62.8734 326.203C64.5805 325.362 66.4096 324.795 68.2934 324.523C69.0025 324.495 69.7066 324.392 70.3934 324.213C69.6855 324.135 68.9713 324.135 68.2634 324.213C66.3072 324.361 64.3934 324.859 62.6134 325.683C59.9628 326.934 57.6385 328.782 55.8234 331.083C53.6156 333.866 51.8359 336.964 50.5434 340.273C49.253 343.557 48.2493 346.946 47.5434 350.403C46.9994 353.228 46.622 356.083 46.4134 358.953C46.2334 361.403 46.1634 363.383 46.1334 364.753C46.0597 365.451 46.0597 366.155 46.1334 366.853Z" fill="#E0E0E0"/>
<path d="M46.5355 362.433C46.5948 362.103 46.615 361.768 46.5955 361.433C46.5955 360.693 46.5955 359.763 46.5955 358.633C46.5955 356.203 46.5955 352.683 46.7155 348.343C46.9355 339.663 47.7155 330.343 49.1255 317.153C50.4955 304.763 52.3255 290.353 54.2655 280.983C54.6755 278.853 55.0955 276.933 55.4955 275.253C55.8955 273.573 56.1855 272.113 56.4955 270.943C56.8055 269.773 56.9755 268.943 57.1555 268.223C57.2533 267.898 57.3104 267.562 57.3255 267.223C57.1748 267.515 57.0606 267.824 56.9855 268.143C56.7655 268.853 56.4955 269.733 56.1655 270.823C55.8355 271.913 55.4355 273.433 55.0155 275.103C54.5955 276.773 54.1155 278.693 53.6655 280.823C51.2632 291.905 49.4573 303.108 48.2555 314.383C46.8155 327.583 46.1655 339.603 46.1055 348.303C46.1055 352.653 46.1055 356.183 46.2555 358.613C46.3255 359.743 46.3855 360.673 46.4255 361.403C46.4206 361.75 46.4575 362.095 46.5355 362.433Z" fill="#E0E0E0"/>
<path d="M46.5955 339.253C46.6717 338.278 46.6717 337.298 46.5955 336.323C46.4855 334.443 46.2255 331.733 45.6955 328.403C45.0414 324.51 44.1667 320.657 43.0755 316.863C41.8143 312.194 40.1997 307.627 38.2455 303.203C34.8997 295.051 30.0981 287.576 24.0755 281.143C23.0305 280.038 21.9148 279.003 20.7355 278.043C20.2255 277.603 19.7355 277.173 19.3155 276.833L18.0755 275.943C17.2972 275.349 16.471 274.821 15.6055 274.363C15.4655 274.553 19.0955 276.693 23.6755 281.563C29.5012 288.056 34.1751 295.496 37.4955 303.563C39.416 307.958 41.0364 312.479 42.3455 317.093C43.4451 320.852 44.3563 324.663 45.0755 328.513C45.6755 331.803 46.0755 334.513 46.2355 336.353C46.2782 337.328 46.3986 338.298 46.5955 339.253Z" fill="#E0E0E0"/>
<path d="M22.6328 376.613L24.9528 408.443H65.8428L68.1628 376.613H22.6328Z" fill="#EBEBEB"/>
<path d="M73.0336 364.073H18.6836V376.613H73.0336V364.073Z" fill="#EBEBEB"/>
<path d="M18.6836 407.223V410.693H21.2436H72.1436V407.223H18.6836Z" fill="#E0E0E0"/>
<path d="M23.7422 416.433L21.2422 410.313H70.1922L67.2722 416.433H23.7422Z" fill="#E0E0E0"/>
<path d="M67.4042 387.013C67.3532 387.12 67.2894 387.221 67.2142 387.313C67.0542 387.523 66.8442 387.793 66.6042 388.123L64.2242 391.123L64.1142 391.263L64.0142 391.123L58.1642 383.033H58.4942L52.7342 391.183L52.5542 391.443L52.3542 391.203L45.5242 383.073H45.9142L45.5442 383.553L39.4342 391.203L39.2242 391.463L39.0442 391.193L33.2742 383.043H33.6142L26.5142 391.123L26.3942 391.273L26.2942 391.103L24.0742 387.423C23.8342 387.023 23.6542 386.693 23.5042 386.423C23.4288 386.311 23.3683 386.19 23.3242 386.063C23.4178 386.159 23.4985 386.266 23.5642 386.383L24.1942 387.333L26.5242 391.003H26.3042L33.3042 382.823L33.4742 382.613L33.6342 382.833L39.4542 390.953H39.0742L45.1642 383.283C45.2942 383.123 45.4242 382.963 45.5342 382.813L45.7342 382.563L45.9342 382.803L52.7442 390.953H52.3642L58.1842 382.843L58.3542 382.603L58.5142 382.843C60.8242 386.133 62.7842 388.923 64.2442 391.023H64.0342L66.5142 388.023C66.7842 387.713 67.0042 387.463 67.1742 387.253C67.2449 387.168 67.3218 387.087 67.4042 387.013Z" fill="#F5F5F5"/>
<path d="M68.7327 376.403C68.7327 376.543 58.4827 376.663 45.8527 376.663C33.2227 376.663 22.9727 376.543 22.9727 376.403C22.9727 376.263 33.2127 376.153 45.8527 376.153C58.4927 376.153 68.7327 376.263 68.7327 376.403Z" fill="#F5F5F5"/>
<path d="M355.497 15.5542L347.117 15.5996L347.343 57.299L355.723 57.2536L355.497 15.5542Z" fill="#E0E0E0"/>
<path d="M296.219 15.6652L274.52 15.7827L274.644 38.8023L296.344 38.6849L296.219 15.6652Z" fill="#EBEBEB"/>
<path d="M317.817 15.5484L296.117 15.6658L296.242 38.6854L317.941 38.568L317.817 15.5484Z" fill="#F5F5F5"/>
<path d="M274.542 22.1531C288.969 22.2731 303.402 22.2064 317.842 21.9531C317.903 21.9531 317.962 21.9289 318.005 21.8857C318.048 21.8426 318.072 21.7841 318.072 21.7231C318.072 21.6621 318.048 21.6036 318.005 21.5605C317.962 21.5173 317.903 21.4931 317.842 21.4931C303.422 21.4131 288.962 21.4931 274.542 21.7631C274.498 21.7732 274.459 21.798 274.43 21.8334C274.402 21.8688 274.387 21.9128 274.387 21.9581C274.387 22.0034 274.402 22.0474 274.43 22.0828C274.459 22.1183 274.498 22.143 274.542 22.1531Z" fill="#E0E0E0"/>
<path d="M300.422 38.3022L260.992 38.5156L261.094 57.2753L300.523 57.062L300.422 38.3022Z" fill="#EBEBEB"/>
<path d="M339.66 38.0899L300.23 38.3033L300.332 57.063L339.761 56.8497L339.66 38.0899Z" fill="#F5F5F5"/>
<path d="M261.013 43.7531C287.203 44.0431 313.482 43.7531 339.682 43.3631C339.743 43.3631 339.802 43.3389 339.845 43.2957C339.888 43.2526 339.913 43.1941 339.913 43.1331C339.913 43.0721 339.888 43.0136 339.845 42.9705C339.802 42.9273 339.743 42.9031 339.682 42.9031C313.492 42.7631 287.203 42.7731 261.013 43.3531C260.959 43.3531 260.909 43.3742 260.871 43.4117C260.834 43.4492 260.812 43.5001 260.812 43.5531C260.812 43.6062 260.834 43.657 260.871 43.6945C260.909 43.732 260.959 43.7531 261.013 43.7531Z" fill="#E0E0E0"/>
<path d="M399.026 57.2931H246.266V64.0131H399.026V57.2931Z" fill="#E0E0E0"/>
<path d="M277.473 60.5231H271.273V83.4531H277.473V60.5231Z" fill="#E0E0E0"/>
<path d="M370.044 60.5231H363.844V83.4531H370.044V60.5231Z" fill="#E0E0E0"/>
<path d="M363.673 9.15259e-06L355.293 0.0453491L355.603 57.3945L363.983 57.3492L363.673 9.15259e-06Z" fill="#EBEBEB"/>
<path d="M376.758 10.6792L363.738 10.7496L363.99 57.2289L377.01 57.1585L376.758 10.6792Z" fill="#F5F5F5"/>
<path d="M376.676 19.6531C372.348 19.9588 368.004 19.9588 363.676 19.6531C368.004 19.3607 372.347 19.3607 376.676 19.6531Z" fill="#E0E0E0"/>
<path d="M376.672 17.7531C374.51 17.972 372.335 18.0455 370.162 17.9731C367.99 18.0451 365.815 17.9716 363.652 17.7531C367.98 17.4474 372.324 17.4474 376.652 17.7531H376.672Z" fill="#E0E0E0"/>
<path d="M376.676 50.1831C372.348 50.4888 368.004 50.4888 363.676 50.1831C368.004 49.8907 372.347 49.8907 376.676 50.1831Z" fill="#E0E0E0"/>
<path d="M376.676 48.2331C372.347 48.5256 368.004 48.5256 363.676 48.2331C368.004 47.9274 372.348 47.9274 376.676 48.2331Z" fill="#E0E0E0"/>
<path d="M370.372 43.9731C370.252 43.9731 370.152 39.2831 370.152 33.5031C370.152 27.7231 370.252 23.0231 370.372 23.0231C370.492 23.0231 370.602 27.7131 370.602 33.5031C370.602 39.2931 370.502 43.9731 370.372 43.9731Z" fill="#E0E0E0"/>
<path d="M390.994 22.1131H376.824V57.1931H390.994V22.1131Z" fill="#EBEBEB"/>
<path d="M359.355 12.2231C360.686 12.2231 361.765 11.1441 361.765 9.81311C361.765 8.4821 360.686 7.40311 359.355 7.40311C358.024 7.40311 356.945 8.4821 356.945 9.81311C356.945 11.1441 358.024 12.2231 359.355 12.2231Z" fill="#E0E0E0"/>
<path d="M360.103 16.4431H358.613V50.5631H360.103V16.4431Z" fill="#E0E0E0"/>
<path d="M441.734 418.103C441.734 418.253 345.614 418.363 227.084 418.363C108.554 418.363 12.4141 418.253 12.4141 418.103C12.4141 417.953 108.514 417.843 227.084 417.843C345.654 417.843 441.734 417.963 441.734 418.103Z" fill="#263238"/>
<path d="M126.284 51.1031C131 56.8743 133.553 64.1104 133.504 71.5631C133.454 75.7831 132.674 80.4331 135.134 83.8631C136.994 86.4631 140.394 87.7731 141.904 90.5931C143.724 93.9831 142.174 98.2731 143.294 101.953C144.874 107.173 150.994 109.363 154.624 113.433C156.171 115.233 157.254 117.385 157.777 119.7C158.3 122.015 158.247 124.423 157.624 126.713C156.962 128.994 155.766 131.084 154.135 132.809C152.504 134.534 150.484 135.845 148.244 136.633C145.852 137.576 143.184 137.533 140.824 136.513C138.374 135.293 136.824 132.783 135.624 130.333C133.214 125.513 112.044 99.4631 110.844 94.2031" fill="#263238"/>
<path d="M110.883 44.9631C102.223 43.5631 93.8835 49.3131 90.2535 57.2931C86.6235 65.2731 86.5035 74.2931 86.2535 83.0931C86.0035 91.8931 85.3635 101.013 80.8935 108.553C78.0535 113.343 73.6535 117.553 72.9635 123.063C72.3435 128.003 74.9035 132.983 74.0535 137.893C73.3135 142.173 70.0535 145.893 70.1835 150.223C70.3435 155.443 75.7135 159.373 80.9235 159.513C86.1335 159.653 91.0135 156.923 95.1035 153.683C101.767 148.392 107.099 141.615 110.673 133.893" fill="#263238"/>
<path d="M96.6341 65.6031C96.3621 63.4247 96.5305 61.2139 97.1292 59.1018C97.728 56.9897 98.745 55.0195 100.12 53.3079C101.495 51.5964 103.199 50.1785 105.133 49.1384C107.066 48.0983 109.188 47.4572 111.374 47.2531C120.104 46.4131 127.874 52.9231 129.184 61.6031C130.334 69.2131 131.314 76.8931 131.284 79.6831C131.174 88.0931 126.284 91.3631 124.284 92.3531C123.565 92.6113 122.821 92.7956 122.064 92.9031V92.9631L123.924 102.623C124.774 108.953 121.244 114.623 114.924 115.513C108.604 116.403 103.634 111.573 102.664 105.243L96.6341 65.6031Z" fill="#FFBE9D"/>
<path d="M127.461 65.2831C127.321 65.4831 126.211 64.8931 124.791 65.1031C123.371 65.3131 122.421 66.1731 122.241 66.0231C122.061 65.8731 122.241 65.6231 122.681 65.2231C123.228 64.6904 123.927 64.3409 124.681 64.2231C125.421 64.109 126.178 64.2352 126.841 64.5831C127.341 64.9031 127.531 65.2031 127.461 65.2831Z" fill="#263238"/>
<path d="M114.801 68.3631C114.661 68.5631 113.551 67.9631 112.121 68.1731C110.691 68.3831 109.761 69.2531 109.581 69.1031C109.401 68.9531 109.581 68.6931 110.021 68.3031C110.568 67.7704 111.267 67.421 112.021 67.3031C112.762 67.1976 113.517 67.327 114.181 67.6731C114.671 67.9831 114.871 68.2731 114.801 68.3631Z" fill="#263238"/>
<path d="M119.994 75.9931C120.709 75.649 121.465 75.397 122.244 75.2431C122.604 75.1531 122.934 75.0331 122.964 74.7731C122.931 74.4078 122.792 74.06 122.564 73.7731L121.074 71.1131C119.004 67.3931 117.454 64.3131 117.604 64.2231C117.754 64.1331 119.604 67.1031 121.604 70.8231C122.114 71.7431 122.604 72.6231 123.044 73.4531C123.334 73.8598 123.476 74.3543 123.444 74.8531C123.411 74.9896 123.347 75.1165 123.256 75.2241C123.166 75.3317 123.052 75.4169 122.924 75.4731C122.729 75.5584 122.524 75.6189 122.314 75.6531C121.559 75.8671 120.779 75.9814 119.994 75.9931Z" fill="#263238"/>
<path d="M121.984 92.9131C121.984 92.9131 116.554 94.1631 109.074 91.0331C109.074 91.0331 112.304 97.9831 122.494 95.5131L121.984 92.9131Z" fill="#EB996E"/>
<path d="M114.074 64.6331C113.994 65.0431 112.544 65.0631 110.904 65.5131C109.264 65.9631 107.974 66.6031 107.704 66.2931C107.584 66.1431 107.764 65.7431 108.254 65.2931C108.914 64.7288 109.693 64.3221 110.534 64.1038C111.374 63.8855 112.253 63.8613 113.104 64.0331C113.764 64.1831 114.074 64.4431 114.074 64.6331Z" fill="#263238"/>
<path d="M126.291 62.1331C126.091 62.4931 125.061 62.3031 123.881 62.4531C122.701 62.6031 121.731 62.9931 121.451 62.6831C121.331 62.5331 121.451 62.1931 121.831 61.8231C122.355 61.3582 123.013 61.0712 123.711 61.0031C124.4 60.9201 125.097 61.0492 125.711 61.3731C126.191 61.6431 126.381 61.9531 126.291 62.1331Z" fill="#263238"/>
<path d="M111.714 70.2031C111.736 70.3579 111.788 70.5067 111.868 70.641C111.948 70.7753 112.054 70.8924 112.18 70.9854C112.305 71.0784 112.448 71.1456 112.6 71.183C112.752 71.2203 112.91 71.2272 113.064 71.2031C113.214 71.1858 113.359 71.1389 113.491 71.0649C113.623 70.991 113.739 70.8916 113.832 70.7724C113.925 70.6533 113.993 70.5169 114.033 70.3711C114.073 70.2253 114.084 70.073 114.064 69.9231C114.017 69.6117 113.849 69.3316 113.596 69.1442C113.343 68.9568 113.026 68.8773 112.714 68.9231C112.563 68.9391 112.417 68.9852 112.285 69.0588C112.152 69.1323 112.036 69.2317 111.943 69.3511C111.849 69.4706 111.781 69.6075 111.742 69.7539C111.702 69.9003 111.693 70.053 111.714 70.2031Z" fill="#263238"/>
<path d="M124.323 67.4731C124.37 67.7845 124.539 68.0646 124.792 68.2521C125.045 68.4395 125.362 68.519 125.673 68.4731C125.824 68.4558 125.969 68.4089 126.101 68.3349C126.232 68.261 126.348 68.1616 126.441 68.0425C126.534 67.9233 126.603 67.7869 126.643 67.6411C126.682 67.4953 126.693 67.343 126.673 67.1931C126.626 66.8818 126.458 66.6017 126.205 66.4142C125.952 66.2268 125.635 66.1473 125.323 66.1931C125.173 66.2091 125.027 66.2552 124.894 66.3288C124.762 66.4023 124.645 66.5017 124.552 66.6212C124.459 66.7406 124.39 66.8775 124.351 67.0239C124.312 67.1703 124.302 67.3231 124.323 67.4731Z" fill="#263238"/>
<path d="M122.231 78.7531C121.839 78.631 121.416 78.6501 121.036 78.8072C120.656 78.9643 120.343 79.2494 120.151 79.6131C119.968 79.9471 119.894 80.3299 119.938 80.7081C119.983 81.0864 120.145 81.4412 120.401 81.7231C120.674 81.9909 121.032 82.1529 121.414 82.1804C121.795 82.2079 122.173 82.099 122.481 81.8731C122.867 81.5219 123.1 81.0339 123.131 80.5131C123.199 80.0357 123.085 79.5502 122.811 79.1531C122.671 78.959 122.47 78.8166 122.24 78.7479C122.011 78.6792 121.765 78.6881 121.541 78.7731" fill="#EB996E"/>
<path d="M128.073 54.7531C127.288 51.5848 125.329 48.8327 122.593 47.0531C120.353 45.4353 117.693 44.5009 114.933 44.3631C112.156 44.2436 109.445 45.2288 107.393 47.1031C105.937 48.5465 105.104 50.503 105.073 52.5531L105.233 51.1531C104.813 52.2923 104.813 53.544 105.233 54.6831C105.463 55.2931 105.743 55.9131 105.983 56.5231C106.699 58.2859 108.027 59.7311 109.723 60.5931C110.491 61.0052 111.352 61.2151 112.223 61.2031C112.659 61.1944 113.089 61.0905 113.481 60.8988C113.873 60.7071 114.218 60.4321 114.493 60.0931C115.114 59.0092 115.307 57.732 115.033 56.5131C115.689 57.7176 116.626 58.7466 117.763 59.5131C118.344 59.8843 119.035 60.0441 119.719 59.9658C120.404 59.8875 121.041 59.5758 121.523 59.0831C122.343 58.0831 122.023 56.5031 121.523 55.2631C122.297 56.4327 123.38 57.3641 124.653 57.9531C124.988 58.1452 125.359 58.2658 125.743 58.3071C126.127 58.3484 126.515 58.3096 126.883 58.1931C127.177 58.0472 127.435 57.8364 127.636 57.5765C127.837 57.3167 127.976 57.0146 128.043 56.6931C128.192 56.056 128.202 55.3945 128.073 54.7531Z" fill="#263238"/>
<path d="M120.843 57.4131C120.753 57.4131 120.773 56.2231 120.383 54.4131C119.933 52.008 118.724 49.8104 116.933 48.1431C115.948 47.248 114.761 46.6062 113.473 46.2731C112.418 46.0142 111.319 45.9869 110.253 46.1931C109.27 46.4229 108.331 46.8113 107.473 47.3431C107.473 47.3431 107.643 47.0931 108.083 46.7731C108.714 46.3314 109.423 46.0125 110.173 45.8331C111.294 45.5706 112.461 45.5706 113.583 45.8331C114.965 46.1781 116.237 46.866 117.283 47.8331C119.158 49.5691 120.382 51.8947 120.753 54.4231C120.872 55.1706 120.932 55.9262 120.933 56.6831C120.945 56.9298 120.915 57.1768 120.843 57.4131Z" fill="#455A64"/>
<path d="M212.943 174.003L174.493 158.753C174.493 158.753 154.803 132.923 155.213 132.423L141.383 147.563L161.483 174.753L208.073 185.673L216.073 183.453C214.313 174.963 212.943 174.003 212.943 174.003Z" fill="#FFBE9D"/>
<path d="M129.144 100.313L123.904 98.3131L101.284 101.183V105.183L100.634 105.263C95.7576 106.3 91.0809 108.117 86.7836 110.643C82.7584 113.1 79.56 116.705 77.5998 120.995C75.6396 125.284 75.0071 130.062 75.7836 134.713C76.7036 140.433 78.4836 147.383 81.9236 151.403C88.4936 159.093 94.4936 149.593 94.4936 149.593C94.4936 149.593 98.6136 158.993 98.3736 163.443C98.1736 167.173 96.5336 174.933 96.0036 177.353C95.9818 177.45 95.98 177.55 95.9982 177.647C96.0164 177.745 96.0543 177.838 96.1095 177.92C96.1647 178.002 96.2361 178.073 96.3193 178.126C96.4025 178.18 96.4959 178.217 96.5936 178.233L144.314 187.063L144.544 175.393L143.024 127.393L140.874 108.753C140.874 108.753 140.944 99.8531 129.144 100.313Z" fill="#FF5331"/>
<path d="M140.141 105.653L158.341 131.943L143.691 149.783L140.141 105.653Z" fill="#FF5331"/>
<path d="M144.074 160.973C144.008 160.409 143.985 159.841 144.004 159.273C144.004 158.093 144.004 156.543 143.944 154.653C143.855 149.58 143.491 144.516 142.854 139.483C142.104 133.583 140.954 128.313 140.084 124.483L139.024 119.983C138.87 119.439 138.756 118.884 138.684 118.323C138.911 118.843 139.092 119.381 139.224 119.933C139.534 120.933 139.954 122.503 140.434 124.403C141.725 129.337 142.707 134.347 143.374 139.403C144.016 144.457 144.33 149.548 144.314 154.643C144.314 156.643 144.264 158.183 144.204 159.273C144.209 159.842 144.165 160.411 144.074 160.973Z" fill="#263238"/>
<path d="M99.2741 121.003C99.2741 121.083 97.8941 121.073 95.6841 121.183C92.8005 121.34 89.9325 121.711 87.1041 122.293C84.2763 122.887 81.4956 123.685 78.7841 124.683C76.7041 125.453 75.4541 126.023 75.4141 125.943C75.6704 125.742 75.953 125.577 76.2541 125.453C76.8041 125.153 77.6241 124.773 78.6541 124.343C84.0501 122.115 89.8169 120.921 95.6541 120.823C96.7741 120.823 97.6541 120.823 98.3041 120.883C98.6317 120.873 98.9589 120.913 99.2741 121.003Z" fill="#FAFAFA"/>
<path d="M141.424 133.033C140.692 133.299 139.929 133.467 139.154 133.533C135.456 134.073 131.71 134.2 127.984 133.913C127.205 133.9 126.432 133.785 125.684 133.573C126.455 133.505 127.232 133.505 128.004 133.573C129.424 133.573 131.394 133.573 133.564 133.573C135.734 133.573 137.694 133.353 139.114 133.223C139.876 133.09 140.649 133.026 141.424 133.033Z" fill="#FAFAFA"/>
<path d="M149.773 121.143C148.67 122.417 147.35 123.483 145.873 124.293C144.478 125.236 142.922 125.914 141.283 126.293C141.223 126.153 143.283 125.293 145.603 123.813C147.923 122.333 149.673 121.023 149.773 121.143Z" fill="#FAFAFA"/>
<path d="M142.422 108.953C139.267 111.791 135.247 113.482 131.012 113.753C131.012 113.593 133.762 113.173 136.922 111.823C140.082 110.473 142.322 108.823 142.422 108.953Z" fill="#FAFAFA"/>
<path d="M143.411 153.393C143.117 153.591 142.801 153.755 142.471 153.883C141.841 154.183 140.931 154.553 139.771 154.983C136.757 156.066 133.646 156.856 130.481 157.343C127.316 157.832 124.111 158.009 120.911 157.873C119.681 157.823 118.691 157.733 118.011 157.643C117.655 157.62 117.303 157.556 116.961 157.453C116.961 157.363 118.481 157.453 120.961 157.513C127.319 157.572 133.644 156.6 139.691 154.633C141.971 153.883 143.381 153.313 143.411 153.393Z" fill="#FAFAFA"/>
<path d="M143.782 166.943C143.782 166.943 143.642 167.043 143.352 167.193L142.072 167.753C140.972 168.273 139.342 168.953 137.302 169.753C135.262 170.553 132.792 171.323 130.012 172.083C123.968 173.711 117.764 174.673 111.512 174.953C108.632 175.063 106.042 175.053 103.862 174.953C101.682 174.853 99.9316 174.693 98.7216 174.523L97.3316 174.333C97.1678 174.321 97.0064 174.288 96.8516 174.233C97.0139 174.207 97.1792 174.207 97.3416 174.233L98.7416 174.323C99.9516 174.423 101.742 174.523 103.872 174.583C106.002 174.643 108.632 174.583 111.492 174.483C114.352 174.383 117.492 174.023 120.762 173.483C124.032 172.943 127.112 172.293 129.892 171.593C132.672 170.893 135.132 170.103 137.172 169.373C139.212 168.643 140.872 168.033 141.992 167.573L143.292 167.063C143.45 167.006 143.614 166.966 143.782 166.943Z" fill="#FAFAFA"/>
<path d="M56.0723 379.533L50.6623 403.963L40.7923 422.053C40.6245 422.362 40.5218 422.702 40.4906 423.052C40.4594 423.402 40.5004 423.755 40.611 424.089C40.7216 424.422 40.8995 424.73 41.1336 424.992C41.3678 425.254 41.6532 425.466 41.9723 425.613C42.3428 425.783 42.7486 425.862 43.1557 425.843C43.5629 425.824 43.9595 425.707 44.3123 425.503C48.8923 422.863 65.7023 413.033 65.9923 411.223C66.3423 409.133 73.4123 385.833 73.4123 385.833L56.0723 379.533Z" fill="#FF5331"/>
<g opacity="0.6">
<path opacity="0.6" d="M41.9727 425.613L66.4027 409.613L66.1427 410.613C65.9289 411.505 65.4042 412.293 64.6627 412.833C62.6627 414.263 57.0927 418.103 44.3927 425.523C44.028 425.737 43.6162 425.857 43.194 425.872C42.7717 425.888 42.3521 425.799 41.9727 425.613Z" fill="white"/>
</g>
<g opacity="0.6">
<path opacity="0.6" d="M63.3325 400.523C62.9796 400.67 62.6936 400.943 62.5293 401.288C62.3651 401.633 62.3341 402.027 62.4425 402.393C62.576 402.75 62.8411 403.042 63.1833 403.209C63.5255 403.377 63.9189 403.407 64.2825 403.293C64.6602 403.137 64.966 402.845 65.1399 402.475C65.3138 402.105 65.3432 401.684 65.2225 401.293C65.0454 400.939 64.7395 400.666 64.3676 400.53C63.9957 400.395 63.586 400.406 63.2225 400.563" fill="white"/>
</g>
<path d="M50.133 416.353C49.7295 415.454 49.1634 414.637 48.463 413.943C47.6563 413.381 46.7502 412.977 45.793 412.753C45.793 412.683 46.143 412.573 46.733 412.633C47.5007 412.732 48.2233 413.052 48.813 413.553C49.4072 414.035 49.8456 414.682 50.073 415.413C50.243 415.983 50.193 416.353 50.133 416.353Z" fill="#263238"/>
<path d="M47.6023 419.183C47.4623 419.263 46.8723 418.283 45.7023 417.613C44.956 417.266 44.1877 416.969 43.4023 416.723C43.834 416.582 44.2932 416.545 44.7419 416.616C45.1905 416.688 45.6158 416.865 45.9823 417.133C47.3123 417.903 47.7423 419.153 47.6023 419.183Z" fill="#263238"/>
<path d="M54.3709 412.973C53.5206 412.029 52.5977 411.153 51.6109 410.353C50.5237 409.69 49.387 409.112 48.2109 408.623C49.5634 408.596 50.8817 409.049 51.9309 409.903C53.0877 410.599 53.9542 411.689 54.3709 412.973Z" fill="#263238"/>
<path d="M56.6441 405.683C56.5441 405.813 55.3341 404.923 53.6441 404.433C51.9541 403.943 50.4241 404.023 50.4141 403.853C51.5271 403.565 52.6973 403.583 53.801 403.905C54.9047 404.227 55.9008 404.841 56.6841 405.683H56.6441Z" fill="#263238"/>
<path d="M58.4133 398.553C57.4378 397.95 56.3848 397.482 55.2833 397.163C54.1485 397.009 52.9981 397.009 51.8633 397.163C51.8633 397.103 52.1733 396.863 52.8133 396.673C53.6545 396.445 54.5376 396.416 55.3919 396.59C56.2461 396.763 57.048 397.134 57.7333 397.673C58.2433 398.153 58.4533 398.513 58.4133 398.553Z" fill="#263238"/>
<path d="M55.6517 395.813C55.6525 395.496 55.7206 395.182 55.8517 394.893C56.1351 394.068 56.5843 393.309 57.1717 392.663C57.556 392.152 58.0967 391.78 58.7117 391.603C58.9211 391.569 59.136 391.598 59.3285 391.687C59.5211 391.776 59.6824 391.921 59.7917 392.103C59.9755 392.476 60.0147 392.903 59.9017 393.303C59.6453 394.105 59.1181 394.793 58.4102 395.249C57.7024 395.705 56.858 395.901 56.0217 395.803C55.197 395.686 54.4255 395.327 53.8044 394.771C53.1834 394.216 52.7405 393.49 52.5317 392.683C52.4837 392.478 52.4794 392.265 52.519 392.059C52.5586 391.852 52.6413 391.656 52.7617 391.483C52.8999 391.322 53.0858 391.209 53.2926 391.16C53.4994 391.112 53.7162 391.13 53.9117 391.213C54.477 391.495 54.9593 391.919 55.3117 392.443C55.8417 393.137 56.2446 393.919 56.5017 394.753C56.6236 395.051 56.6815 395.371 56.6717 395.693C56.2686 394.615 55.7056 393.604 55.0017 392.693C54.674 392.266 54.2488 391.923 53.7617 391.693C53.6546 391.647 53.5353 391.636 53.4217 391.663C53.3082 391.69 53.2064 391.753 53.1317 391.843C53.0618 391.961 53.0169 392.092 52.9997 392.228C52.9825 392.364 52.9934 392.502 53.0317 392.633C53.2403 393.312 53.6363 393.918 54.1741 394.381C54.7119 394.845 55.3697 395.147 56.0717 395.253C56.779 395.335 57.4933 395.175 58.0981 394.799C58.7028 394.423 59.1623 393.854 59.4017 393.183C59.4986 392.912 59.4986 392.615 59.4017 392.343C59.345 392.241 59.2576 392.158 59.1518 392.108C59.0459 392.058 58.927 392.042 58.8117 392.063C58.2906 392.206 57.8262 392.507 57.4817 392.923C56.7146 393.778 56.096 394.754 55.6517 395.813Z" fill="#263238"/>
<g opacity="0.3">
<path opacity="0.3" d="M55.4122 382.183L54.2422 387.783L71.9322 390.723L73.4122 385.833L56.0422 379.533L55.4122 382.183Z" fill="black"/>
</g>
<path d="M135.071 388.573L133.611 408.093C133.611 408.093 152.971 416.093 153.051 419.773L115.051 418.303L116.051 387.783L135.071 388.573Z" fill="#FF5331"/>
<g opacity="0.6">
<path opacity="0.6" d="M121.961 405.993C121.592 406.092 121.272 406.323 121.062 406.642C120.852 406.96 120.766 407.345 120.821 407.723C120.905 408.095 121.128 408.421 121.443 408.634C121.759 408.848 122.144 408.933 122.521 408.873C122.913 408.769 123.253 408.524 123.474 408.184C123.696 407.844 123.784 407.434 123.721 407.033C123.594 406.653 123.326 406.337 122.972 406.151C122.618 405.964 122.205 405.922 121.821 406.033" fill="white"/>
</g>
<g opacity="0.6">
<path opacity="0.6" d="M115.074 418.303L115.294 415.223L151.644 417.753C151.644 417.753 153.314 418.553 153.074 419.753L115.074 418.303Z" fill="white"/>
</g>
<path d="M134.251 407.923C134.251 408.113 133.311 408.163 132.381 408.723C131.451 409.283 130.931 410.043 130.761 409.963C130.591 409.883 130.911 408.823 132.051 408.163C133.191 407.503 134.301 407.753 134.251 407.923Z" fill="#263238"/>
<path d="M138.172 409.753C138.172 409.943 137.392 410.223 136.732 410.983C136.072 411.743 135.862 412.563 135.672 412.553C135.482 412.543 135.412 411.483 136.252 410.553C137.092 409.623 138.172 409.553 138.172 409.753Z" fill="#263238"/>
<path d="M140.251 414.583C140.081 414.583 139.861 413.673 140.371 412.683C140.881 411.693 141.771 411.313 141.841 411.473C141.911 411.633 141.361 412.153 140.951 412.973C140.541 413.793 140.431 414.573 140.251 414.583Z" fill="#263238"/>
<path d="M134.074 403.443C133.994 403.603 133.154 403.313 132.074 403.343C130.994 403.373 130.194 403.673 130.074 403.513C129.954 403.353 130.794 402.723 132.074 402.703C133.354 402.683 134.194 403.303 134.074 403.443Z" fill="#263238"/>
<g opacity="0.3">
<path opacity="0.3" d="M134.801 392.443L134.541 395.923L115.891 395.023L116.021 391.003L134.801 392.443Z" fill="black"/>
</g>
<path d="M134.321 399.493C133.693 399.645 133.035 399.617 132.421 399.413C131.728 399.269 131.056 399.037 130.421 398.723C130.051 398.541 129.693 398.334 129.351 398.103C129.142 397.975 128.954 397.816 128.791 397.633C128.681 397.49 128.621 397.314 128.621 397.133C128.621 396.952 128.681 396.776 128.791 396.633C128.888 396.507 129.014 396.405 129.159 396.337C129.303 396.27 129.462 396.237 129.621 396.243C129.862 396.253 130.101 396.293 130.331 396.363C130.731 396.48 131.12 396.634 131.491 396.823C132.123 397.132 132.7 397.54 133.201 398.033C134.051 398.883 134.321 399.593 134.261 399.623C134.201 399.653 133.771 399.083 132.901 398.373C132.39 397.974 131.833 397.638 131.241 397.373C130.888 397.227 130.528 397.1 130.161 396.993C129.761 396.873 129.421 396.863 129.311 396.993C129.201 397.123 129.311 397.093 129.311 397.213C129.431 397.345 129.569 397.46 129.721 397.553C130.042 397.776 130.376 397.98 130.721 398.163C131.298 398.481 131.904 398.742 132.531 398.943C133.14 399.084 133.738 399.267 134.321 399.493Z" fill="#263238"/>
<path d="M134.073 399.753C133.741 399.193 133.591 398.543 133.643 397.893C133.647 397.19 133.762 396.491 133.983 395.823C134.127 395.432 134.304 395.054 134.513 394.693C134.625 394.446 134.799 394.231 135.018 394.07C135.237 393.909 135.493 393.807 135.763 393.773C135.934 393.784 136.098 393.844 136.236 393.945C136.374 394.046 136.481 394.184 136.543 394.343C136.63 394.568 136.684 394.803 136.703 395.043C136.769 395.467 136.769 395.899 136.703 396.323C136.569 397.03 136.264 397.693 135.813 398.253C135.033 399.253 134.253 399.403 134.233 399.343C134.213 399.283 134.833 398.913 135.443 397.983C135.793 397.453 136.022 396.852 136.113 396.223C136.164 395.858 136.164 395.488 136.113 395.123C136.063 394.723 135.923 394.383 135.773 394.423C135.623 394.463 135.253 394.703 135.083 395.023C134.888 395.343 134.717 395.677 134.573 396.023C134.342 396.627 134.194 397.259 134.133 397.903C134.003 399.023 134.173 399.753 134.073 399.753Z" fill="#263238"/>
<path d="M95.7908 178.053C95.7908 178.053 89.7908 178.323 85.7908 198.843C81.7908 219.363 51.3008 385.633 51.3008 385.633L73.4108 385.833L115.071 227.753L112.301 390.753L134.761 392.473C134.761 392.473 151.611 212.183 151.761 201.693C151.961 188.613 144.451 175.383 144.451 175.383L95.7908 178.053Z" fill="#263238"/>
<path d="M126.184 176.303C126.324 176.303 124.024 188.053 121.054 202.483C118.084 216.913 115.564 228.593 115.424 228.563C115.284 228.533 117.574 216.813 120.544 202.383C123.514 187.953 126.074 176.273 126.184 176.303Z" fill="#455A64"/>
<path d="M129.621 179.233C129.621 179.173 130.221 178.993 130.911 179.603C131.107 179.781 131.262 179.999 131.366 180.242C131.469 180.486 131.519 180.749 131.511 181.013C131.486 181.347 131.366 181.668 131.166 181.937C130.966 182.206 130.694 182.413 130.381 182.533C130.076 182.672 129.738 182.722 129.405 182.678C129.073 182.633 128.759 182.497 128.501 182.283C128.308 182.102 128.155 181.881 128.053 181.637C127.952 181.392 127.903 181.128 127.911 180.863C127.911 179.943 128.531 179.623 128.541 179.683C128.372 180.05 128.284 180.449 128.281 180.853C128.294 181.056 128.348 181.255 128.439 181.437C128.53 181.619 128.657 181.781 128.811 181.913C129.008 182.049 129.237 182.133 129.475 182.158C129.713 182.183 129.954 182.147 130.175 182.055C130.396 181.962 130.59 181.815 130.74 181.628C130.889 181.441 130.99 181.219 131.031 180.983C131.046 180.781 131.02 180.577 130.954 180.385C130.889 180.192 130.786 180.015 130.651 179.863C130.161 179.293 129.611 179.313 129.621 179.233Z" fill="#455A64"/>
<path d="M128.672 187.353C128.672 187.293 129.292 187.353 129.672 188.183C129.769 188.42 129.813 188.675 129.801 188.931C129.789 189.186 129.721 189.436 129.602 189.663C129.43 189.933 129.188 190.15 128.902 190.293C128.616 190.435 128.296 190.497 127.977 190.471C127.659 190.445 127.353 190.333 127.093 190.147C126.833 189.96 126.629 189.707 126.502 189.413C126.423 189.172 126.396 188.917 126.426 188.664C126.455 188.412 126.539 188.169 126.672 187.953C127.142 187.203 127.782 187.223 127.762 187.283C127.742 187.343 127.282 187.483 126.992 188.123C126.846 188.482 126.846 188.884 126.992 189.243C127.097 189.442 127.25 189.61 127.437 189.734C127.624 189.857 127.839 189.932 128.063 189.95C128.286 189.967 128.511 189.929 128.715 189.837C128.92 189.745 129.098 189.602 129.232 189.423C129.421 189.081 129.468 188.679 129.362 188.303C129.072 187.623 128.622 187.423 128.672 187.353Z" fill="#455A64"/>
<path d="M107.481 179.433C107.44 179.777 107.353 180.113 107.221 180.433C106.909 181.349 106.517 182.235 106.051 183.083C104.525 185.912 102.322 188.318 99.6377 190.086C96.9535 191.854 93.8727 192.928 90.6712 193.213C89.7097 193.297 88.7428 193.297 87.7812 193.213C87.4425 193.202 87.1065 193.149 86.7812 193.053C86.7812 192.953 88.2913 193.123 90.6813 192.823C93.7962 192.445 96.781 191.35 99.401 189.623C102.021 187.897 104.205 185.586 105.781 182.873C106.951 180.853 107.391 179.403 107.481 179.433Z" fill="#455A64"/>
<path d="M150.5 194.023C150.5 194.023 150.24 193.903 149.83 193.623C149.258 193.211 148.722 192.749 148.23 192.243C146.586 190.578 145.303 188.592 144.461 186.408C143.62 184.225 143.238 181.891 143.34 179.553C143.363 178.849 143.454 178.15 143.61 177.463C143.72 176.973 143.79 176.713 143.83 176.723C143.87 176.733 143.71 177.813 143.71 179.563C143.712 184.157 145.419 188.586 148.5 191.993C149.67 193.283 150.55 193.943 150.5 194.023Z" fill="#455A64"/>
<path d="M228.072 194.603C228.402 193.803 228.312 194.123 223.012 190.603C223.012 190.603 230.612 195.603 229.822 193.223C229.139 192.322 228.303 191.547 227.352 190.933C229.352 192.113 230.512 192.243 230.862 191.763C231.462 190.933 227.112 187.763 225.042 186.333C226.935 187.687 228.92 188.907 230.982 189.983C232.212 190.363 231.622 188.923 230.792 187.873C229.962 186.823 223.522 180.623 221.792 178.773C221.628 178.632 221.495 178.457 221.405 178.261C221.314 178.064 221.267 177.85 221.267 177.633C221.267 177.416 221.314 177.202 221.405 177.006C221.495 176.809 221.628 176.634 221.792 176.493C224.892 174.493 226.252 171.303 226.212 170.253C226.178 170.017 226.069 169.797 225.903 169.626C225.736 169.455 225.519 169.342 225.283 169.302C225.048 169.262 224.806 169.298 224.592 169.404C224.378 169.51 224.203 169.681 224.092 169.893C223.31 170.866 222.398 171.727 221.382 172.453C220.595 173.067 219.709 173.544 218.762 173.863C217.662 174.223 212.252 173.923 211.092 173.333L207.402 185.843C207.402 185.843 220.792 192.103 223.332 193.323C226.452 194.803 227.842 195.213 228.072 194.603Z" fill="#FFBE9D"/>
<path d="M220.603 188.753C220.493 188.903 222.233 190.173 224.483 191.603C226.733 193.033 228.623 194.063 228.713 193.913C228.803 193.763 227.063 192.483 224.823 191.063C222.583 189.643 220.703 188.563 220.603 188.753Z" fill="#EB996E"/>
<path d="M221.863 186.303C221.763 186.453 223.543 187.913 225.863 189.573C228.183 191.233 230.103 192.463 230.203 192.323C230.303 192.183 228.533 190.713 226.203 189.053C223.873 187.393 221.973 186.163 221.863 186.303Z" fill="#EB996E"/>
<path d="M223.192 183.823C223.092 183.963 224.752 185.383 226.902 186.983C229.052 188.583 230.902 189.763 230.982 189.623C231.062 189.483 229.432 188.063 227.282 186.463C225.132 184.863 223.302 183.683 223.192 183.823Z" fill="#EB996E"/>
<path d="M87.0025 138.513L96.8225 139.053C97.5181 141.795 98.4482 144.471 99.6025 147.053C107.513 133.333 113.602 114.943 115.162 107.553C114.942 106.826 114.673 106.006 114.353 105.093C114.113 103.712 114.154 102.298 114.472 100.933C114.742 99.2931 115.202 97.0731 115.332 96.0531C115.762 92.9331 116.262 92.4331 117.332 92.7931C118.812 93.2731 116.723 101.563 117.933 101.743C118.593 101.833 119.383 98.9931 119.623 96.6631C119.863 94.3331 120.903 87.1731 121.673 86.6631C122.803 85.9631 123.782 87.0731 123.502 89.3931C123.222 91.7131 122.852 98.7431 124.082 98.8331C125.312 98.9231 126.313 87.0431 126.313 87.0431C126.313 87.0431 126.123 84.4631 127.543 84.5231C130.113 84.6331 128.113 97.1631 127.893 98.3531C127.733 99.1731 129.072 99.3531 129.192 98.4331C129.312 97.5131 129.933 86.5431 132.543 86.6331C134.543 86.7031 130.993 96.9531 132.123 99.3331C133.253 101.713 134.033 91.2631 135.953 91.4031C136.663 91.4631 137.193 91.6031 135.882 97.5131C134.604 102.213 133.072 106.839 131.293 111.373C128.293 127.773 114.903 180.233 93.9825 170.633C82.2825 165.263 76.8125 138.633 76.8125 138.633L87.0025 138.513Z" fill="#FFBE9D"/>
<path d="M131.312 111.463C131.33 111.339 131.363 111.218 131.412 111.103C131.502 110.843 131.612 110.503 131.762 110.103C132.092 109.153 132.542 107.833 133.132 106.103C133.722 104.373 134.432 102.273 135.132 99.7931C135.492 98.5631 135.792 97.2231 136.062 95.7931C136.202 95.0731 136.332 94.3331 136.422 93.5731C136.447 93.1969 136.447 92.8194 136.422 92.4431C136.422 92.0531 136.332 91.7331 136.022 91.7231C135.712 91.7131 135.492 91.9031 135.272 92.2331C135.073 92.5862 134.909 92.958 134.782 93.3431C134.502 94.1331 134.282 94.9731 134.062 95.8231C133.842 96.6731 133.642 97.5631 133.382 98.4631C133.269 98.9561 133.066 99.424 132.782 99.8431C132.711 99.9252 132.617 99.9844 132.512 100.013C132.446 100.028 132.378 100.027 132.312 100.011C132.246 99.9959 132.185 99.9657 132.132 99.9231C132.017 99.8177 131.923 99.6924 131.852 99.5531C131.747 99.3075 131.676 99.0483 131.642 98.7831C131.597 96.7661 131.798 94.7511 132.242 92.7831C132.412 91.7831 132.592 90.7831 132.722 89.7831C132.782 89.2731 132.842 88.7831 132.852 88.2431C132.862 87.7031 132.782 87.1331 132.572 87.0431C132.362 86.9531 131.852 87.2331 131.572 87.6531C131.296 88.0967 131.078 88.574 130.922 89.0731C130.581 90.1177 130.324 91.1877 130.152 92.2731C129.962 93.3731 129.812 94.4931 129.682 95.6331C129.632 96.2031 129.572 96.7731 129.522 97.3531L129.442 98.2231C129.453 98.4089 129.423 98.5948 129.354 98.7676C129.285 98.9404 129.178 99.0959 129.042 99.2231C128.871 99.3483 128.665 99.4157 128.452 99.4157C128.24 99.4157 128.034 99.3483 127.862 99.2231C127.765 99.159 127.683 99.0751 127.621 98.9768C127.559 98.8786 127.519 98.7682 127.502 98.6531C127.487 98.547 127.487 98.4392 127.502 98.3331V98.1231L127.772 96.3731C127.942 95.1931 128.082 94.0131 128.192 92.8131C128.302 91.6131 128.392 90.4031 128.412 89.1931C128.471 87.9951 128.35 86.7951 128.052 85.6331C127.983 85.3382 127.805 85.0808 127.552 84.9131C127.432 84.8744 127.302 84.8748 127.182 84.9143C127.061 84.9538 126.957 85.0304 126.882 85.1331C126.559 85.7251 126.426 86.4027 126.502 87.0731C126.282 89.4231 126.032 91.7331 125.692 94.0031C125.522 95.1331 125.332 96.2631 125.052 97.3731C124.972 97.6431 124.892 97.9231 124.792 98.2031C124.697 98.5425 124.498 98.8433 124.222 99.0631C124.101 99.123 123.962 99.1397 123.829 99.1106C123.697 99.0816 123.578 99.0084 123.492 98.9031C123.37 98.7749 123.278 98.6212 123.222 98.4531C123.115 98.1757 123.037 97.8873 122.992 97.5931C122.758 95.417 122.738 93.2231 122.932 91.0431C123.08 90.0269 123.137 88.9995 123.102 87.9731C123.07 87.535 122.869 87.1265 122.542 86.8331C122.466 86.7854 122.38 86.7537 122.291 86.7399C122.201 86.7262 122.11 86.7307 122.022 86.7531C121.929 86.7847 121.838 86.8248 121.752 86.8731C121.662 86.9531 121.672 86.8731 121.612 87.0431C121.251 87.9424 120.986 88.8777 120.822 89.8331C120.622 90.8331 120.452 91.7431 120.302 92.6831C120.152 93.6231 120.012 94.5431 119.892 95.4631C119.772 96.3831 119.712 97.2831 119.532 98.1831C119.377 99.0624 119.143 99.9259 118.832 100.763C118.75 100.976 118.653 101.183 118.542 101.383C118.402 101.573 118.322 101.813 117.942 101.933C117.845 101.951 117.745 101.94 117.654 101.9C117.563 101.861 117.486 101.796 117.432 101.713C117.362 101.598 117.309 101.473 117.272 101.343C117.227 101.126 117.201 100.905 117.192 100.683C117.192 98.9731 117.422 97.4131 117.512 95.9031C117.578 95.1812 117.578 94.455 117.512 93.7331C117.512 93.4131 117.362 93.0331 117.182 92.9631C117.056 92.9013 116.918 92.8692 116.777 92.8692C116.637 92.8692 116.498 92.9013 116.372 92.9631C115.953 93.4139 115.693 93.9901 115.632 94.6031C115.482 95.2131 115.422 95.8331 115.312 96.4231C114.892 98.7831 114.452 100.823 114.242 102.483C114.144 103.213 114.144 103.953 114.242 104.683C114.382 105.283 114.592 105.823 114.702 106.243C114.812 106.663 114.922 106.963 114.992 107.243C115.03 107.35 115.056 107.461 115.072 107.573C115.012 107.476 114.965 107.372 114.932 107.263L114.592 106.263C114.452 105.833 114.242 105.353 114.072 104.693C113.965 103.944 113.965 103.183 114.072 102.433C114.262 100.743 114.662 98.7231 115.072 96.3531C115.182 95.7631 115.242 95.1431 115.372 94.5031C115.444 94.1651 115.534 93.8313 115.642 93.5031C115.742 93.1394 115.96 92.8193 116.262 92.5931C116.444 92.4968 116.647 92.4464 116.852 92.4464C117.058 92.4464 117.261 92.4968 117.442 92.5931C117.638 92.7164 117.799 92.8878 117.909 93.0909C118.019 93.294 118.075 93.522 118.072 93.7531C118.142 94.5048 118.142 95.2614 118.072 96.0131C118.002 97.5331 117.762 99.1231 117.802 100.743C117.81 100.935 117.833 101.125 117.872 101.313C117.872 101.503 118.012 101.583 117.992 101.543C117.972 101.503 118.182 101.383 118.262 101.223C118.361 101.046 118.448 100.862 118.522 100.673C118.819 99.8625 119.036 99.0253 119.172 98.1731C119.342 97.3031 119.402 96.4031 119.522 95.4731C119.642 94.5431 119.762 93.6231 119.912 92.6731C120.062 91.7231 120.232 90.7731 120.422 89.8031C120.585 88.7901 120.867 87.7999 121.262 86.8531C121.342 86.6943 121.463 86.5597 121.612 86.4631C121.745 86.3902 121.886 86.3332 122.032 86.2931C122.2 86.2452 122.376 86.2338 122.549 86.2596C122.721 86.2855 122.886 86.3481 123.032 86.4431C123.264 86.6274 123.456 86.8574 123.595 87.1189C123.735 87.3804 123.819 87.6678 123.842 87.9631C123.917 88.5072 123.917 89.059 123.842 89.6031C123.792 90.1131 123.742 90.6031 123.712 91.1631C123.518 93.2931 123.538 95.4372 123.772 97.5631C123.815 97.8156 123.882 98.0634 123.972 98.3031C124.002 98.3999 124.054 98.4887 124.122 98.5631C124.122 98.5631 124.122 98.5631 124.172 98.5631C124.172 98.7931 124.172 98.5631 124.172 98.6531C124.172 98.7431 124.172 98.6531 124.172 98.5731C124.297 98.406 124.395 98.2205 124.462 98.0231C124.556 97.7765 124.636 97.5165 124.702 97.2431C124.972 96.1831 125.152 95.0631 125.322 93.9431C125.662 91.6931 125.912 89.3831 126.122 87.0431V87.0931C126.033 86.2688 126.212 85.4379 126.632 84.7231C126.793 84.5188 127.013 84.3696 127.262 84.2961C127.511 84.2226 127.777 84.2286 128.022 84.3131C128.232 84.4295 128.416 84.5868 128.564 84.7758C128.712 84.9648 128.82 85.1815 128.882 85.4131C129.203 86.6428 129.334 87.9139 129.272 89.1831C129.272 90.4231 129.162 91.6431 129.052 92.8531C128.942 94.0631 128.792 95.2531 128.622 96.4331C128.532 97.0331 128.442 97.6131 128.352 98.2031C128.272 98.5731 128.292 98.5831 128.352 98.6931C128.422 98.74 128.504 98.765 128.587 98.765C128.671 98.765 128.753 98.74 128.822 98.6931C128.942 98.6031 128.962 98.4331 128.992 98.1031L129.062 97.2331L129.242 95.5031C129.362 94.3631 129.522 93.2231 129.712 92.1131C129.897 90.9982 130.165 89.8985 130.512 88.8231C130.694 88.2796 130.939 87.7593 131.242 87.2731C131.408 87.0111 131.626 86.7863 131.882 86.6131C132.025 86.51 132.19 86.4425 132.364 86.4164C132.538 86.3903 132.716 86.4063 132.882 86.4631C133.036 86.5576 133.165 86.6862 133.26 86.8388C133.356 86.9914 133.415 87.164 133.432 87.3431C133.474 87.6245 133.49 87.9089 133.482 88.1931C133.482 88.7431 133.412 89.2731 133.352 89.8031C133.212 90.8031 133.022 91.8631 132.842 92.8731C132.413 94.7727 132.205 96.7157 132.222 98.6631C132.251 98.8722 132.304 99.0771 132.382 99.2731C132.419 99.3441 132.462 99.4111 132.512 99.4731C132.512 99.4731 132.512 99.4731 132.512 99.4031C132.737 99.0417 132.902 98.6467 133.002 98.2331C133.262 97.3631 133.472 96.4831 133.702 95.6231C133.909 94.7674 134.159 93.923 134.452 93.0931C134.591 92.6821 134.772 92.2866 134.992 91.9131C135.112 91.7096 135.268 91.5299 135.452 91.3831C135.553 91.2959 135.673 91.2342 135.802 91.2031C135.932 91.1829 136.063 91.1829 136.192 91.2031C136.329 91.2167 136.459 91.2666 136.57 91.3474C136.681 91.4283 136.768 91.5373 136.822 91.6631C136.906 91.8733 136.95 92.097 136.952 92.3231C136.96 92.7277 136.937 93.1322 136.882 93.5331C136.792 94.3131 136.642 95.0531 136.502 95.7831C136.212 97.2131 135.892 98.5731 135.502 99.7831C134.752 102.263 134.002 104.363 133.392 106.073C132.782 107.783 132.262 109.073 131.912 109.993C131.742 110.413 131.602 110.743 131.502 110.993C131.458 111.157 131.394 111.314 131.312 111.463Z" fill="#EB996E"/>
<path d="M76.7227 139.643C78.6227 146.353 82.3427 156.703 86.3327 167.643C86.4584 167.996 86.686 168.303 86.9865 168.526C87.287 168.749 87.647 168.878 88.0208 168.896C88.3946 168.914 88.7653 168.821 89.0861 168.628C89.4069 168.435 89.6632 168.152 89.8227 167.813L99.6027 147.123C99.6027 147.123 97.2427 130.123 97.4427 130.733C97.6427 131.343 77.2627 132.933 77.2627 132.933L76.7227 139.643Z" fill="#FF5331"/>
<path d="M98.7632 136.313C98.7632 136.393 97.5432 136.753 95.6132 137.493C93.0909 138.451 90.6609 139.635 88.3532 141.033C86.0486 142.437 83.8734 144.044 81.8532 145.833C80.3032 147.203 79.4132 148.143 79.3532 148.083C79.2932 148.023 79.5232 147.803 79.9032 147.353C80.4389 146.728 81.0063 146.13 81.6032 145.563C83.5744 143.665 85.7473 141.988 88.0832 140.563C90.4198 139.155 92.9007 138.002 95.4832 137.123C96.2639 136.854 97.0583 136.627 97.8632 136.443C98.1544 136.352 98.4582 136.308 98.7632 136.313Z" fill="#FAFAFA"/>
<path d="M102.643 141.473C102.007 140.832 101.456 140.113 101.003 139.333C99.8348 137.512 98.8309 135.591 98.0027 133.593C97.1739 131.589 96.5279 129.514 96.0727 127.393C95.8396 126.526 95.7219 125.631 95.7227 124.733C96.0209 125.572 96.2582 126.43 96.4327 127.303C96.9684 129.374 97.6364 131.408 98.4327 133.393C99.2645 135.368 100.22 137.288 101.293 139.143C101.792 139.89 102.243 140.668 102.643 141.473Z" fill="#263238"/>
<path d="M109.162 49.8531C107.465 52.6493 106.413 55.7886 106.083 59.0425C105.753 62.2964 106.152 65.583 107.252 68.6631C108.252 71.4131 109.852 74.1231 109.562 77.0431C109.272 79.9631 106.992 82.8531 107.792 85.7331C108.272 87.4431 109.732 88.7331 110.302 90.3931C110.952 92.3931 110.302 94.5031 109.952 96.5531C109.152 101.793 110.832 107.063 111.242 112.343C111.652 117.623 110.242 123.813 105.522 126.113C104.092 126.813 102.222 127.013 101.032 125.943C99.5116 124.593 99.9316 122.153 100.352 120.153C104.492 100.153 91.7016 80.6331 94.6216 60.3931C95.0916 57.1531 96.9016 51.6531 99.2316 49.3931C101.562 47.1331 108.032 47.3931 110.232 49.7931" fill="#263238"/>
<path d="M89.4609 107.873C89.4609 107.873 90.0709 107.153 90.9709 105.733C92.2339 103.728 93.1186 101.508 93.5809 99.1831C93.8827 97.5819 93.9868 95.9497 93.8909 94.3231C93.716 92.4318 93.6459 90.5322 93.6809 88.6331C93.7406 87.5931 93.9321 86.5649 94.2509 85.5731C94.6164 84.5515 95.0785 83.567 95.6309 82.6331C96.7509 80.7431 98.1609 78.9831 99.4609 77.1031C100.796 75.3263 101.724 73.2781 102.181 71.1031C102.403 69.0545 102.284 66.9832 101.831 64.9731C101.453 63.1049 101.305 61.1973 101.391 59.2931C101.51 57.6298 101.846 55.9892 102.391 54.4131C103.155 52.1261 104.357 50.01 105.931 48.1831C106.349 47.6865 106.804 47.2219 107.291 46.7931C107.445 46.6285 107.62 46.484 107.811 46.3631C107.811 46.3631 107.141 47.0131 106.081 48.3631C103.556 51.4969 102.08 55.3448 101.861 59.3631C101.794 61.2362 101.959 63.1104 102.351 64.9431C102.828 67.0073 102.956 69.1366 102.731 71.2431C102.257 73.4788 101.301 75.5843 99.9309 77.4131C98.6209 79.3231 97.2109 81.0731 96.1109 82.9131C95.5699 83.8123 95.1209 84.7638 94.7709 85.7531C94.4546 86.7044 94.263 87.6926 94.2009 88.6931C94.1567 90.5713 94.2101 92.4505 94.3609 94.3231C94.4403 95.9825 94.3127 97.6453 93.9809 99.2731C93.4798 101.629 92.5291 103.867 91.1809 105.863C90.8159 106.403 90.415 106.917 89.9809 107.403C89.8253 107.578 89.651 107.736 89.4609 107.873Z" fill="#455A64"/>
<path d="M79.9805 109.363C80.061 109.13 80.1649 108.905 80.2905 108.693C80.5405 108.223 80.8605 107.603 81.2905 106.823C82.1305 105.193 83.3805 102.823 84.6105 99.8231C86.115 96.3193 86.9495 92.5644 87.0705 88.7531C87.071 87.655 86.9874 86.5585 86.8205 85.4731C86.6505 84.3531 86.3905 83.2231 86.2205 82.0431C86.0125 80.8226 86.0397 79.5735 86.3005 78.3631C86.6386 77.1205 87.334 76.0044 88.3005 75.1531C90.1805 73.4431 92.4505 72.3231 93.6305 70.3131C94.6528 68.3201 95.2552 66.1384 95.4005 63.9031C95.6121 61.854 96.0756 59.8388 96.7805 57.9031C98.3655 53.7476 101.19 50.1798 104.87 47.6831C105.457 47.2882 106.068 46.9308 106.7 46.6131C106.914 46.4853 107.142 46.3846 107.38 46.3131C107.38 46.3131 106.48 46.7931 104.99 47.8531C102.89 49.3517 101.072 51.2104 99.6205 53.3431C98.6136 54.805 97.7939 56.3874 97.1805 58.0531C96.5066 59.9933 96.0701 62.008 95.8805 64.0531C95.5805 66.1831 95.3405 68.5631 94.0605 70.6731C92.7805 72.7831 90.4405 73.9831 88.6505 75.6731C87.7382 76.4647 87.0806 77.5085 86.7605 78.6731C86.5174 79.8183 86.4936 80.9991 86.6905 82.1531C86.8505 83.3031 87.1005 84.4431 87.2705 85.5731C87.4435 86.6845 87.5237 87.8084 87.5105 88.9331C87.3746 92.8143 86.4954 96.6333 84.9205 100.183C83.8975 102.582 82.7356 104.919 81.4405 107.183L80.3805 108.753C80.2691 108.97 80.135 109.175 79.9805 109.363Z" fill="#455A64"/>
<path d="M410.845 391.933C410.892 391.788 410.952 391.647 411.025 391.513C411.165 391.213 411.355 390.813 411.585 390.303C412.281 388.741 412.84 387.122 413.255 385.463C414.355 381.163 414.745 374.593 413.115 366.793C412.23 362.539 411.071 358.347 409.645 354.243C408.185 349.793 406.475 345.073 405.085 339.963C403.516 334.634 402.757 329.098 402.835 323.543C403.045 317.733 404.765 311.943 406.655 306.163C408.545 300.383 410.495 294.753 411.075 289.053C411.72 283.587 410.621 278.057 407.935 273.253C405.435 268.643 402.285 264.693 399.935 260.613C397.735 256.822 396.114 252.723 395.125 248.453C393.706 242.271 393.601 235.859 394.815 229.633C395.258 227.355 395.928 225.127 396.815 222.983C396.788 223.133 396.748 223.28 396.695 223.423L396.295 224.693C395.955 225.813 395.505 227.493 395.075 229.693C393.958 235.891 394.124 242.252 395.565 248.383C396.568 252.601 398.196 256.646 400.395 260.383C402.745 264.383 405.905 268.383 408.465 273.013C411.217 277.914 412.347 283.56 411.695 289.143C411.105 294.923 409.145 300.613 407.255 306.383C405.365 312.153 403.665 317.883 403.455 323.593C403.366 329.093 404.108 334.575 405.655 339.853C407.025 344.933 408.705 349.653 410.155 354.123C411.567 358.25 412.703 362.466 413.555 366.743C415.145 374.603 414.695 381.243 413.555 385.553C413.109 387.215 412.51 388.832 411.765 390.383L411.145 391.573C411.059 391.704 410.959 391.825 410.845 391.933Z" fill="#263238"/>
<path d="M403.136 264.643C403.136 264.643 398.356 249.333 406.936 240.373C407.003 240.301 407.088 240.249 407.182 240.222C407.277 240.196 407.377 240.196 407.471 240.223C407.566 240.25 407.651 240.303 407.717 240.375C407.783 240.447 407.828 240.537 407.846 240.633C408.306 243.163 408.876 250.863 403.136 264.643Z" fill="#FF5331"/>
<path d="M406.005 245.473C405.99 246.421 405.883 247.366 405.685 248.293C405.365 250.243 404.995 252.523 404.595 255.043C404.195 257.563 403.825 259.853 403.515 261.793C403.428 262.739 403.26 263.676 403.015 264.593C402.921 263.647 402.941 262.694 403.075 261.753C403.235 260.003 403.545 257.603 403.975 254.963C404.405 252.323 404.875 249.963 405.245 248.233C405.391 247.287 405.646 246.361 406.005 245.473Z" fill="#263238"/>
<path d="M408.754 300.753C408.754 300.753 411.684 284.983 423.464 281.083C423.557 281.051 423.657 281.045 423.753 281.066C423.849 281.087 423.937 281.135 424.008 281.203C424.078 281.272 424.128 281.358 424.152 281.454C424.176 281.549 424.174 281.649 424.144 281.743C423.364 284.173 420.274 291.243 408.754 300.753Z" fill="#FF5331"/>
<path d="M420.256 285.133C419.799 285.966 419.263 286.753 418.656 287.483L414.526 292.933L410.426 298.403C409.91 299.197 409.324 299.943 408.676 300.633C409.041 299.753 409.511 298.92 410.076 298.153C411.076 296.683 412.436 294.703 414.076 292.573C415.716 290.443 417.206 288.573 418.336 287.213C418.897 286.451 419.541 285.754 420.256 285.133Z" fill="#263238"/>
<path d="M405.577 340.283C405.577 340.283 403.797 324.343 413.937 317.193C414.015 317.132 414.109 317.094 414.208 317.085C414.307 317.076 414.406 317.095 414.495 317.14C414.583 317.185 414.656 317.255 414.706 317.34C414.757 317.426 414.781 317.524 414.777 317.623C414.747 320.193 413.837 327.853 405.577 340.283Z" fill="#FF5331"/>
<path d="M412.077 322.013C411.891 322.944 411.606 323.853 411.227 324.723L408.867 331.143C407.987 333.543 407.197 335.713 406.527 337.563C406.271 338.474 405.936 339.36 405.527 340.213C405.62 339.265 405.828 338.331 406.147 337.433C406.637 335.753 407.397 333.433 408.327 330.933C409.257 328.433 410.167 326.183 410.857 324.573C411.176 323.68 411.585 322.823 412.077 322.013Z" fill="#263238"/>
<path d="M414.445 380.063C414.445 380.063 413.245 364.063 423.625 357.283C423.706 357.227 423.801 357.195 423.9 357.19C423.998 357.186 424.096 357.208 424.182 357.256C424.268 357.304 424.34 357.375 424.388 357.461C424.436 357.547 424.459 357.645 424.455 357.743C424.335 360.313 423.155 367.943 414.445 380.063Z" fill="#FF5331"/>
<path d="M421.566 362.043C421.342 362.967 421.024 363.865 420.616 364.723C419.876 366.543 418.996 368.723 418.026 371.053C417.056 373.383 416.206 375.553 415.466 377.383C415.17 378.286 414.791 379.159 414.336 379.993C414.469 379.047 414.714 378.121 415.066 377.233C415.616 375.573 416.456 373.293 417.476 370.823C418.496 368.353 419.476 366.133 420.226 364.553C420.582 363.671 421.031 362.83 421.566 362.043Z" fill="#263238"/>
<path d="M396.256 251.193C396.256 251.193 382.076 243.753 381.766 231.363C381.765 231.266 381.79 231.17 381.839 231.086C381.888 231.003 381.959 230.933 382.044 230.886C382.129 230.839 382.225 230.816 382.322 230.819C382.419 230.822 382.514 230.851 382.596 230.903C384.706 232.363 390.566 237.403 396.256 251.193Z" fill="#FF5331"/>
<path d="M384.715 235.623C385.38 236.303 385.974 237.051 386.485 237.853C387.645 239.443 388.995 241.323 390.485 243.393L394.485 248.913C395.094 249.639 395.636 250.419 396.105 251.243C395.373 250.634 394.719 249.939 394.155 249.173C393.025 247.833 391.545 245.913 389.985 243.743C388.425 241.573 387.055 239.563 386.115 238.093C385.564 237.321 385.094 236.493 384.715 235.623Z" fill="#263238"/>
<path d="M411.527 284.063C411.527 284.063 396.887 277.513 395.857 265.143C395.849 265.046 395.868 264.948 395.911 264.861C395.955 264.774 396.022 264.7 396.105 264.649C396.187 264.597 396.283 264.569 396.38 264.568C396.478 264.567 396.574 264.593 396.657 264.643C398.847 265.973 404.997 270.633 411.527 284.063Z" fill="#FF5331"/>
<path d="M399.074 269.223C399.78 269.858 400.416 270.565 400.974 271.333L405.314 276.623L409.664 281.893C410.316 282.583 410.905 283.329 411.424 284.123C410.657 283.557 409.959 282.902 409.344 282.173C408.144 280.893 406.544 279.073 404.854 277.003C403.164 274.933 401.684 273.003 400.644 271.593C400.035 270.864 399.508 270.069 399.074 269.223Z" fill="#263238"/>
<path d="M403.076 320.753C403.076 320.753 393.076 308.253 397.746 296.753C397.783 296.663 397.844 296.584 397.923 296.527C398.002 296.469 398.095 296.434 398.192 296.426C398.289 296.417 398.387 296.436 398.474 296.48C398.561 296.523 398.635 296.59 398.686 296.673C400.076 298.843 403.406 305.803 403.076 320.753Z" fill="#FF5331"/>
<path d="M398.755 301.833C399.097 302.721 399.345 303.643 399.495 304.583C399.915 306.503 400.405 308.763 400.945 311.263C401.485 313.763 401.995 316.013 402.415 317.933C402.682 318.844 402.866 319.778 402.965 320.723C402.526 319.873 402.19 318.973 401.965 318.043C401.475 316.353 400.875 314.043 400.315 311.383C399.755 308.723 399.315 306.383 399.035 304.663C398.838 303.733 398.744 302.784 398.755 301.833Z" fill="#263238"/>
<path d="M413.075 363.863C413.075 363.863 398.545 357.073 397.725 344.693C397.716 344.594 397.734 344.495 397.778 344.406C397.822 344.317 397.89 344.243 397.974 344.191C398.059 344.138 398.156 344.111 398.255 344.112C398.354 344.112 398.451 344.14 398.535 344.193C400.685 345.563 406.755 350.333 413.075 363.863Z" fill="#FF5331"/>
<path d="M400.844 348.813C401.531 349.469 402.154 350.189 402.704 350.963L406.954 356.313L411.214 361.663C411.854 362.363 412.43 363.119 412.934 363.923C412.189 363.339 411.518 362.668 410.934 361.923C409.744 360.623 408.184 358.773 406.524 356.673C404.864 354.573 403.424 352.623 402.404 351.193C401.793 350.463 401.269 349.664 400.844 348.813Z" fill="#263238"/>
<path d="M441.985 300.823C441.985 300.823 441.985 300.943 441.985 301.173C441.985 301.403 441.985 301.783 441.985 302.173C441.985 303.173 441.885 304.443 441.815 306.063C441.635 309.483 441.365 314.253 441.055 319.953C440.055 325.753 437.055 332.183 433.055 338.433C430.145 343.033 427.055 347.213 424.455 351.103C422.082 354.517 419.95 358.092 418.075 361.803C416.833 364.311 415.829 366.929 415.075 369.623C414.825 370.573 414.625 371.323 414.515 371.833C414.467 372.099 414.397 372.36 414.305 372.613C414.308 372.344 414.342 372.075 414.405 371.813C414.475 371.293 414.625 370.533 414.855 369.563C415.528 366.822 416.483 364.158 417.705 361.613C419.563 357.873 421.692 354.273 424.075 350.843C426.695 346.923 429.725 342.733 432.625 338.163C436.575 331.943 439.515 325.613 440.625 319.903C441.025 314.213 441.355 309.453 441.625 306.033C441.755 304.413 441.865 303.123 441.945 302.153C441.945 301.753 442.015 301.413 442.045 301.153C442.011 301.046 441.991 300.935 441.985 300.823Z" fill="#263238"/>
<path d="M433.337 337.283C433.337 337.283 439.487 322.483 431.757 312.773C431.697 312.695 431.616 312.636 431.524 312.601C431.432 312.566 431.333 312.558 431.236 312.576C431.14 312.595 431.05 312.64 430.978 312.707C430.906 312.773 430.853 312.859 430.827 312.953C430.137 315.433 428.867 323.043 433.337 337.283Z" fill="#FF5331"/>
<path d="M432.215 317.943C432.48 318.856 432.645 319.795 432.705 320.743C432.925 322.483 433.165 324.893 433.355 327.563C433.545 330.233 433.635 332.653 433.635 334.413C433.695 335.363 433.638 336.317 433.465 337.253C433.292 336.32 433.209 335.372 433.215 334.423C433.085 332.423 432.925 330.153 432.755 327.603C432.585 325.053 432.425 322.743 432.285 320.783C432.169 319.841 432.145 318.89 432.215 317.943Z" fill="#263238"/>
<g opacity="0.3">
<path opacity="0.3" d="M433.337 337.283C433.337 337.283 439.487 322.483 431.757 312.773C431.697 312.695 431.616 312.636 431.524 312.601C431.432 312.566 431.333 312.558 431.236 312.576C431.14 312.595 431.05 312.64 430.978 312.707C430.906 312.773 430.853 312.859 430.827 312.953C430.137 315.433 428.867 323.043 433.337 337.283Z" fill="black"/>
</g>
<path d="M414.284 372.973C414.284 372.973 419.214 357.713 410.714 348.673C410.648 348.601 410.564 348.549 410.47 348.522C410.376 348.495 410.277 348.494 410.183 348.52C410.089 348.546 410.004 348.597 409.937 348.668C409.87 348.739 409.824 348.828 409.804 348.923C409.324 351.443 408.674 359.143 414.284 372.973Z" fill="#FF5331"/>
<path d="M411.594 353.753C411.94 354.642 412.182 355.568 412.314 356.513C412.674 358.223 413.104 360.613 413.514 363.253C413.924 365.893 414.204 368.303 414.354 370.053C414.484 370.998 414.5 371.954 414.404 372.903C414.166 371.985 414.006 371.048 413.924 370.103C413.634 368.153 413.294 365.873 412.924 363.343C412.554 360.813 412.194 358.533 411.924 356.583C411.721 355.653 411.61 354.705 411.594 353.753Z" fill="#263238"/>
<g opacity="0.3">
<path opacity="0.3" d="M414.284 372.973C414.284 372.973 419.214 357.713 410.714 348.673C410.648 348.601 410.564 348.549 410.47 348.522C410.376 348.495 410.277 348.494 410.183 348.52C410.089 348.546 410.004 348.597 409.937 348.668C409.87 348.739 409.824 348.828 409.804 348.923C409.324 351.443 408.674 359.143 414.284 372.973Z" fill="black"/>
</g>
<path d="M441.176 319.193C441.176 319.193 454.306 309.993 452.986 297.653C452.976 297.556 452.939 297.464 452.88 297.386C452.82 297.309 452.741 297.249 452.65 297.214C452.559 297.179 452.46 297.17 452.364 297.187C452.268 297.205 452.179 297.248 452.106 297.313C450.196 299.033 445.076 304.753 441.176 319.193Z" fill="#FF5331"/>
<g opacity="0.3">
<path opacity="0.3" d="M441.176 319.193C441.176 319.193 454.306 309.993 452.986 297.653C452.976 297.556 452.939 297.464 452.88 297.386C452.82 297.309 452.741 297.249 452.65 297.214C452.559 297.179 452.46 297.17 452.364 297.187C452.268 297.205 452.179 297.248 452.106 297.313C450.196 299.033 445.076 304.753 441.176 319.193Z" fill="black"/>
</g>
<path d="M450.605 302.263C450.344 303.179 449.978 304.061 449.515 304.893C448.765 306.473 447.675 308.633 446.405 310.993C445.135 313.353 443.915 315.443 442.975 316.923C442.512 317.754 441.952 318.526 441.305 319.223C441.656 318.343 442.091 317.499 442.605 316.703C443.545 314.973 444.655 312.953 445.875 310.703L449.135 304.703C449.544 303.844 450.036 303.027 450.605 302.263Z" fill="#263238"/>
<path d="M419.586 357.843C419.586 357.843 435.426 355.373 439.666 343.713C439.7 343.622 439.709 343.523 439.691 343.428C439.673 343.332 439.629 343.244 439.564 343.171C439.499 343.099 439.415 343.046 439.322 343.018C439.229 342.99 439.13 342.988 439.036 343.013C436.566 343.753 429.406 346.603 419.586 357.843Z" fill="#FF5331"/>
<g opacity="0.3">
<path opacity="0.3" d="M419.586 357.843C419.586 357.843 435.426 355.373 439.666 343.713C439.7 343.622 439.709 343.523 439.691 343.428C439.673 343.332 439.629 343.244 439.564 343.171C439.499 343.099 439.415 343.046 439.322 343.018C439.229 342.99 439.13 342.988 439.036 343.013C436.566 343.753 429.406 346.603 419.586 357.843Z" fill="black"/>
</g>
<path d="M435.506 346.803C434.864 347.504 434.146 348.131 433.366 348.673C431.996 349.773 430.066 351.233 427.896 352.793C425.726 354.353 423.696 355.683 422.196 356.603C421.414 357.149 420.567 357.595 419.676 357.933C420.385 357.3 421.152 356.735 421.966 356.243L427.546 352.303L433.116 348.303C433.857 347.72 434.658 347.217 435.506 346.803Z" fill="#263238"/>
<path d="M404.464 387.003L399.844 418.103H428.644L424.914 387.003H404.464Z" fill="#455A64"/>
<path d="M426.074 396.633C426.074 396.803 420.874 396.933 414.464 396.933C408.054 396.933 402.844 396.803 402.844 396.633C406.71 396.337 410.588 396.237 414.464 396.333C418.336 396.237 422.211 396.337 426.074 396.633Z" fill="#263238"/>
<path d="M426.637 399.113C426.637 399.283 421.267 399.413 414.637 399.413C408.007 399.413 402.637 399.283 402.637 399.113C402.637 398.943 408.007 398.813 414.637 398.813C421.267 398.813 426.637 398.943 426.637 399.113Z" fill="#263238"/>
<path d="M314.643 85.2931C314.643 85.2931 314.373 85.2931 313.853 85.2931C313.094 85.248 312.332 85.248 311.573 85.2931C308.636 85.4651 305.75 86.1416 303.043 87.2931C298.751 89.092 295.017 92.0018 292.223 95.7231C290.501 98.0467 289.219 100.667 288.443 103.453C286.693 110.09 287.638 117.15 291.073 123.093C292.009 124.738 293.152 126.257 294.473 127.613C295.806 129.049 297.359 130.265 299.073 131.213C300.832 132.203 302.825 132.704 304.843 132.663C306.924 132.638 308.919 131.831 310.433 130.403C311.165 129.636 311.738 128.733 312.121 127.745C312.503 126.757 312.688 125.703 312.663 124.643C312.648 122.442 311.949 120.3 310.663 118.513C308.073 114.863 303.873 112.413 299.403 111.093C294.768 109.791 289.873 109.722 285.203 110.893C282.819 111.513 280.522 112.427 278.363 113.613C276.184 114.843 274.204 116.397 272.493 118.223C272.083 118.693 271.613 119.123 271.243 119.643L270.113 121.163C269.426 122.234 268.811 123.35 268.273 124.503C267.203 126.844 266.473 129.326 266.103 131.873C265.377 136.962 266.069 142.152 268.103 146.873C270.047 151.486 273.433 155.345 277.753 157.873C279.848 159.07 282.186 159.778 284.593 159.943C286.953 160.075 289.3 159.512 291.343 158.323C293.371 157.202 294.973 155.445 295.903 153.323C296.78 151.232 296.841 148.887 296.073 146.753C295.283 144.694 293.99 142.865 292.313 141.433C290.686 140.027 288.811 138.939 286.783 138.223C282.829 136.976 278.598 136.903 274.603 138.013C270.865 139.026 267.432 140.938 264.603 143.583C262.026 146.052 260.064 149.089 258.873 152.453C256.79 158.289 256.886 164.682 259.143 170.453C260.903 174.762 263.737 178.548 267.373 181.453C269.664 183.29 272.215 184.777 274.943 185.863C275.883 186.213 276.613 186.473 277.113 186.613L277.853 186.853C277.853 186.853 277.593 186.803 277.093 186.663C276.354 186.465 275.627 186.228 274.913 185.953C272.149 184.914 269.565 183.45 267.253 181.613C263.555 178.71 260.666 174.905 258.863 170.563C256.566 164.737 256.449 158.278 258.533 152.373C259.726 148.958 261.71 145.874 264.323 143.373C267.192 140.675 270.676 138.719 274.473 137.673C278.552 136.535 282.873 136.605 286.913 137.873C289 138.601 290.931 139.717 292.603 141.163C294.346 142.642 295.687 144.537 296.503 146.673C297.325 148.903 297.29 151.358 296.403 153.563C295.417 155.769 293.743 157.596 291.633 158.773C289.514 160.008 287.082 160.599 284.633 160.473C282.167 160.301 279.773 159.569 277.633 158.333C273.214 155.77 269.744 151.844 267.743 147.143C265.665 142.336 264.953 137.049 265.683 131.863C266.065 129.264 266.812 126.733 267.903 124.343C268.452 123.166 269.08 122.026 269.783 120.933L270.943 119.383C271.313 118.853 271.793 118.383 272.213 117.923C273.965 116.063 275.987 114.478 278.213 113.223C280.422 112.014 282.774 111.087 285.213 110.463C289.972 109.27 294.96 109.343 299.683 110.673C304.243 112.033 308.513 114.523 311.203 118.303C312.555 120.164 313.289 122.403 313.303 124.703C313.352 126.967 312.499 129.158 310.933 130.793C309.333 132.295 307.227 133.141 305.033 133.163C302.933 133.211 300.86 132.689 299.033 131.653C297.278 130.685 295.69 129.439 294.333 127.963C292.994 126.577 291.835 125.028 290.883 123.353C287.387 117.3 286.437 110.106 288.243 103.353C289.043 100.535 290.355 97.8872 292.113 95.5431C294.958 91.7936 298.757 88.8756 303.113 87.0931C305.843 85.9639 308.751 85.3273 311.703 85.2131C312.469 85.1626 313.237 85.1626 314.003 85.2131L314.643 85.2931Z" fill="#263238"/>
<path d="M348.034 185.353H207.824V293.493H348.034V185.353Z" fill="#FF5331"/>
<path d="M207.824 185.353L233.724 209.513H371.554L348.034 185.353H207.824Z" fill="#FF5331"/>
<path d="M207.824 185.353L348.074 185.103H348.184L348.264 185.173L371.544 209.083L371.784 209.333L372.214 209.773H371.594L233.764 209.663H233.704L207.824 185.353L233.824 209.353H233.714L371.544 209.253L371.364 209.693L371.114 209.443L347.844 185.533L348.024 185.613L207.824 185.353Z" fill="#263238"/>
<path d="M249.943 235.223C249.184 235.251 248.466 235.575 247.943 236.127C247.42 236.679 247.135 237.414 247.149 238.174C247.163 238.934 247.474 239.658 248.016 240.19C248.559 240.723 249.288 241.021 250.048 241.021C250.808 241.021 251.538 240.723 252.08 240.19C252.623 239.658 252.934 238.934 252.948 238.174C252.962 237.414 252.677 236.679 252.154 236.127C251.631 235.575 250.913 235.251 250.153 235.223" fill="#263238"/>
<path d="M283.073 235.223C282.317 235.252 281.602 235.576 281.082 236.127C280.562 236.677 280.279 237.409 280.293 238.166C280.308 238.923 280.619 239.644 281.159 240.174C281.699 240.704 282.426 241.001 283.183 241.001C283.94 241.001 284.667 240.704 285.207 240.174C285.747 239.644 286.058 238.923 286.072 238.166C286.087 237.409 285.804 236.677 285.284 236.127C284.764 235.576 284.049 235.252 283.293 235.223" fill="#263238"/>
<path d="M283.261 261.103C282.683 258.894 281.744 256.796 280.481 254.893C279.077 252.858 277.274 251.13 275.181 249.813C272.657 248.138 269.712 247.205 266.683 247.122C263.655 247.039 260.664 247.809 258.051 249.343C255.893 250.548 253.999 252.173 252.481 254.123C251.114 255.956 250.063 258.004 249.371 260.183C249.379 260.021 249.406 259.859 249.451 259.703C249.547 259.253 249.67 258.808 249.821 258.373C250.369 256.767 251.169 255.258 252.191 253.903C253.698 251.862 255.616 250.159 257.821 248.903C260.501 247.303 263.581 246.499 266.701 246.584C269.821 246.669 272.852 247.64 275.441 249.383C277.57 250.751 279.389 252.55 280.781 254.663C281.731 256.074 282.45 257.626 282.911 259.263C283.034 259.707 283.131 260.158 283.201 260.613C283.236 260.774 283.256 260.938 283.261 261.103Z" fill="#263238"/>
<path opacity="0.5" d="M208.145 186.543L232.945 217.983H348.035V209.513H233.725L208.145 186.543Z" fill="black"/>
<path d="M320.381 293.253C320.241 293.253 320.121 274.443 320.121 251.253C320.121 228.063 320.241 209.253 320.381 209.253C320.521 209.253 320.651 228.053 320.651 251.253C320.651 274.453 320.531 293.253 320.381 293.253Z" fill="#263238"/>
<path d="M342.403 268.733H330.043V282.703H342.403V268.733Z" fill="#F5F5F5"/>
<path d="M207.823 185.353L179.043 209.513H207.823V185.353Z" fill="#FF5331"/>
<g opacity="0.4">
<path opacity="0.4" d="M207.823 185.353L179.043 209.513H207.823V185.353Z" fill="black"/>
</g>
<path d="M352.175 293.493H190.965V417.833H352.175V293.493Z" fill="#FF5331"/>
<path opacity="0.3" d="M352.175 293.493H190.965V417.833H352.175V293.493Z" fill="black"/>
<path d="M311.783 416.953C311.643 416.953 311.523 389.243 311.523 355.063C311.523 320.883 311.643 293.163 311.783 293.163C311.923 293.163 312.043 320.873 312.043 355.063C312.043 389.253 311.923 416.953 311.783 416.953Z" fill="#263238"/>
<path d="M338.505 389.533H326.145V403.503H338.505V389.533Z" fill="#F5F5F5"/>
<path d="M258.455 293.823H240.145V320.353H258.455V293.823Z" fill="#263238"/>
<path d="M258.455 390.933H240.145V417.463H258.455V390.933Z" fill="#263238"/>
<path d="M350.775 293.493H350.355H349.145L344.495 293.543L327.365 293.623L270.875 293.753L214.365 293.683L197.245 293.603L192.595 293.553H191.375H190.965H191.375H192.595L197.245 293.503L214.365 293.423L270.875 293.343L327.365 293.423L344.495 293.503L349.145 293.553H350.355L350.775 293.493Z" fill="#263238"/>
<path d="M74.4936 78.2231L56.9336 73.9031H57.0636C52.5295 76.7872 47.2864 78.3618 41.9136 78.4531C38.7327 78.4676 35.5677 78.0058 32.5236 77.0831C27.1717 75.3647 22.4237 72.1501 18.8406 67.8192C15.2575 63.4882 12.9891 58.2221 12.3036 52.6431C11.7652 48.4237 12.1615 44.1376 13.4646 40.0885C14.7676 36.0394 16.9454 32.3265 19.8436 29.2131C21.3671 27.5397 23.0745 26.0436 24.9336 24.7531C25.8736 24.1631 26.8136 23.5531 27.7936 23.0431L29.2836 22.3231L30.0236 21.9631L30.8036 21.6831C34.819 20.1266 39.1265 19.4679 43.4236 19.7531C49.1825 20.127 54.7019 22.1973 59.2861 25.7031C63.8703 29.2089 67.3141 33.9932 69.1836 39.4531C70.2222 42.5074 70.769 45.7072 70.8036 48.9331C70.8286 54.2942 69.3717 59.5579 66.5936 64.1431V63.9831C71.4736 72.7931 73.9336 77.2431 74.4836 78.2231C73.9136 77.2231 71.3636 72.8531 66.3136 64.1331V64.0531V63.9731C68.9919 59.4323 70.3753 54.2446 70.3136 48.9731C70.2672 45.7989 69.7135 42.6525 68.6736 39.6531C66.8245 34.3049 63.4387 29.621 58.9401 26.1879C54.4416 22.7549 49.0302 20.7252 43.3836 20.3531C39.1711 20.0785 34.9495 20.727 31.0136 22.2531L30.2536 22.5231L29.5236 22.8831L28.0636 23.5831C27.0636 24.0931 26.1836 24.6831 25.2536 25.2631C23.4304 26.519 21.7533 27.9747 20.2536 29.6031C17.4084 32.6595 15.2698 36.304 13.9893 40.2786C12.7088 44.2531 12.3177 48.4606 12.8436 52.6031C13.7707 60.1923 17.6643 67.106 23.6736 71.8331C26.3602 73.9618 29.4091 75.5879 32.6736 76.6331C35.663 77.5572 38.7746 78.0258 41.9036 78.0231C47.212 77.9662 52.4021 76.4473 56.9036 73.6331H56.9636H57.0736L74.4936 78.2231Z" fill="#263238"/>
<path d="M39.0749 36.0531L39.9649 50.7531C40.0004 51.3329 40.2468 51.8797 40.6575 52.2905C41.0683 52.7012 41.6151 52.9476 42.1949 52.9831C42.805 53.0176 43.4051 52.8171 43.872 52.4228C44.3388 52.0285 44.6369 51.4704 44.7049 50.8631L46.3349 36.1331C46.3633 35.8696 46.3353 35.603 46.2529 35.3511C46.1704 35.0992 46.0354 34.8677 45.8566 34.672C45.6779 34.4762 45.4596 34.3207 45.2162 34.2157C44.9729 34.1108 44.7099 34.0587 44.4449 34.0631H40.8749C40.6244 34.0706 40.378 34.1286 40.1505 34.2336C39.923 34.3387 39.719 34.4887 39.5509 34.6745C39.3828 34.8604 39.254 35.0783 39.1722 35.3152C39.0904 35.5521 39.0573 35.8031 39.0749 36.0531Z" fill="#FF5331"/>
<path d="M46.074 61.1931C45.8503 61.8646 45.4325 62.4547 44.8734 62.8888C44.3144 63.323 43.6392 63.5816 42.9332 63.6321C42.2272 63.6827 41.522 63.5228 40.9069 63.1727C40.2917 62.8225 39.7941 62.2979 39.477 61.6651C39.1599 61.0323 39.0375 60.3197 39.1253 59.6174C39.2131 58.915 39.5071 58.2544 39.9701 57.7191C40.4332 57.1838 41.0446 56.7978 41.727 56.6098C42.4094 56.4219 43.1322 56.4404 43.804 56.6631C44.2508 56.8112 44.6639 57.0459 45.0198 57.3537C45.3757 57.6616 45.6675 58.0367 45.8783 58.4574C46.0891 58.8782 46.2149 59.3364 46.2485 59.8058C46.2821 60.2752 46.2228 60.7466 46.074 61.1931Z" fill="#FF5331"/>
</svg>
